<?xml version="1.0" encoding="UTF-8" standalone="no"?><svg xmlns="http://www.w3.org/2000/svg" xmlns:xlink="http://www.w3.org/1999/xlink" contentScriptType="application/ecmascript" contentStyleType="text/css" height="655.2242px" preserveAspectRatio="none" style="width:1900px;height:655px;" version="1.1" viewBox="0 0 1900 655" width="1900.677px" zoomAndPan="magnify"><defs/><g><!--MD5=[a6f11bb19cee6b13000111f5ad685e8b]
cluster Dependencies--><path d="M1777.7127,206.4044 L1867.301,206.4044 A3.9524,3.9524 0 0 1 1869.936,209.0393 L1876.0842,223.9433 L1887.5023,223.9433 A2.6349,2.6349 0 0 1 1890.1372,226.5782 L1890.1372,549.8262 A2.6349,2.6349 0 0 1 1887.5023,552.4611 L1777.7127,552.4611 A2.6349,2.6349 0 0 1 1775.0778,549.8262 L1775.0778,209.0393 A2.6349,2.6349 0 0 1 1777.7127,206.4044 " fill="#FFFFFF" style="stroke: #000000; stroke-width: 1.3174748398902103;"/><line style="stroke: #000000; stroke-width: 1.3174748398902103;" x1="1775.0778" x2="1876.0842" y1="223.9433" y2="223.9433"/><text fill="#000000" font-family="Tahoma, sans-serif" font-size="10.5398" font-weight="bold" lengthAdjust="spacingAndGlyphs" textLength="89.5883" x="1778.591" y="217.9443">Dependencies</text><!--MD5=[a3eeb38a3c88bc709a72fd619cafec5a]
entity async-mutex--><rect fill="#F8F8F8" height="29.8353" rx="2.6349" ry="2.6349" style="stroke: #383838; stroke-width: 0.8783165599268069;" width="86.9533" x="1789.1308" y="234.5105"/><rect fill="#F8F8F8" height="4.3916" style="stroke: #383838; stroke-width: 0.8783165599268069;" width="8.7832" x="1784.7392" y="238.9021"/><rect fill="#F8F8F8" height="4.3916" style="stroke: #383838; stroke-width: 0.8783165599268069;" width="8.7832" x="1784.7392" y="255.5627"/><text fill="#000000" font-family="Tahoma, sans-serif" font-size="10.5398" lengthAdjust="spacingAndGlyphs" textLength="69.387" x="1797.914" y="253.077">async-mutex</text><!--MD5=[247c11c248b6a71ee5eacb9cd05e1b38]
entity commander--><rect fill="#F8F8F8" height="29.8353" rx="2.6349" ry="2.6349" style="stroke: #383838; stroke-width: 0.8783165599268069;" width="81.6834" x="1791.7658" y="280.183"/><rect fill="#F8F8F8" height="4.3916" style="stroke: #383838; stroke-width: 0.8783165599268069;" width="8.7832" x="1787.3742" y="284.5746"/><rect fill="#F8F8F8" height="4.3916" style="stroke: #383838; stroke-width: 0.8783165599268069;" width="8.7832" x="1787.3742" y="301.2351"/><text fill="#000000" font-family="Tahoma, sans-serif" font-size="10.5398" lengthAdjust="spacingAndGlyphs" textLength="64.1171" x="1800.5489" y="298.7494">commander</text><!--MD5=[564a394d57ce3e0a92ac6699042b9ef1]
entity cors--><rect fill="#F8F8F8" height="29.8353" rx="2.6349" ry="2.6349" style="stroke: #383838; stroke-width: 0.8783165599268069;" width="41.2809" x="1811.9671" y="417.2004"/><rect fill="#F8F8F8" height="4.3916" style="stroke: #383838; stroke-width: 0.8783165599268069;" width="8.7832" x="1807.5755" y="421.5919"/><rect fill="#F8F8F8" height="4.3916" style="stroke: #383838; stroke-width: 0.8783165599268069;" width="8.7832" x="1807.5755" y="438.2525"/><text fill="#000000" font-family="Tahoma, sans-serif" font-size="10.5398" lengthAdjust="spacingAndGlyphs" textLength="23.7145" x="1820.7502" y="435.7668">cors</text><!--MD5=[b84d8dbe3cf51322a9824c71d57d534f]
entity dotenv--><rect fill="#F8F8F8" height="29.8353" rx="2.6349" ry="2.6349" style="stroke: #383838; stroke-width: 0.8783165599268069;" width="55.3339" x="1804.9405" y="325.8554"/><rect fill="#F8F8F8" height="4.3916" style="stroke: #383838; stroke-width: 0.8783165599268069;" width="8.7832" x="1800.5489" y="330.247"/><rect fill="#F8F8F8" height="4.3916" style="stroke: #383838; stroke-width: 0.8783165599268069;" width="8.7832" x="1800.5489" y="346.9076"/><text fill="#000000" font-family="Tahoma, sans-serif" font-size="10.5398" lengthAdjust="spacingAndGlyphs" textLength="37.7676" x="1813.7237" y="344.4219">dotenv</text><!--MD5=[78147715a61726ca0d0a20352beeced2]
entity ethers--><rect fill="#F8F8F8" height="29.8353" rx="2.6349" ry="2.6349" style="stroke: #383838; stroke-width: 0.8783165599268069;" width="52.699" x="1806.258" y="371.5279"/><rect fill="#F8F8F8" height="4.3916" style="stroke: #383838; stroke-width: 0.8783165599268069;" width="8.7832" x="1801.8664" y="375.9195"/><rect fill="#F8F8F8" height="4.3916" style="stroke: #383838; stroke-width: 0.8783165599268069;" width="8.7832" x="1801.8664" y="392.5801"/><text fill="#000000" font-family="Tahoma, sans-serif" font-size="10.5398" lengthAdjust="spacingAndGlyphs" textLength="35.1327" x="1815.0412" y="390.0944">ethers</text><!--MD5=[6d151e53a42aadf92577082572a20d90]
entity express--><rect fill="#F8F8F8" height="29.8353" rx="2.6349" ry="2.6349" style="stroke: #383838; stroke-width: 0.8783165599268069;" width="61.4822" x="1801.8664" y="462.8728"/><rect fill="#F8F8F8" height="4.3916" style="stroke: #383838; stroke-width: 0.8783165599268069;" width="8.7832" x="1797.4748" y="467.2644"/><rect fill="#F8F8F8" height="4.3916" style="stroke: #383838; stroke-width: 0.8783165599268069;" width="8.7832" x="1797.4748" y="483.925"/><text fill="#000000" font-family="Tahoma, sans-serif" font-size="10.5398" lengthAdjust="spacingAndGlyphs" textLength="43.9158" x="1810.6496" y="481.4393">express</text><!--MD5=[380c1750e2aa5aeed8d38b1a8d057635]
entity helmet--><rect fill="#F8F8F8" height="29.8353" rx="2.6349" ry="2.6349" style="stroke: #383838; stroke-width: 0.8783165599268069;" width="54.4556" x="1805.3797" y="508.5453"/><rect fill="#F8F8F8" height="4.3916" style="stroke: #383838; stroke-width: 0.8783165599268069;" width="8.7832" x="1800.9881" y="512.9369"/><rect fill="#F8F8F8" height="4.3916" style="stroke: #383838; stroke-width: 0.8783165599268069;" width="8.7832" x="1800.9881" y="529.5974"/><text fill="#000000" font-family="Tahoma, sans-serif" font-size="10.5398" lengthAdjust="spacingAndGlyphs" textLength="36.8893" x="1814.1629" y="527.1117">helmet</text><ellipse cx="44.5476" cy="286.2235" fill="#F8F8F8" rx="39.2777" ry="11.3104" style="stroke: #383838; stroke-width: 0.43915827996340345;"/><text fill="#000000" font-family="Tahoma, sans-serif" font-size="10.5398" font-weight="bold" lengthAdjust="spacingAndGlyphs" textLength="51.8207" x="18.6373" y="289.2839">execute</text><ellipse cx="170.3858" cy="126.3699" fill="#F8F8F8" rx="28.0986" ry="11.3104" style="stroke: #383838; stroke-width: 0.43915827996340345;"/><text fill="#000000" font-family="Tahoma, sans-serif" font-size="10.5398" lengthAdjust="spacingAndGlyphs" textLength="36.011" x="152.3804" y="129.4303">bundle</text><ellipse cx="1036.3747" cy="123.6592" fill="#F8F8F8" rx="54.4168" ry="12.9913" style="stroke: #383838; stroke-width: 0.43915827996340345;"/><text fill="#000000" font-family="Tahoma, sans-serif" font-size="10.5398" lengthAdjust="spacingAndGlyphs" textLength="83.4401" x="994.6547" y="126.7196">BundleManager</text><!--MD5=[d311e3a21743ce7e07445cb54fac1893]
entity _cli--><rect fill="#F8F8F8" height="29.8353" rx="2.6349" ry="2.6349" style="stroke: #000000; stroke-width: 0.43915827996340345;" width="28.9844" x="303.0192" y="616.5782"/><text fill="#000000" font-family="Tahoma, sans-serif" font-size="10.5398" lengthAdjust="spacingAndGlyphs" textLength="11.4181" x="311.8024" y="635.1447">cli</text><ellipse cx="170.2919" cy="629.057" fill="#F8F8F8" rx="12.1949" ry="10.2829" style="stroke: #383838; stroke-width: 0.43915827996340345;"/><text fill="#000000" font-family="Tahoma, sans-serif" font-size="10.5398" lengthAdjust="spacingAndGlyphs" textLength="11.4181" x="164.5829" y="632.1173">cli</text><ellipse cx="1409.8412" cy="178.1906" fill="#F8F8F8" rx="25.6143" ry="11.3104" style="stroke: #383838; stroke-width: 0.43915827996340345;"/><text fill="#000000" font-family="Tahoma, sans-serif" font-size="10.5398" lengthAdjust="spacingAndGlyphs" textLength="32.4977" x="1393.5923" y="181.251">config</text><ellipse cx="1518.2379" cy="297.6416" fill="#F8F8F8" rx="26.8564" ry="11.3104" style="stroke: #383838; stroke-width: 0.43915827996340345;"/><text fill="#000000" font-family="Tahoma, sans-serif" font-size="10.5398" lengthAdjust="spacingAndGlyphs" textLength="34.2543" x="1501.1108" y="300.702">Config</text><!--MD5=[4d79e7d2cf9a57eda717a385fa9eefa7]
entity _Debug--><rect fill="#F8F8F8" height="29.8353" rx="2.6349" ry="2.6349" style="stroke: #000000; stroke-width: 0.43915827996340345;" width="52.699" x="837.914" y="191.473"/><text fill="#000000" font-family="Tahoma, sans-serif" font-size="10.5398" lengthAdjust="spacingAndGlyphs" textLength="35.1327" x="846.6972" y="210.0395">Debug</text><!--MD5=[9fbdc8c1c29a3a6defee5673dec63f06]
entity _Eth--><rect fill="#F8F8F8" height="29.8353" rx="2.6349" ry="2.6349" style="stroke: #000000; stroke-width: 0.43915827996340345;" width="34.2543" x="1019.2864" y="316.194"/><text fill="#000000" font-family="Tahoma, sans-serif" font-size="10.5398" lengthAdjust="spacingAndGlyphs" textLength="16.688" x="1028.0695" y="334.7604">Eth</text><ellipse cx="466.7362" cy="286.1377" fill="#F8F8F8" rx="56.5624" ry="13.4204" style="stroke: #383838; stroke-width: 0.43915827996340345;"/><text fill="#000000" font-family="Tahoma, sans-serif" font-size="10.5398" lengthAdjust="spacingAndGlyphs" textLength="88.71" x="422.3812" y="289.1981">json-rpc-handler</text><ellipse cx="170.3546" cy="463.5677" fill="#F8F8F8" rx="54.4168" ry="12.9913" style="stroke: #383838; stroke-width: 0.43915827996340345;"/><text fill="#000000" font-family="Tahoma, sans-serif" font-size="10.5398" lengthAdjust="spacingAndGlyphs" textLength="83.4401" x="128.6346" y="466.6281">json-rpc-server</text><!--MD5=[bfbdfac5fa9726ec406701361bc51456]
entity _JsonRpcHttpServer--><rect fill="#F8F8F8" height="29.8353" rx="2.6349" ry="2.6349" style="stroke: #000000; stroke-width: 0.43915827996340345;" width="120.3294" x="257.3468" y="449.6981"/><text fill="#000000" font-family="Tahoma, sans-serif" font-size="10.5398" lengthAdjust="spacingAndGlyphs" textLength="102.763" x="266.1299" y="468.2645">JsonRpcHttpServer</text><ellipse cx="1161.4025" cy="188.7304" fill="#F8F8F8" rx="38.0356" ry="11.3104" style="stroke: #383838; stroke-width: 0.43915827996340345;"/><text fill="#000000" font-family="Tahoma, sans-serif" font-size="10.5398" lengthAdjust="spacingAndGlyphs" textLength="50.064" x="1136.3704" y="191.7908">mempool</text><!--MD5=[cdd2b60af264798a6701fa2b094e6714]
entity _mempool_types--><rect fill="#F8F8F8" height="29.8353" rx="2.6349" ry="2.6349" style="stroke: #000000; stroke-width: 0.43915827996340345;" width="101.0064" x="1467.667" y="324.9771"/><text fill="#000000" font-family="Tahoma, sans-serif" font-size="10.5398" lengthAdjust="spacingAndGlyphs" textLength="83.4401" x="1476.4501" y="343.5436">mempool.types</text><ellipse cx="1292.1355" cy="319.7336" fill="#F8F8F8" rx="59.8574" ry="14.0794" style="stroke: #383838; stroke-width: 0.43915827996340345;"/><text fill="#000000" font-family="Tahoma, sans-serif" font-size="10.5398" lengthAdjust="spacingAndGlyphs" textLength="96.6148" x="1243.8281" y="322.794">MempoolManager</text><ellipse cx="44.1526" cy="324.8694" fill="#F8F8F8" rx="34.9303" ry="11.3104" style="stroke: #383838; stroke-width: 0.43915827996340345;"/><text fill="#000000" font-family="Tahoma, sans-serif" font-size="10.5398" lengthAdjust="spacingAndGlyphs" textLength="45.6725" x="21.3163" y="327.9298">modules</text><ellipse cx="744.61" cy="213.3232" fill="#F8F8F8" rx="34.9303" ry="11.3104" style="stroke: #383838; stroke-width: 0.43915827996340345;"/><text fill="#000000" font-family="Tahoma, sans-serif" font-size="10.5398" lengthAdjust="spacingAndGlyphs" textLength="45.6725" x="721.7738" y="216.3836">provider</text><!--MD5=[a4bde2d833f6366106426cb2feefc97b]
entity _ProviderService--><rect fill="#F8F8F8" height="29.8353" rx="2.6349" ry="2.6349" style="stroke: #000000; stroke-width: 0.43915827996340345;" width="103.6414" x="812.4428" y="122.086"/><text fill="#000000" font-family="Tahoma, sans-serif" font-size="10.5398" lengthAdjust="spacingAndGlyphs" textLength="86.075" x="821.226" y="140.6524">ProviderService</text><!--MD5=[f8fccc9831326f778d2a4cbf39886af7]
entity _rcp_types--><rect fill="#F8F8F8" height="29.8353" rx="2.6349" ry="2.6349" style="stroke: #000000; stroke-width: 0.43915827996340345;" width="68.5087" x="1483.9158" y="404.0256"/><text fill="#000000" font-family="Tahoma, sans-serif" font-size="10.5398" lengthAdjust="spacingAndGlyphs" textLength="50.9424" x="1492.699" y="422.5921">rcp.types</text><!--MD5=[bfec9c45ac6fc6e503458737f2b2e141]
entity _RpcMethodHandler--><rect fill="#F8F8F8" height="29.8353" rx="2.6349" ry="2.6349" style="stroke: #000000; stroke-width: 0.43915827996340345;" width="121.2077" x="555.9744" y="270.5215"/><text fill="#000000" font-family="Tahoma, sans-serif" font-size="10.5398" lengthAdjust="spacingAndGlyphs" textLength="103.6414" x="564.7575" y="289.0879">RpcMethodHandler</text><ellipse cx="744.61" cy="253.7258" fill="#F8F8F8" rx="34.9303" ry="11.3104" style="stroke: #383838; stroke-width: 0.43915827996340345;"/><text fill="#000000" font-family="Tahoma, sans-serif" font-size="10.5398" lengthAdjust="spacingAndGlyphs" textLength="45.6725" x="721.7738" y="256.7862">services</text><ellipse cx="1409.9165" cy="385.4733" fill="#F8F8F8" rx="24.3722" ry="11.3104" style="stroke: #383838; stroke-width: 0.43915827996340345;"/><text fill="#000000" font-family="Tahoma, sans-serif" font-size="10.5398" lengthAdjust="spacingAndGlyphs" textLength="30.7411" x="1394.546" y="388.5337">types</text><!--MD5=[7beab469bc2d2fbeda6c6a34ec9efe0b]
entity _userop_types--><rect fill="#F8F8F8" height="29.8353" rx="2.6349" ry="2.6349" style="stroke: #000000; stroke-width: 0.43915827996340345;" width="88.71" x="1601.1711" y="373.2845"/><text fill="#000000" font-family="Tahoma, sans-serif" font-size="10.5398" lengthAdjust="spacingAndGlyphs" textLength="71.1436" x="1609.9543" y="391.851">userop.types</text><ellipse cx="1645.6821" cy="446.0771" fill="#F8F8F8" rx="18.1615" ry="11.3104" style="stroke: #383838; stroke-width: 0.43915827996340345;"/><text fill="#000000" font-family="Tahoma, sans-serif" font-size="10.5398" lengthAdjust="spacingAndGlyphs" textLength="21.9579" x="1634.7032" y="449.1375">utils</text><!--MD5=[4829182cfd9684458e1349ddbe6f9e42]
entity _Web3--><rect fill="#F8F8F8" height="29.8353" rx="2.6349" ry="2.6349" style="stroke: #000000; stroke-width: 0.43915827996340345;" width="48.3074" x="840.1098" y="237.1455"/><text fill="#000000" font-family="Tahoma, sans-serif" font-size="10.5398" lengthAdjust="spacingAndGlyphs" textLength="30.7411" x="848.893" y="255.7119">Web3</text><!--MD5=[45aa6e75cfadc2501734071d674e99ad]
link bundle to BundleManager--><path d="M193.2112,119.8033 C241.8304,105.6228 362.5252,73.7786 465.9469,73.7786 C465.9469,73.7786 465.9469,73.7786 865.1418,73.7786 C916.9274,73.7786 974.1058,95.329 1007.3149,110.1514 " fill="none" id="bundle-&gt;BundleManager" style="stroke: #000000; stroke-width: 0.43915827996340345;"/><polygon fill="#000000" points="1011.6362,112.1048,1005.8769,105.6504,1007.6336,110.298,1002.986,112.0546,1011.6362,112.1048" style="stroke: #000000; stroke-width: 0.43915827996340345;"/><!--MD5=[86dcf3ec0690aab6c60dd290f82922fc]
link BundleManager to async-mutex--><path d="M1052.4867,111.1185 C1090.2368,80.8429 1192.4026,7.0265 1291.1253,7.0265 C1291.1253,7.0265 1291.1253,7.0265 1723.2571,7.0265 C1820.5746,7.0265 1831.1583,171.8119 1831.8697,229.6587 " fill="none" id="BundleManager-&gt;async-mutex" style="stroke: #000000; stroke-width: 0.43915827996340345;"/><polygon fill="#000000" points="1831.9136,234.2778,1835.359,226.3431,1831.876,229.8863,1828.3327,226.4033,1831.9136,234.2778" style="stroke: #000000; stroke-width: 0.43915827996340345;"/><!--MD5=[fbc4e3ba3dd1adc52b1a14b84cb490e0]
link BundleManager to config--><path d="M1086.6972,118.6219 C1149.892,113.6928 1261.9213,110.8945 1351.7292,140.5306 C1367.5477,145.7505 1383.1554,156.5749 1394.0465,165.3027 " fill="none" id="BundleManager-&gt;config" style="stroke: #000000; stroke-width: 0.43915827996340345;"/><polygon fill="#000000" points="1397.551,168.1713,1393.6637,160.4435,1394.1542,165.3877,1389.21,165.8782,1397.551,168.1713" style="stroke: #000000; stroke-width: 0.43915827996340345;"/><!--MD5=[11d73145dc99236b2470968e3876eadb]
link BundleManager to mempool--><path d="M1059.9261,135.764 C1082.0684,147.4246 1115.6113,165.091 1137.824,176.7937 " fill="none" id="BundleManager-&gt;mempool" style="stroke: #000000; stroke-width: 0.43915827996340345;"/><polygon fill="#000000" points="1141.8379,178.9069,1136.4799,172.1156,1137.952,176.8611,1133.2065,178.3331,1141.8379,178.9069" style="stroke: #000000; stroke-width: 0.43915827996340345;"/><!--MD5=[a318976f6ed03a7c24ff23e2d4b8f1a7]
link cli to _cli--><path d="M182.9217,629.0858 C208.118,629.5425 267.8479,630.6253 298.2175,631.1758 " fill="none" id="cli-&gt;_cli" style="stroke: #000000; stroke-width: 0.43915827996340345;"/><polygon fill="#000000" points="302.8295,631.2594,294.9892,627.6044,298.4386,631.1803,294.8627,634.6298,302.8295,631.2594" style="stroke: #000000; stroke-width: 0.43915827996340345;"/><!--MD5=[eb7bbb8410cb9488a8bd8c833b6bc215]
link config to Config--><path d="M1420.0446,188.8987 C1439.2973,210.4499 1483.0112,259.3801 1504.6617,283.6111 " fill="none" id="config-&gt;Config" style="stroke: #000000; stroke-width: 0.43915827996340345;"/><polygon fill="#000000" points="1507.6919,287.0005,1505.0449,278.765,1504.7658,283.7257,1499.8052,283.4466,1507.6919,287.0005" style="stroke: #000000; stroke-width: 0.43915827996340345;"/><!--MD5=[0b1562c0d113df0dcf54fa78a6f95df2]
link Config to commander--><path d="M1545.1696,297.5289 C1598.5625,297.0792 1720.7363,296.0498 1787.0053,295.4912 " fill="none" id="Config-&gt;commander" style="stroke: #000000; stroke-width: 0.43915827996340345;"/><polygon fill="#000000" points="1791.678,295.4516,1783.7433,292.0063,1787.2865,295.4893,1783.8035,299.0325,1791.678,295.4516" style="stroke: #000000; stroke-width: 0.43915827996340345;"/><!--MD5=[73a2bb3f4035ad9653fbd125a3b81365]
link Config to dotenv--><path d="M1543.8434,301.1625 C1600.1522,308.9127 1737.6176,327.8334 1800.0044,336.4198 " fill="none" id="Config-&gt;dotenv" style="stroke: #000000; stroke-width: 0.43915827996340345;"/><polygon fill="#000000" points="1804.721,337.0698,1797.3724,332.5059,1800.3708,336.4677,1796.4091,339.4661,1804.721,337.0698" style="stroke: #000000; stroke-width: 0.43915827996340345;"/><!--MD5=[e8a9ee2f01904c80dfc59b180358b3f2]
link Config to ethers--><path d="M1539.8909,304.7319 C1556.4472,310.2047 1580.2057,317.904 1601.1711,324.0988 C1672.6836,345.2294 1757.4939,367.4437 1801.6293,378.7933 " fill="none" id="Config-&gt;ethers" style="stroke: #000000; stroke-width: 0.43915827996340345;"/><polygon fill="#000000" points="1806.0296,379.9237,1799.2611,374.537,1801.7789,378.8203,1797.4956,381.3381,1806.0296,379.9237" style="stroke: #000000; stroke-width: 0.43915827996340345;"/><!--MD5=[b3efc3e47244008bde1eb71834f5bed7]
link Config to utils--><path d="M1542.684,302.443 C1551.836,305.3143 1561.7522,309.8771 1568.6734,317.0723 C1599.3178,348.9174 1575.779,374.8787 1601.1711,411.0522 C1608.1976,421.0606 1618.834,429.7278 1627.8368,435.9489 " fill="none" id="Config-&gt;utils" style="stroke: #000000; stroke-width: 0.43915827996340345;"/><polygon fill="#000000" points="1631.5784,438.4627,1626.9732,431.14,1627.9321,436.0151,1623.057,436.974,1631.5784,438.4627" style="stroke: #000000; stroke-width: 0.43915827996340345;"/><!--MD5=[551b38e0db780b6a75f61290cf5e5564]
link _Debug to BundleManager--><path d="M890.7887,191.9227 C907.1517,182.8638 928.8988,171.1461 948.5819,161.6102 C966.6049,152.8771 987.14,143.9122 1003.7314,136.9102 " fill="none" id="_Debug-&gt;BundleManager" style="stroke: #000000; stroke-width: 0.43915827996340345;"/><polygon fill="#000000" points="1007.8595,135.1738,999.2107,135.0063,1003.8126,136.8793,1001.9395,141.4812,1007.8595,135.1738" style="stroke: #000000; stroke-width: 0.43915827996340345;"/><!--MD5=[1b9240df91d9be239761a71159044587]
link _Debug to MempoolManager--><path d="M890.8326,213.2368 C961.4141,232.01 1158.9036,284.5394 1247.3413,308.0616 " fill="none" id="_Debug-&gt;MempoolManager" style="stroke: #000000; stroke-width: 0.43915827996340345;"/><polygon fill="#000000" points="1251.7241,309.2272,1244.9886,303.7992,1247.4802,308.0978,1243.1816,310.5894,1251.7241,309.2272" style="stroke: #000000; stroke-width: 0.43915827996340345;"/><!--MD5=[e28999f0bee05d3cabce42b4d610cc7a]
link _Eth to config--><path d="M1053.6725,327.389 C1110.5698,314.2362 1299.0038,269.1452 1351.7292,237.1455 C1370.7535,225.6018 1387.828,206.2173 1398.2448,192.8695 " fill="none" id="_Eth-&gt;config" style="stroke: #000000; stroke-width: 0.43915827996340345;"/><polygon fill="#000000" points="1401.0027,189.2763,1393.4053,193.4127,1398.331,192.7617,1398.982,197.6874,1401.0027,189.2763" style="stroke: #000000; stroke-width: 0.43915827996340345;"/><!--MD5=[07187728bdf6a45bdc8666d2d84690de]
link _Eth to MempoolManager--><path d="M1053.5583,330.3937 C1088.164,328.8373 1170.6642,325.1264 1228.677,322.5161 " fill="none" id="_Eth-&gt;MempoolManager" style="stroke: #000000; stroke-width: 0.43915827996340345;"/><polygon fill="#000000" points="1233.1652,322.3141,1225.117,319.1429,1228.7777,322.5023,1225.4183,326.163,1233.1652,322.3141" style="stroke: #000000; stroke-width: 0.43915827996340345;"/><!--MD5=[b201eeb3b16653f6ce9756d2ad86d974]
link _Eth to types--><path d="M1053.7339,333.5354 C1112.0717,342.0859 1309.4646,371.0185 1381.8906,381.6338 " fill="none" id="_Eth-&gt;types" style="stroke: #000000; stroke-width: 0.43915827996340345;"/><polygon fill="#000000" points="1386.4754,382.3057,1379.1668,377.6782,1382.1307,381.6659,1378.143,384.6298,1386.4754,382.3057" style="stroke: #000000; stroke-width: 0.43915827996340345;"/><!--MD5=[7ffef86eba8669055f4257cee7e82074]
link <b>execute</b> to modules--><path d="M44.355,297.795 C44.355,301.5586 44.355,305.3222 44.355,309.0857 " fill="none" id="&lt;b&gt;execute&lt;/b&gt;-&gt;modules" style="stroke: #000000; stroke-width: 0.8783165599268069;"/><polygon fill="#000000" points="44.355,313.5046,47.8683,305.5997,44.355,309.113,40.8417,305.5997,44.355,313.5046" style="stroke: #000000; stroke-width: 0.8783165599268069;"/><!--MD5=[8db446057e252199ab8be2a4a46bc8ff]
link json-rpc-handler to _RpcMethodHandler--><path d="M523.655,285.9992 C532.7289,285.9456 542.1892,285.8894 551.4423,285.8341 " fill="none" id="json-rpc-handler-&gt;_RpcMethodHandler" style="stroke: #000000; stroke-width: 0.43915827996340345;"/><polygon fill="#000000" points="555.9656,285.8077,548.0398,282.3419,551.5741,285.8341,548.082,289.3684,555.9656,285.8077" style="stroke: #000000; stroke-width: 0.43915827996340345;"/><!--MD5=[79bce37a67a4815b838ecabfbfb51c4f]
link json-rpc-server to _JsonRpcHttpServer--><path d="M224.9861,464.0761 C234.0213,464.1306 243.4773,464.1877 252.7391,464.243 " fill="none" id="json-rpc-server-&gt;_JsonRpcHttpServer" style="stroke: #000000; stroke-width: 0.43915827996340345;"/><polygon fill="#000000" points="257.2686,464.2711,249.385,460.7105,252.8771,464.2448,249.3428,467.7369,257.2686,464.2711" style="stroke: #000000; stroke-width: 0.43915827996340345;"/><!--MD5=[b7064eefebf200012121f8e4e34ea269]
link _JsonRpcHttpServer to config--><path d="M342.4012,449.6278 C391.6589,420.3333 508.5365,358.3532 615.6999,358.3532 C615.6999,358.3532 615.6999,358.3532 865.1418,358.3532 C889.6468,358.3532 893.5466,346.8929 916.0842,337.2736 C945.499,324.7171 951.7702,318.8746 981.9579,308.2891 C1029.2289,291.7118 1042.7813,293.3323 1090.8692,279.3047 C1201.1945,247.1205 1331.5103,204.1471 1384.5431,186.4446 " fill="none" id="_JsonRpcHttpServer-&gt;config" style="stroke: #000000; stroke-width: 0.43915827996340345;"/><polygon fill="#000000" points="1388.8293,185.0121,1380.2183,184.1866,1384.6643,186.4046,1382.4463,190.8506,1388.8293,185.0121" style="stroke: #000000; stroke-width: 0.43915827996340345;"/><!--MD5=[874e5c9d1ef39f877d69e6c7af67d374]
link _JsonRpcHttpServer to cors--><path d="M377.7543,473.2818 C437.6625,481.2542 532.8975,491.8573 615.6999,491.8573 C615.6999,491.8573 615.6999,491.8573 1723.2571,491.8573 C1749.0445,491.8573 1745.6278,467.7071 1768.0512,454.968 C1780.3301,447.9933 1795.121,442.5328 1807.3559,438.7024 " fill="none" id="_JsonRpcHttpServer-&gt;cors" style="stroke: #000000; stroke-width: 0.43915827996340345;"/><polygon fill="#000000" points="1811.7387,437.3656,1803.153,436.3093,1807.5379,438.6458,1805.2014,443.0307,1811.7387,437.3656" style="stroke: #000000; stroke-width: 0.43915827996340345;"/><!--MD5=[3db1f688a9aa1bed2435ee749bdee33a]
link _JsonRpcHttpServer to express--><path d="M346.9359,479.6056 C364.6595,488.2184 388.1782,498.4332 410.1738,504.1537 C499.0419,527.264 523.8754,525.2333 615.6999,525.2333 C615.6999,525.2333 615.6999,525.2333 1723.2571,525.2333 C1745.9704,525.2333 1747.3405,509.9682 1768.0512,500.6404 C1777.4317,496.4157 1787.8485,492.4089 1797.4924,488.965 " fill="none" id="_JsonRpcHttpServer-&gt;express" style="stroke: #000000; stroke-width: 0.43915827996340345;"/><polygon fill="#000000" points="1801.8576,487.4235,1793.2351,486.7297,1797.7144,488.8795,1795.5646,493.3588,1801.8576,487.4235" style="stroke: #000000; stroke-width: 0.43915827996340345;"/><!--MD5=[bcc210547358cbdef60168860a1aa5c1]
link _JsonRpcHttpServer to helmet--><path d="M335.3298,479.6012 C352.8075,494.169 381.4889,515.708 410.1738,526.9899 C496.1803,560.8164 523.2799,558.6093 615.6999,558.6093 C615.6999,558.6093 615.6999,558.6093 1723.2571,558.6093 C1750.5376,558.6093 1779.8822,548.4279 1801.1638,539.0273 " fill="none" id="_JsonRpcHttpServer-&gt;helmet" style="stroke: #000000; stroke-width: 0.43915827996340345;"/><polygon fill="#000000" points="1805.3094,537.1608,1796.6591,537.21,1801.3065,538.9672,1799.5493,543.6146,1805.3094,537.1608" style="stroke: #000000; stroke-width: 0.43915827996340345;"/><!--MD5=[62e377296f26d28eb3193f42f4f8d7b3]
link _JsonRpcHttpServer to json-rpc-handler--><path d="M329.2677,449.6805 C346.0339,426.8487 379.4723,382.1424 410.1738,346.0567 C422.9472,331.0437 438.2835,314.7342 449.6384,302.9577 " fill="none" id="_JsonRpcHttpServer-&gt;json-rpc-handler" style="stroke: #000000; stroke-width: 0.43915827996340345;"/><polygon fill="#000000" points="452.73,299.7615,444.7087,303.0002,449.6766,302.9179,449.7589,307.8857,452.73,299.7615" style="stroke: #000000; stroke-width: 0.43915827996340345;"/><!--MD5=[e3fea6c495e01aad8bba1ae8c73ff03b]
link _JsonRpcHttpServer to provider--><path d="M320.4327,449.6331 C326.4413,411.8093 347.7396,312.2011 410.1738,265.2516 C506.0992,193.1172 558.6901,243.9463 677.1821,224.849 C687.5418,223.1794 698.7913,221.2857 709.0509,219.5282 " fill="none" id="_JsonRpcHttpServer-&gt;provider" style="stroke: #000000; stroke-width: 0.43915827996340345;"/><polygon fill="#000000" points="713.3819,218.7843,704.996,216.6613,709.0538,219.5284,706.1867,223.5862,713.3819,218.7843" style="stroke: #000000; stroke-width: 0.43915827996340345;"/><!--MD5=[17e69f4d810fa52a725f52f500757b41]
link _JsonRpcHttpServer to types--><path d="M377.8939,462.6761 C437.9084,460.8755 533.2251,458.4812 615.6999,458.4812 C615.6999,458.4812 615.6999,458.4812 1162.452,458.4812 C1247.0953,458.4812 1274.5779,472.2234 1351.7292,437.4016 C1370.3056,429.0172 1386.976,412.2774 1397.4456,400.0846 " fill="none" id="_JsonRpcHttpServer-&gt;types" style="stroke: #000000; stroke-width: 0.43915827996340345;"/><polygon fill="#000000" points="1400.4845,396.4616,1392.7102,400.255,1397.6601,399.8243,1398.0907,404.7741,1400.4845,396.4616" style="stroke: #000000; stroke-width: 0.43915827996340345;"/><!--MD5=[152b0fe727a4569232cbe1220a5d652d]
link mempool to MempoolManager--><path d="M1173.2026,199.7705 C1195.6084,222.5575 1247.4379,275.2749 1274.3056,302.5976 " fill="none" id="mempool-&gt;MempoolManager" style="stroke: #000000; stroke-width: 0.43915827996340345;"/><polygon fill="#000000" points="1277.45,305.8,1274.4035,297.7037,1274.3673,302.6721,1269.399,302.6359,1277.45,305.8" style="stroke: #000000; stroke-width: 0.43915827996340345;"/><!--MD5=[da3a90a4ed98ed5d2407f9f6fcd03b3a]
link _mempool_types to _userop_types--><path d="M1558.0984,354.9286 C1571.809,360.1994 1587.2761,366.1509 1601.3116,371.549 " fill="none" id="_mempool_types-&gt;_userop_types" style="stroke: #000000; stroke-width: 0.43915827996340345;"/><polygon fill="#000000" points="1605.6242,373.2055,1599.513,367.0831,1601.5267,371.6252,1596.9846,373.6389,1605.6242,373.2055" style="stroke: #000000; stroke-width: 0.43915827996340345;"/><!--MD5=[6131df72ad37d0065c9dce81cbae5e38]
link MempoolManager to async-mutex--><path d="M1316.6668,306.8241 C1356.8059,286.3224 1441.0715,248.5636 1517.2919,248.5636 C1517.2919,248.5636 1517.2919,248.5636 1723.2571,248.5636 C1743.3091,248.5636 1765.4426,248.7155 1784.4582,248.893 " fill="none" id="MempoolManager-&gt;async-mutex" style="stroke: #000000; stroke-width: 0.43915827996340345;"/><polygon fill="#000000" points="1788.9727,248.936,1781.0983,245.3551,1784.5813,248.8984,1781.0381,252.3814,1788.9727,248.936" style="stroke: #000000; stroke-width: 0.43915827996340345;"/><!--MD5=[411a8b4be8c8a611b8a7d83872f7774f]
link MempoolManager to config--><path d="M1328.6207,308.4103 C1336.9032,304.5861 1345.1945,299.6412 1351.7292,293.3577 C1359.5462,285.8464 1388.4253,223.37 1401.8547,193.7566 " fill="none" id="MempoolManager-&gt;config" style="stroke: #000000; stroke-width: 0.43915827996340345;"/><polygon fill="#000000" points="1403.7255,189.6365,1397.2651,195.389,1401.9145,193.6372,1403.6663,198.2867,1403.7255,189.6365" style="stroke: #000000; stroke-width: 0.43915827996340345;"/><!--MD5=[bc06b360c80af3499bbef02914d54947]
link MempoolManager to types--><path d="M1322.7447,331.8008 C1332.1954,335.9649 1342.5596,340.8896 1351.7292,346.0567 C1366.0721,354.1408 1381.3548,364.8466 1392.5006,373.0773 " fill="none" id="MempoolManager-&gt;types" style="stroke: #000000; stroke-width: 0.43915827996340345;"/><polygon fill="#000000" points="1396.1105,375.7667,1391.8683,368.2279,1392.5881,373.144,1387.672,373.8638,1396.1105,375.7667" style="stroke: #000000; stroke-width: 0.43915827996340345;"/><!--MD5=[a436c0b7b08d1e4018789879325913bc]
link modules to bundle--><path d="M69.1413,316.5804 C74.4364,313.7909 79.6054,310.1995 83.4401,305.6542 C115.0507,268.1878 94.0185,244.1017 115.9378,200.2562 C127.1618,177.8055 145.0355,154.8613 157.0167,140.6483 " fill="none" id="modules-&gt;bundle" style="stroke: #000000; stroke-width: 0.43915827996340345;"/><polygon fill="#000000" points="159.9274,137.2291,152.1287,140.972,157.0812,140.5735,157.4798,145.526,159.9274,137.2291" style="stroke: #000000; stroke-width: 0.43915827996340345;"/><!--MD5=[d9abaf39ed5fd0880ed865d49c01f9c4]
link modules to cli--><path d="M44.8211,336.6403 C43.9767,378.1776 46.4947,520.8593 115.9378,604.2818 C125.5334,615.8093 141.7006,622.198 153.7704,625.5537 " fill="none" id="modules-&gt;cli" style="stroke: #000000; stroke-width: 0.43915827996340345;"/><polygon fill="#000000" points="158.3359,626.7347,151.562,621.3547,154.0841,625.6355,149.8033,628.1576,158.3359,626.7347" style="stroke: #000000; stroke-width: 0.43915827996340345;"/><!--MD5=[a8077638771d39e12ba73e56b0d60867]
link modules to config--><path d="M69.5945,316.937 C74.8759,314.1361 79.9251,310.4506 83.4401,305.6542 C136.2822,233.547 57.9384,175.1829 115.9378,107.1546 C176.9255,35.6219 222.6304,40.4026 316.6331,40.4026 C316.6331,40.4026 316.6331,40.4026 1162.452,40.4026 C1248.8081,40.4026 1281.7713,33.6896 1351.7292,84.3184 C1379.159,104.171 1395.9876,141.6329 1403.7343,162.7696 " fill="none" id="modules-&gt;config" style="stroke: #000000; stroke-width: 0.43915827996340345;"/><polygon fill="#000000" points="1405.2538,167.0198,1405.912,158.3945,1403.7807,162.8826,1399.2925,160.7514,1405.2538,167.0198" style="stroke: #000000; stroke-width: 0.43915827996340345;"/><!--MD5=[f1c78bc89b7ee7c2380ff11210c7d9cd]
link modules to json-rpc-handler--><path d="M74.7224,319.1899 C87.3704,316.879 102.3371,314.3715 115.9378,312.6807 C217.5669,300.0479 336.6043,292.6463 406.3944,289.0513 " fill="none" id="modules-&gt;json-rpc-handler" style="stroke: #000000; stroke-width: 0.43915827996340345;"/><polygon fill="#000000" points="410.9195,288.8195,402.8462,285.7128,406.5336,289.0428,403.2036,292.7303,410.9195,288.8195" style="stroke: #000000; stroke-width: 0.43915827996340345;"/><!--MD5=[5c498bf55a0f74d3f9e963ed672221d7]
link modules to json-rpc-server--><path d="M49.8177,336.2977 C59.235,358.3373 82.7019,407.4642 115.9378,437.4016 C121.6785,442.5723 128.6172,446.9656 135.5708,450.5957 " fill="none" id="modules-&gt;json-rpc-server" style="stroke: #000000; stroke-width: 0.43915827996340345;"/><polygon fill="#000000" points="139.8912,452.7581,134.3955,446.0778,135.9643,450.7922,131.2499,452.3609,139.8912,452.7581" style="stroke: #000000; stroke-width: 0.43915827996340345;"/><!--MD5=[e3ae023ea7b3dd05fae844f71785a296]
link modules to mempool--><path d="M79.5077,324.9771 C130.9913,324.9771 231.3495,324.9771 316.6331,324.9771 C316.6331,324.9771 316.6331,324.9771 865.1418,324.9771 C894.7147,324.9771 1073.6629,233.8878 1137.824,200.7278 " fill="none" id="modules-&gt;mempool" style="stroke: #000000; stroke-width: 0.43915827996340345;"/><polygon fill="#000000" points="1141.8818,198.6287,1133.2467,199.1439,1137.9821,200.6481,1136.4779,205.3835,1141.8818,198.6287" style="stroke: #000000; stroke-width: 0.43915827996340345;"/><!--MD5=[6b040c0665eb4efbf48fa2ce38617324]
link modules to provider--><path d="M65.3624,315.5853 C123.5932,288.5648 289.7944,212.5526 316.6331,212.5526 C316.6331,212.5526 316.6331,212.5526 467.7036,212.5526 C552.3654,212.5526 651.6222,212.9707 705.0844,213.2298 " fill="none" id="modules-&gt;provider" style="stroke: #000000; stroke-width: 0.43915827996340345;"/><polygon fill="#000000" points="709.483,213.2509,701.5964,209.697,705.0915,213.2283,701.5602,216.7234,709.483,213.2509" style="stroke: #000000; stroke-width: 0.43915827996340345;"/><!--MD5=[8245e6481198d8616131c05f2272f8fc]
link modules to types--><path d="M60.7016,335.1287 C101.0292,360.5841 213.4265,425.1052 316.6331,425.1052 C316.6331,425.1052 316.6331,425.1052 1162.452,425.1052 C1244.3286,425.1052 1339.5996,403.5601 1383.858,392.2843 " fill="none" id="modules-&gt;types" style="stroke: #000000; stroke-width: 0.43915827996340345;"/><polygon fill="#000000" points="1388.232,391.16,1379.702,389.722,1383.9783,392.2517,1381.4486,396.528,1388.232,391.16" style="stroke: #000000; stroke-width: 0.43915827996340345;"/><!--MD5=[850a617b503c82732144f66c438cdeb1]
link modules to utils--><path d="M47.5857,336.469 C53.9264,364.894 73.8126,439.4683 115.9378,484.8307 C184.7442,558.9252 215.5178,591.9854 316.6331,591.9854 C316.6331,591.9854 316.6331,591.9854 1292.882,591.9854 C1433.0613,591.9854 1582.3488,491.96 1629.488,457.6064 " fill="none" id="modules-&gt;utils" style="stroke: #000000; stroke-width: 0.43915827996340345;"/><polygon fill="#000000" points="1633.2209,454.8687,1624.769,456.7113,1629.6798,457.4662,1628.9249,462.377,1633.2209,454.8687" style="stroke: #000000; stroke-width: 0.43915827996340345;"/><!--MD5=[a1ba084a0d34be433847aede2fa6762f]
link provider to _ProviderService--><path d="M761.3195,203.2837 C780.3535,190.9267 812.8302,169.841 836.0379,154.7726 " fill="none" id="provider-&gt;_ProviderService" style="stroke: #000000; stroke-width: 0.43915827996340345;"/><polygon fill="#000000" points="839.9684,152.221,831.4254,153.5798,836.2853,154.6129,835.2523,159.4728,839.9684,152.221" style="stroke: #000000; stroke-width: 0.43915827996340345;"/><!--MD5=[f401f8c22746883fab70be331fe31e0f]
link _ProviderService to config--><path d="M905.5971,122.0588 C927.8009,114.6414 956.0212,106.488 981.9579,102.763 C1144.7539,79.3875 1203.9612,44.622 1351.7292,116.8161 C1372.7824,127.1029 1389.9184,148.7403 1399.7555,163.4011 " fill="none" id="_ProviderService-&gt;config" style="stroke: #000000; stroke-width: 0.43915827996340345;"/><polygon fill="#000000" points="1402.329,167.3351,1400.9431,158.7964,1399.9255,163.6596,1395.0623,162.642,1402.329,167.3351" style="stroke: #000000; stroke-width: 0.43915827996340345;"/><!--MD5=[89dacd82e09657240d33f0ec26ab2add]
link _RpcMethodHandler to provider--><path d="M653.4271,270.4829 C661.404,266.772 669.7058,262.5965 677.1821,258.2251 C692.6176,249.2004 694.8327,244.4733 709.6798,234.5105 C714.0283,231.5928 718.7695,228.5749 723.299,225.7669 " fill="none" id="_RpcMethodHandler-&gt;provider" style="stroke: #000000; stroke-width: 0.43915827996340345;"/><polygon fill="#000000" points="727.0415,223.4639,718.4681,224.6159,723.3016,225.766,722.1515,230.5996,727.0415,223.4639" style="stroke: #000000; stroke-width: 0.43915827996340345;"/><!--MD5=[24ee2ff8440f707a9f29fd06973aef44]
link _RpcMethodHandler to services--><path d="M677.3621,270.4767 C689.3178,267.4878 701.4324,264.4585 711.9915,261.8191 " fill="none" id="_RpcMethodHandler-&gt;services" style="stroke: #000000; stroke-width: 0.43915827996340345;"/><polygon fill="#000000" points="716.4165,260.7133,707.8954,259.2228,712.1561,261.7787,709.6001,266.0394,716.4165,260.7133" style="stroke: #000000; stroke-width: 0.43915827996340345;"/><!--MD5=[18d151c4dd5315a4afffa676fdea72fc]
link _RpcMethodHandler to types--><path d="M644.4191,300.4545 C699.6819,329.749 830.5476,391.7292 948.5819,391.7292 C948.5819,391.7292 948.5819,391.7292 1162.452,391.7292 C1241.6673,391.7292 1335.1641,388.5137 1380.8542,386.7333 " fill="none" id="_RpcMethodHandler-&gt;types" style="stroke: #000000; stroke-width: 0.43915827996340345;"/><polygon fill="#000000" points="1385.3863,386.555,1377.3472,383.3608,1380.9982,386.7307,1377.6283,390.3817,1385.3863,386.555" style="stroke: #000000; stroke-width: 0.43915827996340345;"/><!--MD5=[3efda72c72c6d45225a38e865b3407c9]
link services to _Debug--><path d="M767.5521,245.024 C786.0468,237.5706 812.7379,226.8147 833.2572,218.5454 " fill="none" id="services-&gt;_Debug" style="stroke: #000000; stroke-width: 0.43915827996340345;"/><polygon fill="#000000" points="837.5372,216.8203,828.8921,216.5175,833.4641,218.4624,831.5193,223.0344,837.5372,216.8203" style="stroke: #000000; stroke-width: 0.43915827996340345;"/><!--MD5=[c1e4bcedffdfe396d5c26830a1f2c5e5]
link services to _Eth--><path d="M769.999,261.8894 C782.609,265.9718 798.2958,270.9009 812.4428,274.9131 C886.441,295.9005 975.353,317.1223 1014.8684,326.3491 " fill="none" id="services-&gt;_Eth" style="stroke: #000000; stroke-width: 0.43915827996340345;"/><polygon fill="#000000" points="1019.2161,327.3618,1012.3085,322.1546,1014.9379,326.3703,1010.7222,328.9997,1019.2161,327.3618" style="stroke: #000000; stroke-width: 0.43915827996340345;"/><!--MD5=[095349c9155830f01a5255b89a78e4fd]
link services to _Web3--><path d="M780.0496,253.3205 C797.6625,253.0579 818.8387,252.7417 835.4363,252.4941 " fill="none" id="services-&gt;_Web3" style="stroke: #000000; stroke-width: 0.43915827996340345;"/><polygon fill="#000000" points="839.9895,252.4264,832.0333,249.031,835.5984,252.4917,832.1377,256.0567,839.9895,252.4264" style="stroke: #000000; stroke-width: 0.43915827996340345;"/><!--MD5=[d3bec16e08163581d4a127207096779f]
link types to _mempool_types--><path d="M1428.1954,378.0389 C1441.7303,372.2464 1460.9478,364.0244 1478.0662,356.6967 " fill="none" id="types-&gt;_mempool_types" style="stroke: #000000; stroke-width: 0.43915827996340345;"/><polygon fill="#000000" points="1482.37,354.8557,1473.7203,354.7423,1478.3339,356.5865,1476.4897,361.2001,1482.37,354.8557" style="stroke: #000000; stroke-width: 0.43915827996340345;"/><!--MD5=[23cb3051e7c89b43b2275ab5cee4bf0d]
link types to _rcp_types--><path d="M1430.1453,391.7028 C1443.7855,395.9688 1462.4322,401.8 1478.9797,406.9741 " fill="none" id="types-&gt;_rcp_types" style="stroke: #000000; stroke-width: 0.43915827996340345;"/><polygon fill="#000000" points="1483.5821,408.4137,1477.0942,402.692,1479.3925,407.097,1474.9875,409.3953,1483.5821,408.4137" style="stroke: #000000; stroke-width: 0.43915827996340345;"/><!--MD5=[1b8d0ede7c2659e2f19418ffb840fa46]
link types to _userop_types--><path d="M1433.8781,385.8436 C1471.6457,386.2687 1547.0141,387.1171 1596.6302,387.6758 " fill="none" id="types-&gt;_userop_types" style="stroke: #000000; stroke-width: 0.43915827996340345;"/><polygon fill="#000000" points="1601.0481,387.7249,1593.1839,384.1216,1596.6568,387.6748,1593.1036,391.1476,1601.0481,387.7249" style="stroke: #000000; stroke-width: 0.43915827996340345;"/><!--MD5=[8a6ee4a1c0d3e643f593847e6f16e891]
link _userop_types to ethers--><path d="M1690.0919,387.8022 C1724.3199,387.4773 1771.0639,387.0346 1801.3306,386.7474 " fill="none" id="_userop_types-&gt;ethers" style="stroke: #000000; stroke-width: 0.43915827996340345;"/><polygon fill="#000000" points="1806.0384,386.7026,1798.0939,383.2799,1801.6471,386.7528,1798.1742,390.306,1806.0384,386.7026" style="stroke: #000000; stroke-width: 0.43915827996340345;"/><!--MD5=[432982dfc8dd5c52f4f40ad4f91ca38e]
link utils to utils--><path d="M1634.0113,437.2602 C1627.6435,428.5394 1631.4906,418.957 1645.5261,418.957 C1657.3746,418.957 1661.9594,425.7789 1659.2805,433.1488 " fill="none" id="utils-&gt;utils" style="stroke: #000000; stroke-width: 0.43915827996340345;"/><polygon fill="#000000" points="1657.0408,437.2602,1663.8985,431.9875,1659.135,433.4002,1657.7223,428.6367,1657.0408,437.2602" style="stroke: #000000; stroke-width: 0.43915827996340345;"/><!--MD5=[738a48ed45e5ac1e9a0bfebcdbbf13d2]
link utils to ethers--><path d="M1661.8891,441.1951 C1692.6038,431.2947 1761.7449,409.0136 1801.6908,396.1392 " fill="none" id="utils-&gt;ethers" style="stroke: #000000; stroke-width: 0.43915827996340345;"/><polygon fill="#000000" points="1805.9418,394.7699,1797.3388,393.8652,1801.7642,396.124,1799.5054,400.5494,1805.9418,394.7699" style="stroke: #000000; stroke-width: 0.43915827996340345;"/><!--MD5=[931a2cb2b687dc4401184347968233e5]
link _Web3 to config--><path d="M888.5665,243.9147 C912.0966,235.77 949.4426,222.9975 981.9579,212.5526 C1044.5028,192.4585 1058.389,179.1845 1123.3669,169.5151 C1156.9625,164.5166 1165.8247,168.8019 1199.7804,169.5151 C1264.1171,170.8659 1339.5294,174.554 1379.8704,176.6971 " fill="none" id="_Web3-&gt;config" style="stroke: #000000; stroke-width: 0.43915827996340345;"/><polygon fill="#000000" points="1384.3674,176.9377,1376.6649,173.0006,1379.9823,176.6994,1376.2835,180.0167,1384.3674,176.9377" style="stroke: #000000; stroke-width: 0.43915827996340345;"/><script type="text/plantuml"><![CDATA[MD5=[2f8e22d240e28ee30d803f9a00af42a0]
@startuml

scale max 1920 width
left to right direction

skinparam nodesep 18
skinparam ranksep 37
skinparam monochrome true
skinparam shadowing false
skinparam defaultFontName Tahoma
skinparam defaultFontSize 12
skinparam roundCorner 6
skinparam dpi 150
skinparam arrowColor black
skinparam arrowThickness 0.5
skinparam packageTitleAlignment left

skinparam usecase {
  borderThickness 0.5
}

skinparam rectangle {
  borderThickness 0.5
}

skinparam component {
  borderThickness 1
}


(<b>execute</b>)
(bundle)
(BundleManager)
rectangle "cli" as _cli
(cli)
(config)
(Config)
rectangle "Debug" as _Debug
rectangle "Eth" as _Eth
(json-rpc-handler)
(json-rpc-server)
rectangle "JsonRpcHttpServer" as _JsonRpcHttpServer
(mempool)
rectangle "mempool.types" as _mempool_types
(MempoolManager)
(modules)
(provider)
rectangle "ProviderService" as _ProviderService
rectangle "rcp.types" as _rcp_types
rectangle "RpcMethodHandler" as _RpcMethodHandler
(services)
(types)
rectangle "userop.types" as _userop_types
(utils)
(utils)
rectangle "Web3" as _Web3

package "Dependencies" {
  [async-mutex]
  [commander]
  [cors]
  [dotenv]
  [ethers]
  [express]
  [helmet]
}

(bundle) --> (BundleManager)
(BundleManager) ----> [async-mutex]
(BundleManager) --> (config)
(BundleManager) --> (mempool)
(cli) --> _cli
(config) --> (Config)
(Config) ----> [commander]
(Config) ----> [dotenv]
(Config) ----> [ethers]
(Config) --> (utils)
_Debug ---> (BundleManager)
_Debug ---> (MempoolManager)
_Eth ---> (config)
_Eth ---> (MempoolManager)
_Eth ---> (types)
(<b>execute</b>) -[thickness=1]> (modules)
(json-rpc-handler) --> _RpcMethodHandler
(json-rpc-server) --> _JsonRpcHttpServer
_JsonRpcHttpServer --> (config)
_JsonRpcHttpServer ----> [cors]
_JsonRpcHttpServer ----> [express]
_JsonRpcHttpServer ----> [helmet]
_JsonRpcHttpServer --> (json-rpc-handler)
_JsonRpcHttpServer --> (provider)
_JsonRpcHttpServer --> (types)
(mempool) --> (MempoolManager)
_mempool_types --> _userop_types
(MempoolManager) ----> [async-mutex]
(MempoolManager) --> (config)
(MempoolManager) --> (types)
(modules) --> (bundle)
(modules) --> (cli)
(modules) --> (config)
(modules) --> (json-rpc-handler)
(modules) --> (json-rpc-server)
(modules) --> (mempool)
(modules) --> (provider)
(modules) --> (types)
(modules) --> (utils)
(provider) --> _ProviderService
_ProviderService --> (config)
_RpcMethodHandler --> (provider)
_RpcMethodHandler --> (services)
_RpcMethodHandler --> (types)
(services) --> _Debug
(services) --> _Eth
(services) --> _Web3
(types) --> _mempool_types
(types) --> _rcp_types
(types) --> _userop_types
_userop_types ----> [ethers]
(utils) --> (utils)
(utils) ----> [ethers]
_Web3 ---> (config)

@enduml


' View and edit on https://arkit.pro
]]></script></g></svg>