<?xml version="1.0" encoding="UTF-8" standalone="no"?><svg xmlns="http://www.w3.org/2000/svg" xmlns:xlink="http://www.w3.org/1999/xlink" contentScriptType="application/ecmascript" contentStyleType="text/css" height="605px" preserveAspectRatio="none" style="width:653px;height:605px;" version="1.1" viewBox="0 0 653 605" width="653px" zoomAndPan="magnify"><defs/><g><!--MD5=[a6f11bb19cee6b13000111f5ad685e8b]
cluster Dependencies--><path d="M25,511 L127,511 A4.5,4.5 0 0 1 130,514 L137,530.9688 L638,530.9688 A3,3 0 0 1 641,533.9688 L641,590 A3,3 0 0 1 638,593 L25,593 A3,3 0 0 1 22,590 L22,514 A3,3 0 0 1 25,511 " fill="#FFFFFF" style="stroke: #000000; stroke-width: 1.5;"/><line style="stroke: #000000; stroke-width: 1.5;" x1="22" x2="137" y1="530.9688" y2="530.9688"/><text fill="#000000" font-family="Tahoma, sans-serif" font-size="12" font-weight="bold" lengthAdjust="spacingAndGlyphs" textLength="102" x="26" y="524.1387">Dependencies</text><!--MD5=[a3eeb38a3c88bc709a72fd619cafec5a]
entity async-mutex--><rect fill="#F8F8F8" height="33.9688" rx="3" ry="3" style="stroke: #383838; stroke-width: 1.0;" width="99" x="300.5" y="543"/><rect fill="#F8F8F8" height="5" style="stroke: #383838; stroke-width: 1.0;" width="10" x="295.5" y="548"/><rect fill="#F8F8F8" height="5" style="stroke: #383838; stroke-width: 1.0;" width="10" x="295.5" y="566.9688"/><text fill="#000000" font-family="Tahoma, sans-serif" font-size="12" lengthAdjust="spacingAndGlyphs" textLength="79" x="310.5" y="564.1387">async-mutex</text><!--MD5=[247c11c248b6a71ee5eacb9cd05e1b38]
entity commander--><rect fill="#F8F8F8" height="33.9688" rx="3" ry="3" style="stroke: #383838; stroke-width: 1.0;" width="93" x="38.5" y="543"/><rect fill="#F8F8F8" height="5" style="stroke: #383838; stroke-width: 1.0;" width="10" x="33.5" y="548"/><rect fill="#F8F8F8" height="5" style="stroke: #383838; stroke-width: 1.0;" width="10" x="33.5" y="566.9688"/><text fill="#000000" font-family="Tahoma, sans-serif" font-size="12" lengthAdjust="spacingAndGlyphs" textLength="73" x="48.5" y="564.1387">commander</text><!--MD5=[564a394d57ce3e0a92ac6699042b9ef1]
entity cors--><rect fill="#F8F8F8" height="33.9688" rx="3" ry="3" style="stroke: #383838; stroke-width: 1.0;" width="47" x="577.5" y="543"/><rect fill="#F8F8F8" height="5" style="stroke: #383838; stroke-width: 1.0;" width="10" x="572.5" y="548"/><rect fill="#F8F8F8" height="5" style="stroke: #383838; stroke-width: 1.0;" width="10" x="572.5" y="566.9688"/><text fill="#000000" font-family="Tahoma, sans-serif" font-size="12" lengthAdjust="spacingAndGlyphs" textLength="27" x="587.5" y="564.1387">cors</text><!--MD5=[b84d8dbe3cf51322a9824c71d57d534f]
entity dotenv--><rect fill="#F8F8F8" height="33.9688" rx="3" ry="3" style="stroke: #383838; stroke-width: 1.0;" width="63" x="146.5" y="543"/><rect fill="#F8F8F8" height="5" style="stroke: #383838; stroke-width: 1.0;" width="10" x="141.5" y="548"/><rect fill="#F8F8F8" height="5" style="stroke: #383838; stroke-width: 1.0;" width="10" x="141.5" y="566.9688"/><text fill="#000000" font-family="Tahoma, sans-serif" font-size="12" lengthAdjust="spacingAndGlyphs" textLength="43" x="156.5" y="564.1387">dotenv</text><!--MD5=[78147715a61726ca0d0a20352beeced2]
entity ethers--><rect fill="#F8F8F8" height="33.9688" rx="3" ry="3" style="stroke: #383838; stroke-width: 1.0;" width="60" x="225" y="543"/><rect fill="#F8F8F8" height="5" style="stroke: #383838; stroke-width: 1.0;" width="10" x="220" y="548"/><rect fill="#F8F8F8" height="5" style="stroke: #383838; stroke-width: 1.0;" width="10" x="220" y="566.9688"/><text fill="#000000" font-family="Tahoma, sans-serif" font-size="12" lengthAdjust="spacingAndGlyphs" textLength="40" x="235" y="564.1387">ethers</text><!--MD5=[6d151e53a42aadf92577082572a20d90]
entity express--><rect fill="#F8F8F8" height="33.9688" rx="3" ry="3" style="stroke: #383838; stroke-width: 1.0;" width="70" x="415" y="543"/><rect fill="#F8F8F8" height="5" style="stroke: #383838; stroke-width: 1.0;" width="10" x="410" y="548"/><rect fill="#F8F8F8" height="5" style="stroke: #383838; stroke-width: 1.0;" width="10" x="410" y="566.9688"/><text fill="#000000" font-family="Tahoma, sans-serif" font-size="12" lengthAdjust="spacingAndGlyphs" textLength="50" x="425" y="564.1387">express</text><!--MD5=[380c1750e2aa5aeed8d38b1a8d057635]
entity helmet--><rect fill="#F8F8F8" height="33.9688" rx="3" ry="3" style="stroke: #383838; stroke-width: 1.0;" width="62" x="500" y="543"/><rect fill="#F8F8F8" height="5" style="stroke: #383838; stroke-width: 1.0;" width="10" x="495" y="548"/><rect fill="#F8F8F8" height="5" style="stroke: #383838; stroke-width: 1.0;" width="10" x="495" y="566.9688"/><text fill="#000000" font-family="Tahoma, sans-serif" font-size="12" lengthAdjust="spacingAndGlyphs" textLength="42" x="510" y="564.1387">helmet</text><ellipse cx="107.2193" cy="20.8774" fill="#F8F8F8" rx="44.7193" ry="12.8774" style="stroke: #383838; stroke-width: 0.5;"/><text fill="#000000" font-family="Tahoma, sans-serif" font-size="12" font-weight="bold" lengthAdjust="spacingAndGlyphs" textLength="59" x="77.7193" y="24.3618">execute</text><ellipse cx="182.0772" cy="392.8774" fill="#F8F8F8" rx="30.5772" ry="12.8774" style="stroke: #383838; stroke-width: 0.5;"/><text fill="#000000" font-family="Tahoma, sans-serif" font-size="12" lengthAdjust="spacingAndGlyphs" textLength="39" x="162.5772" y="396.3618">Config</text><!--MD5=[4d79e7d2cf9a57eda717a385fa9eefa7]
entity _Debug--><rect fill="#F8F8F8" height="33.9688" rx="3" ry="3" style="stroke: #000000; stroke-width: 0.5;" width="60" x="338" y="189"/><text fill="#000000" font-family="Tahoma, sans-serif" font-size="12" lengthAdjust="spacingAndGlyphs" textLength="40" x="348" y="210.1387">Debug</text><!--MD5=[9fbdc8c1c29a3a6defee5673dec63f06]
entity _Eth--><rect fill="#F8F8F8" height="33.9688" rx="3" ry="3" style="stroke: #000000; stroke-width: 0.5;" width="39" x="401.5" y="252"/><text fill="#000000" font-family="Tahoma, sans-serif" font-size="12" lengthAdjust="spacingAndGlyphs" textLength="19" x="411.5" y="273.1387">Eth</text><!--MD5=[fb40ed61b41f2b3652817daf9440b90e]
entity _ExecutionManager--><rect fill="#F8F8F8" height="33.9688" rx="3" ry="3" style="stroke: #000000; stroke-width: 0.5;" width="133" x="221.5" y="252"/><text fill="#000000" font-family="Tahoma, sans-serif" font-size="12" lengthAdjust="spacingAndGlyphs" textLength="113" x="231.5" y="273.1387">ExecutionManager</text><!--MD5=[bfbdfac5fa9726ec406701361bc51456]
entity _JsonRpcHttpServer--><rect fill="#F8F8F8" height="33.9688" rx="3" ry="3" style="stroke: #000000; stroke-width: 0.5;" width="137" x="302.5" y="63"/><text fill="#000000" font-family="Tahoma, sans-serif" font-size="12" lengthAdjust="spacingAndGlyphs" textLength="117" x="312.5" y="84.1387">JsonRpcHttpServer</text><ellipse cx="320.1501" cy="331.03" fill="#F8F8F8" rx="68.1501" ry="16.03" style="stroke: #383838; stroke-width: 0.5;"/><text fill="#000000" font-family="Tahoma, sans-serif" font-size="12" lengthAdjust="spacingAndGlyphs" textLength="110" x="265.1501" y="334.5144">MempoolManager</text><!--MD5=[a4bde2d833f6366106426cb2feefc97b]
entity _ProviderService--><rect fill="#F8F8F8" height="33.9688" rx="3" ry="3" style="stroke: #000000; stroke-width: 0.5;" width="118" x="130" y="126"/><text fill="#000000" font-family="Tahoma, sans-serif" font-size="12" lengthAdjust="spacingAndGlyphs" textLength="98" x="140" y="147.1387">ProviderService</text><!--MD5=[4fceac381ed5f1e36664ded7849570b4]
entity _RpcMethodHandler_ts--><rect fill="#F8F8F8" height="33.9688" rx="3" ry="3" style="stroke: #000000; stroke-width: 0.5;" width="153" x="294.5" y="126"/><text fill="#000000" font-family="Tahoma, sans-serif" font-size="12" lengthAdjust="spacingAndGlyphs" textLength="133" x="304.5" y="147.1387">RpcMethodHandler.ts</text><!--MD5=[3095bf365a94611fa6d04f4eb27c6bb9]
entity _Types--><rect fill="#F8F8F8" height="33.9688" rx="3" ry="3" style="stroke: #000000; stroke-width: 0.5;" width="57" x="343.5" y="376"/><text fill="#000000" font-family="Tahoma, sans-serif" font-size="12" lengthAdjust="spacingAndGlyphs" textLength="37" x="353.5" y="397.1387">Types</text><ellipse cx="254.1777" cy="451.8774" fill="#F8F8F8" rx="20.6777" ry="12.8774" style="stroke: #383838; stroke-width: 0.5;"/><text fill="#000000" font-family="Tahoma, sans-serif" font-size="12" lengthAdjust="spacingAndGlyphs" textLength="25" x="241.6777" y="455.3618">utils</text><!--MD5=[0b1562c0d113df0dcf54fa78a6f95df2]
link Config to commander--><path d="M175.024,405.866 C158.644,433.729 117.563,503.609 97.0485,538.5051 " fill="none" id="Config-&gt;commander" style="stroke: #000000; stroke-width: 0.5;"/><polygon fill="#000000" points="94.4138,542.9869,102.4232,537.2554,96.9478,538.6766,95.5266,533.2011,94.4138,542.9869" style="stroke: #000000; stroke-width: 0.5;"/><!--MD5=[73a2bb3f4035ad9653fbd125a3b81365]
link Config to dotenv--><path d="M181.706,406.133 C181.035,433.825 179.382,502.005 178.529,537.1984 " fill="none" id="Config-&gt;dotenv" style="stroke: #000000; stroke-width: 0.5;"/><polygon fill="#000000" points="178.399,542.5522,182.6162,533.6519,178.5203,537.5537,174.6186,533.4578,178.399,542.5522" style="stroke: #000000; stroke-width: 0.5;"/><!--MD5=[e8a9ee2f01904c80dfc59b180358b3f2]
link Config to ethers--><path d="M187.25,405.866 C199.527,433.615 230.242,503.039 245.743,538.0761 " fill="none" id="Config-&gt;ethers" style="stroke: #000000; stroke-width: 0.5;"/><polygon fill="#000000" points="247.915,542.9869,247.9319,533.1381,245.8921,538.4144,240.6158,536.3746,247.915,542.9869" style="stroke: #000000; stroke-width: 0.5;"/><!--MD5=[b3efc3e47244008bde1eb71834f5bed7]
link Config to utils--><path d="M195.543,404.721 C207.547,414.225 225.098,428.119 237.834,438.202 " fill="none" id="Config-&gt;utils" style="stroke: #000000; stroke-width: 0.5;"/><polygon fill="#000000" points="241.954,441.463,237.3817,432.7398,238.0342,438.3589,232.4151,439.0114,241.954,441.463" style="stroke: #000000; stroke-width: 0.5;"/><!--MD5=[217340885b270f9af91abbde460b3fc2]
link _Debug to _ExecutionManager--><path d="M346.981,223.027 C336.682,230.88 324.197,240.399 313.371,248.654 " fill="none" id="_Debug-&gt;_ExecutionManager" style="stroke: #000000; stroke-width: 0.5;"/><polygon fill="#000000" points="309.156,251.868,318.7377,249.5896,313.1314,248.8354,313.8856,243.2291,309.156,251.868" style="stroke: #000000; stroke-width: 0.5;"/><!--MD5=[1b9240df91d9be239761a71159044587]
link _Debug to MempoolManager--><path d="M369.856,223.205 C371.06,239.739 371.009,265.77 362,286 C357.723,295.605 350.42,304.394 343.091,311.549 " fill="none" id="_Debug-&gt;MempoolManager" style="stroke: #000000; stroke-width: 0.5;"/><polygon fill="#000000" points="339.036,315.351,348.3372,312.1126,342.6833,311.9309,342.865,306.2769,339.036,315.351" style="stroke: #000000; stroke-width: 0.5;"/><!--MD5=[07187728bdf6a45bdc8666d2d84690de]
link _Eth to MempoolManager--><path d="M401.046,281.854 C386.017,290.782 365.206,303.145 348.436,313.107 " fill="none" id="_Eth-&gt;MempoolManager" style="stroke: #000000; stroke-width: 0.5;"/><polygon fill="#000000" points="343.822,315.849,353.6027,314.6926,348.121,313.2959,349.5177,307.8142,343.822,315.849" style="stroke: #000000; stroke-width: 0.5;"/><!--MD5=[7e63591ccd2719c9340ae1618341bb5c]
link _Eth to _Types--><path d="M416.295,286.182 C411.536,301.942 403.662,326.459 395,347 C391.612,355.034 387.389,363.611 383.489,371.1 " fill="none" id="_Eth-&gt;_Types" style="stroke: #000000; stroke-width: 0.5;"/><polygon fill="#000000" points="381.113,375.607,388.8483,369.5107,383.4446,371.1839,381.7713,365.7802,381.113,375.607" style="stroke: #000000; stroke-width: 0.5;"/><!--MD5=[8bb49f446ba192f725de995baace06ab]
link <b>execute</b> to Config--><path d="M101.402,33.965 C91.987,55.217 74,101.163 74,142 C74,142 74,142 74,270 C74,320.957 127.477,360.609 159.17,379.634 " fill="none" id="&lt;b&gt;execute&lt;/b&gt;-&gt;Config" style="stroke: #000000; stroke-width: 1.0;"/><polygon fill="#000000" points="163.679,382.291,157.9545,374.2766,159.3709,379.7533,153.8942,381.1696,163.679,382.291" style="stroke: #000000; stroke-width: 1.0;"/><!--MD5=[cfa98425fbd864e957dab31f2b4662c3]
link <b>execute</b> to _ExecutionManager--><path d="M105.0614,34.166 C101.658,59.636 97.1391,119.554 122,160 C148.73,203.487 200.287,232.858 238.885,249.86 " fill="none" id="&lt;b&gt;execute&lt;/b&gt;-&gt;_ExecutionManager" style="stroke: #000000; stroke-width: 1.0;"/><polygon fill="#000000" points="243.525,251.872,236.8585,244.6223,238.9375,249.8833,233.6766,251.9623,243.525,251.872" style="stroke: #000000; stroke-width: 1.0;"/><!--MD5=[99211a0848547cdfe74c601bba89b6b2]
link <b>execute</b> to _JsonRpcHttpServer--><path d="M141.243,29.393 C180.641,37.9 246.472,52.113 297.593,63.151 " fill="none" id="&lt;b&gt;execute&lt;/b&gt;-&gt;_JsonRpcHttpServer" style="stroke: #000000; stroke-width: 1.0;"/><polygon fill="#000000" points="302.493,64.209,294.5405,58.3988,297.6057,63.1533,292.8513,66.2185,302.493,64.209" style="stroke: #000000; stroke-width: 1.0;"/><!--MD5=[5b9e0e9dff0766e3d998027f40912159]
link _ExecutionManager to async-mutex--><path d="M344.234,286.085 C361.816,293 380.41,302.449 395,315 C425.394,341.148 442,351.906 442,392 C442,392 442,392 442,453 C442,463.961 396.556,511.8739 369.546,539.3836 " fill="none" id="_ExecutionManager-&gt;async-mutex" style="stroke: #000000; stroke-width: 0.5;"/><polygon fill="#000000" points="366.025,542.9604,375.1895,539.3531,369.5328,539.3973,369.4886,533.7406,366.025,542.9604" style="stroke: #000000; stroke-width: 0.5;"/><!--MD5=[bbef21c6e889d6fbc37a4d6b7289672d]
link _ExecutionManager to Config--><path d="M271.311,286.305 C262.917,294.694 252.705,305.195 244,315 C225.773,335.531 206.117,360.468 193.935,376.289 " fill="none" id="_ExecutionManager-&gt;Config" style="stroke: #000000; stroke-width: 0.5;"/><polygon fill="#000000" points="190.704,380.498,199.3564,375.7931,193.7479,376.5313,193.0097,370.9228,190.704,380.498" style="stroke: #000000; stroke-width: 0.5;"/><!--MD5=[915c0830283d16b6a03fd83e83e09ccf]
link _ExecutionManager to MempoolManager--><path d="M296.575,286.079 C300.5,293.438 305.191,302.233 309.34,310.013 " fill="none" id="_ExecutionManager-&gt;MempoolManager" style="stroke: #000000; stroke-width: 0.5;"/><polygon fill="#000000" points="311.842,314.704,311.136,304.8805,309.489,310.2923,304.0772,308.6453,311.842,314.704" style="stroke: #000000; stroke-width: 0.5;"/><!--MD5=[d4da687fa54533acb9992d8533ebc11d]
link _JsonRpcHttpServer to Config--><path d="M332.93,97.178 C317.741,104.669 300.657,114.479 287,126 C260.501,148.355 208.539,220.084 195,252 C177.484,293.292 178.415,347.435 180.336,374.708 " fill="none" id="_JsonRpcHttpServer-&gt;Config" style="stroke: #000000; stroke-width: 0.5;"/><polygon fill="#000000" points="180.729,379.792,184.0255,370.5112,180.3448,374.8068,176.0492,371.126,180.729,379.792" style="stroke: #000000; stroke-width: 0.5;"/><!--MD5=[874e5c9d1ef39f877d69e6c7af67d374]
link _JsonRpcHttpServer to cors--><path d="M439.763,94.286 C497.283,109.86 570,142.006 570,205 C570,205 570,205 570,453 C570,483.531 581.994,517.0918 591.061,538.101 " fill="none" id="_JsonRpcHttpServer-&gt;cors" style="stroke: #000000; stroke-width: 0.5;"/><polygon fill="#000000" points="593.177,542.9038,593.2069,533.055,591.1602,538.3286,585.8866,536.2819,593.177,542.9038" style="stroke: #000000; stroke-width: 0.5;"/><!--MD5=[3db1f688a9aa1bed2435ee749bdee33a]
link _JsonRpcHttpServer to express--><path d="M417.574,97.179 C431.445,104.083 445.469,113.502 455,126 C476.836,154.635 473,168.989 473,205 C473,205 473,205 473,453 C473,482.985 464.101,516.6794 457.374,537.8671 " fill="none" id="_JsonRpcHttpServer-&gt;express" style="stroke: #000000; stroke-width: 0.5;"/><polygon fill="#000000" points="455.804,542.7134,462.3834,535.3846,457.3452,537.9569,454.773,532.9187,455.804,542.7134" style="stroke: #000000; stroke-width: 0.5;"/><!--MD5=[bcc210547358cbdef60168860a1aa5c1]
link _JsonRpcHttpServer to helmet--><path d="M428.1,97.109 C444.744,103.934 461.943,113.324 475,126 C502.819,153.006 512,166.229 512,205 C512,205 512,205 512,453 C512,482.944 519.437,516.9095 525.005,538.1445 " fill="none" id="_JsonRpcHttpServer-&gt;helmet" style="stroke: #000000; stroke-width: 0.5;"/><polygon fill="#000000" points="526.303,542.9976,527.8409,533.2696,525.0107,538.1675,520.1127,535.3373,526.303,542.9976" style="stroke: #000000; stroke-width: 0.5;"/><!--MD5=[c5ed34d1ddf2bac83beff6067a9d6a5f]
link _JsonRpcHttpServer to _ProviderService--><path d="M323.182,97.027 C298.097,105.434 267.314,115.752 241.562,124.383 " fill="none" id="_JsonRpcHttpServer-&gt;_ProviderService" style="stroke: #000000; stroke-width: 0.5;"/><polygon fill="#000000" points="236.815,125.974,246.6198,126.9041,241.5554,124.3839,244.0756,119.3194,236.815,125.974" style="stroke: #000000; stroke-width: 0.5;"/><!--MD5=[7da9a3a0465859ecb04f57920cb187e1]
link _JsonRpcHttpServer to _RpcMethodHandler_ts--><path d="M371,97.027 C371,104.255 371,112.894 371,120.659 " fill="none" id="_JsonRpcHttpServer-&gt;_RpcMethodHandler_ts" style="stroke: #000000; stroke-width: 0.5;"/><polygon fill="#000000" points="371,125.868,375,116.868,371,120.868,367,116.868,371,125.868" style="stroke: #000000; stroke-width: 0.5;"/><!--MD5=[6131df72ad37d0065c9dce81cbae5e38]
link MempoolManager to async-mutex--><path d="M322.015,347.247 C327.239,386.778 341.231,492.646 347.219,537.9542 " fill="none" id="MempoolManager-&gt;async-mutex" style="stroke: #000000; stroke-width: 0.5;"/><polygon fill="#000000" points="347.874,542.9155,350.6603,533.469,347.2189,537.9586,342.7293,534.5172,347.874,542.9155" style="stroke: #000000; stroke-width: 0.5;"/><!--MD5=[16f9fb50a507d1f42a53dd4470945abc]
link MempoolManager to Config--><path d="M289.373,345.316 C264.613,356.081 230.186,371.05 207.051,381.108 " fill="none" id="MempoolManager-&gt;Config" style="stroke: #000000; stroke-width: 0.5;"/><polygon fill="#000000" points="202.293,383.177,212.1415,383.2558,206.8782,381.183,208.9511,375.9196,202.293,383.177" style="stroke: #000000; stroke-width: 0.5;"/><!--MD5=[7acb9d97f6e278baed5c3221838e57aa]
link MempoolManager to _Types--><path d="M332.854,346.831 C339.367,354.347 347.374,363.585 354.446,371.745 " fill="none" id="MempoolManager-&gt;_Types" style="stroke: #000000; stroke-width: 0.5;"/><polygon fill="#000000" points="357.832,375.652,354.9611,366.2309,354.5576,371.8733,348.9152,371.4699,357.832,375.652" style="stroke: #000000; stroke-width: 0.5;"/><!--MD5=[faf7230adc66076686421f2234120ac6]
link _ProviderService to Config--><path d="M173.324,160.072 C166.6,168.079 159.496,178.32 156,189 C134.152,255.737 137.814,279.173 156,347 C158.8,357.442 164.674,367.966 170.131,376.209 " fill="none" id="_ProviderService-&gt;Config" style="stroke: #000000; stroke-width: 0.5;"/><polygon fill="#000000" points="173.098,380.539,171.3087,370.854,170.271,376.4149,164.7101,375.3773,173.098,380.539" style="stroke: #000000; stroke-width: 0.5;"/><!--MD5=[63879e087f6b6ac2df925e239e7af6ea]
link _RpcMethodHandler_ts to Config--><path d="M333.187,160.022 C296.956,177.359 243.548,208.481 214,252 C188.003,290.289 182.882,346.659 182.031,374.758 " fill="none" id="_RpcMethodHandler_ts-&gt;Config" style="stroke: #000000; stroke-width: 0.5;"/><polygon fill="#000000" points="181.913,379.987,186.1177,371.0808,182.0273,374.9883,178.1198,370.8979,181.913,379.987" style="stroke: #000000; stroke-width: 0.5;"/><!--MD5=[7ec4369bb04ce9fac49815fdd51e1657]
link _RpcMethodHandler_ts to _Debug--><path d="M370.212,160.027 C369.856,167.255 369.431,175.894 369.05,183.659 " fill="none" id="_RpcMethodHandler_ts-&gt;_Debug" style="stroke: #000000; stroke-width: 0.5;"/><polygon fill="#000000" points="368.793,188.868,373.2304,180.0754,369.0387,183.874,365.2401,179.6823,368.793,188.868" style="stroke: #000000; stroke-width: 0.5;"/><!--MD5=[1e402d059cdb9c320594713312255311]
link _RpcMethodHandler_ts to _Eth--><path d="M386.196,160.364 C392.914,168.434 400.333,178.645 405,189 C413.317,207.454 417.344,230.275 419.273,246.637 " fill="none" id="_RpcMethodHandler_ts-&gt;_Eth" style="stroke: #000000; stroke-width: 0.5;"/><polygon fill="#000000" points="419.85,251.923,422.8494,242.542,419.3072,246.9525,414.8967,243.4104,419.85,251.923" style="stroke: #000000; stroke-width: 0.5;"/><!--MD5=[8bdb3dbc7cc0e4e4e79aa45e0fae3f3d]
link _Types to ethers--><path d="M360.064,410.138 C344.456,431.317 316.352,469.707 293,503 C284.853,514.6149 275.937,527.7317 268.791,538.3495 " fill="none" id="_Types-&gt;ethers" style="stroke: #000000; stroke-width: 0.5;"/><polygon fill="#000000" points="265.843,542.7354,274.1829,537.4965,268.6318,538.5854,267.5429,533.0344,265.843,542.7354" style="stroke: #000000; stroke-width: 0.5;"/><!--MD5=[738a48ed45e5ac1e9a0bfebcdbbf13d2]
link utils to ethers--><path d="M254.115,465.16 C254.282,482.881 254.595,516.0585 254.8,537.8386 " fill="none" id="utils-&gt;ethers" style="stroke: #000000; stroke-width: 0.5;"/><polygon fill="#000000" points="254.848,542.8432,258.7627,533.8058,254.8007,537.8434,250.7631,533.8814,254.848,542.8432" style="stroke: #000000; stroke-width: 0.5;"/><script type="text/plantuml"><![CDATA[MD5=[73e1d81f5bf4fc3be10585b40fa63a64]
@startuml

scale max 1920 width
top to bottom direction

skinparam nodesep 15
skinparam ranksep 29
skinparam monochrome true
skinparam shadowing false
skinparam defaultFontName Tahoma
skinparam defaultFontSize 12
skinparam roundCorner 6
skinparam dpi 150
skinparam arrowColor black
skinparam arrowThickness 0.5
skinparam packageTitleAlignment left

skinparam usecase {
  borderThickness 0.5
}

skinparam rectangle {
  borderThickness 0.5
}

skinparam component {
  borderThickness 1
}


(<b>execute</b>)
(Config)
rectangle "Debug" as _Debug
rectangle "Eth" as _Eth
rectangle "ExecutionManager" as _ExecutionManager
rectangle "JsonRpcHttpServer" as _JsonRpcHttpServer
(MempoolManager)
rectangle "ProviderService" as _ProviderService
rectangle "RpcMethodHandler.ts" as _RpcMethodHandler_ts
rectangle "Types" as _Types
(utils)

package "Dependencies" {
  [async-mutex]
  [commander]
  [cors]
  [dotenv]
  [ethers]
  [express]
  [helmet]
}

(Config) ----> [commander]
(Config) ----> [dotenv]
(Config) ----> [ethers]
(Config) --> (utils)
_Debug --> _ExecutionManager
_Debug --> (MempoolManager)
_Eth --> (MempoolManager)
_Eth --> _Types
(<b>execute</b>) -[thickness=1]> (Config)
(<b>execute</b>) -[thickness=1]> _ExecutionManager
(<b>execute</b>) --[thickness=1]> _JsonRpcHttpServer
_ExecutionManager ----> [async-mutex]
_ExecutionManager --> (Config)
_ExecutionManager --> (MempoolManager)
_JsonRpcHttpServer --> (Config)
_JsonRpcHttpServer ----> [cors]
_JsonRpcHttpServer ----> [express]
_JsonRpcHttpServer ----> [helmet]
_JsonRpcHttpServer --> _ProviderService
_JsonRpcHttpServer --> _RpcMethodHandler_ts
(MempoolManager) ----> [async-mutex]
(MempoolManager) --> (Config)
(MempoolManager) --> _Types
_ProviderService --> (Config)
_RpcMethodHandler_ts --> (Config)
_RpcMethodHandler_ts --> _Debug
_RpcMethodHandler_ts --> _Eth
_Types ----> [ethers]
(utils) ---> [ethers]

@enduml


' View and edit on https://arkit.pro
]]></script></g></svg>