<?xml version="1.0" encoding="UTF-8" standalone="no"?><svg xmlns="http://www.w3.org/2000/svg" xmlns:xlink="http://www.w3.org/1999/xlink" contentScriptType="application/ecmascript" contentStyleType="text/css" height="613px" preserveAspectRatio="none" style="width:680px;height:613px;" version="1.1" viewBox="0 0 680 613" width="680px" zoomAndPan="magnify"><defs/><g><!--MD5=[a6f11bb19cee6b13000111f5ad685e8b]
cluster Dependencies--><path d="M25,519 L127,519 A4.5,4.5 0 0 1 130,522 L137,538.9688 L638,538.9688 A3,3 0 0 1 641,541.9688 L641,598 A3,3 0 0 1 638,601 L25,601 A3,3 0 0 1 22,598 L22,522 A3,3 0 0 1 25,519 " fill="#FFFFFF" style="stroke: #000000; stroke-width: 1.5;"/><line style="stroke: #000000; stroke-width: 1.5;" x1="22" x2="137" y1="538.9688" y2="538.9688"/><text fill="#000000" font-family="Tahoma, sans-serif" font-size="12" font-weight="bold" lengthAdjust="spacingAndGlyphs" textLength="102" x="26" y="532.1387">Dependencies</text><!--MD5=[a3eeb38a3c88bc709a72fd619cafec5a]
entity async-mutex--><rect fill="#F8F8F8" height="33.9688" rx="3" ry="3" style="stroke: #383838; stroke-width: 1.0;" width="99" x="525.5" y="551"/><rect fill="#F8F8F8" height="5" style="stroke: #383838; stroke-width: 1.0;" width="10" x="520.5" y="556"/><rect fill="#F8F8F8" height="5" style="stroke: #383838; stroke-width: 1.0;" width="10" x="520.5" y="574.9688"/><text fill="#000000" font-family="Tahoma, sans-serif" font-size="12" lengthAdjust="spacingAndGlyphs" textLength="79" x="535.5" y="572.1387">async-mutex</text><!--MD5=[247c11c248b6a71ee5eacb9cd05e1b38]
entity commander--><rect fill="#F8F8F8" height="33.9688" rx="3" ry="3" style="stroke: #383838; stroke-width: 1.0;" width="93" x="263.5" y="551"/><rect fill="#F8F8F8" height="5" style="stroke: #383838; stroke-width: 1.0;" width="10" x="258.5" y="556"/><rect fill="#F8F8F8" height="5" style="stroke: #383838; stroke-width: 1.0;" width="10" x="258.5" y="574.9688"/><text fill="#000000" font-family="Tahoma, sans-serif" font-size="12" lengthAdjust="spacingAndGlyphs" textLength="73" x="273.5" y="572.1387">commander</text><!--MD5=[564a394d57ce3e0a92ac6699042b9ef1]
entity cors--><rect fill="#F8F8F8" height="33.9688" rx="3" ry="3" style="stroke: #383838; stroke-width: 1.0;" width="47" x="38.5" y="551"/><rect fill="#F8F8F8" height="5" style="stroke: #383838; stroke-width: 1.0;" width="10" x="33.5" y="556"/><rect fill="#F8F8F8" height="5" style="stroke: #383838; stroke-width: 1.0;" width="10" x="33.5" y="574.9688"/><text fill="#000000" font-family="Tahoma, sans-serif" font-size="12" lengthAdjust="spacingAndGlyphs" textLength="27" x="48.5" y="572.1387">cors</text><!--MD5=[b84d8dbe3cf51322a9824c71d57d534f]
entity dotenv--><rect fill="#F8F8F8" height="33.9688" rx="3" ry="3" style="stroke: #383838; stroke-width: 1.0;" width="63" x="371.5" y="551"/><rect fill="#F8F8F8" height="5" style="stroke: #383838; stroke-width: 1.0;" width="10" x="366.5" y="556"/><rect fill="#F8F8F8" height="5" style="stroke: #383838; stroke-width: 1.0;" width="10" x="366.5" y="574.9688"/><text fill="#000000" font-family="Tahoma, sans-serif" font-size="12" lengthAdjust="spacingAndGlyphs" textLength="43" x="381.5" y="572.1387">dotenv</text><!--MD5=[78147715a61726ca0d0a20352beeced2]
entity ethers--><rect fill="#F8F8F8" height="33.9688" rx="3" ry="3" style="stroke: #383838; stroke-width: 1.0;" width="60" x="450" y="551"/><rect fill="#F8F8F8" height="5" style="stroke: #383838; stroke-width: 1.0;" width="10" x="445" y="556"/><rect fill="#F8F8F8" height="5" style="stroke: #383838; stroke-width: 1.0;" width="10" x="445" y="574.9688"/><text fill="#000000" font-family="Tahoma, sans-serif" font-size="12" lengthAdjust="spacingAndGlyphs" textLength="40" x="460" y="572.1387">ethers</text><!--MD5=[6d151e53a42aadf92577082572a20d90]
entity express--><rect fill="#F8F8F8" height="33.9688" rx="3" ry="3" style="stroke: #383838; stroke-width: 1.0;" width="70" x="101" y="551"/><rect fill="#F8F8F8" height="5" style="stroke: #383838; stroke-width: 1.0;" width="10" x="96" y="556"/><rect fill="#F8F8F8" height="5" style="stroke: #383838; stroke-width: 1.0;" width="10" x="96" y="574.9688"/><text fill="#000000" font-family="Tahoma, sans-serif" font-size="12" lengthAdjust="spacingAndGlyphs" textLength="50" x="111" y="572.1387">express</text><!--MD5=[380c1750e2aa5aeed8d38b1a8d057635]
entity helmet--><rect fill="#F8F8F8" height="33.9688" rx="3" ry="3" style="stroke: #383838; stroke-width: 1.0;" width="62" x="186" y="551"/><rect fill="#F8F8F8" height="5" style="stroke: #383838; stroke-width: 1.0;" width="10" x="181" y="556"/><rect fill="#F8F8F8" height="5" style="stroke: #383838; stroke-width: 1.0;" width="10" x="181" y="574.9688"/><text fill="#000000" font-family="Tahoma, sans-serif" font-size="12" lengthAdjust="spacingAndGlyphs" textLength="42" x="196" y="572.1387">helmet</text><ellipse cx="481.2193" cy="20.8774" fill="#F8F8F8" rx="44.7193" ry="12.8774" style="stroke: #383838; stroke-width: 0.5;"/><text fill="#000000" font-family="Tahoma, sans-serif" font-size="12" font-weight="bold" lengthAdjust="spacingAndGlyphs" textLength="59" x="451.7193" y="24.3618">execute</text><ellipse cx="397.0772" cy="398.8774" fill="#F8F8F8" rx="30.5772" ry="12.8774" style="stroke: #383838; stroke-width: 0.5;"/><text fill="#000000" font-family="Tahoma, sans-serif" font-size="12" lengthAdjust="spacingAndGlyphs" textLength="39" x="377.5772" y="402.3618">Config</text><!--MD5=[4d79e7d2cf9a57eda717a385fa9eefa7]
entity _Debug--><rect fill="#F8F8F8" height="33.9688" rx="3" ry="3" style="stroke: #000000; stroke-width: 0.5;" width="60" x="487" y="192"/><text fill="#000000" font-family="Tahoma, sans-serif" font-size="12" lengthAdjust="spacingAndGlyphs" textLength="40" x="497" y="213.1387">Debug</text><!--MD5=[9fbdc8c1c29a3a6defee5673dec63f06]
entity _Eth--><rect fill="#F8F8F8" height="33.9688" rx="3" ry="3" style="stroke: #000000; stroke-width: 0.5;" width="39" x="444.5" y="256"/><text fill="#000000" font-family="Tahoma, sans-serif" font-size="12" lengthAdjust="spacingAndGlyphs" textLength="19" x="454.5" y="277.1387">Eth</text><!--MD5=[fb40ed61b41f2b3652817daf9440b90e]
entity _ExecutionManager--><rect fill="#F8F8F8" height="33.9688" rx="3" ry="3" style="stroke: #000000; stroke-width: 0.5;" width="133" x="530.5" y="256"/><text fill="#000000" font-family="Tahoma, sans-serif" font-size="12" lengthAdjust="spacingAndGlyphs" textLength="113" x="540.5" y="277.1387">ExecutionManager</text><!--MD5=[bfbdfac5fa9726ec406701361bc51456]
entity _JsonRpcHttpServer--><rect fill="#F8F8F8" height="33.9688" rx="3" ry="3" style="stroke: #000000; stroke-width: 0.5;" width="137" x="180.5" y="64"/><text fill="#000000" font-family="Tahoma, sans-serif" font-size="12" lengthAdjust="spacingAndGlyphs" textLength="117" x="190.5" y="85.1387">JsonRpcHttpServer</text><ellipse cx="575.1501" cy="336.03" fill="#F8F8F8" rx="68.1501" ry="16.03" style="stroke: #383838; stroke-width: 0.5;"/><text fill="#000000" font-family="Tahoma, sans-serif" font-size="12" lengthAdjust="spacingAndGlyphs" textLength="110" x="520.1501" y="339.5144">MempoolManager</text><!--MD5=[a4bde2d833f6366106426cb2feefc97b]
entity _ProviderService--><rect fill="#F8F8F8" height="33.9688" rx="3" ry="3" style="stroke: #000000; stroke-width: 0.5;" width="118" x="190" y="192"/><text fill="#000000" font-family="Tahoma, sans-serif" font-size="12" lengthAdjust="spacingAndGlyphs" textLength="98" x="200" y="213.1387">ProviderService</text><!--MD5=[4fceac381ed5f1e36664ded7849570b4]
entity _RpcMethodHandler_ts--><rect fill="#F8F8F8" height="33.9688" rx="3" ry="3" style="stroke: #000000; stroke-width: 0.5;" width="153" x="304.5" y="128"/><text fill="#000000" font-family="Tahoma, sans-serif" font-size="12" lengthAdjust="spacingAndGlyphs" textLength="133" x="314.5" y="149.1387">RpcMethodHandler.ts</text><!--MD5=[3095bf365a94611fa6d04f4eb27c6bb9]
entity _Types--><rect fill="#F8F8F8" height="33.9688" rx="3" ry="3" style="stroke: #000000; stroke-width: 0.5;" width="57" x="487.5" y="382"/><text fill="#000000" font-family="Tahoma, sans-serif" font-size="12" lengthAdjust="spacingAndGlyphs" textLength="37" x="497.5" y="403.1387">Types</text><ellipse cx="472.1777" cy="458.8774" fill="#F8F8F8" rx="20.6777" ry="12.8774" style="stroke: #383838; stroke-width: 0.5;"/><text fill="#000000" font-family="Tahoma, sans-serif" font-size="12" lengthAdjust="spacingAndGlyphs" textLength="25" x="459.6777" y="462.3618">utils</text><!--MD5=[4829182cfd9684458e1349ddbe6f9e42]
entity _Web3--><rect fill="#F8F8F8" height="33.9688" rx="3" ry="3" style="stroke: #000000; stroke-width: 0.5;" width="55" x="354.5" y="192"/><text fill="#000000" font-family="Tahoma, sans-serif" font-size="12" lengthAdjust="spacingAndGlyphs" textLength="35" x="364.5" y="213.1387">Web3</text><!--MD5=[0b1562c0d113df0dcf54fa78a6f95df2]
link Config to commander--><path d="M390.882,411.743 C376.261,439.809 339.139,511.067 320.712,546.4374 " fill="none" id="Config-&gt;commander" style="stroke: #000000; stroke-width: 0.5;"/><polygon fill="#000000" points="318.347,550.9773,326.0527,544.8437,320.6572,546.543,318.9578,541.1474,318.347,550.9773" style="stroke: #000000; stroke-width: 0.5;"/><!--MD5=[73a2bb3f4035ad9653fbd125a3b81365]
link Config to dotenv--><path d="M397.432,412.01 C398.436,439.98 400.944,509.785 402.223,545.3847 " fill="none" id="Config-&gt;dotenv" style="stroke: #000000; stroke-width: 0.5;"/><polygon fill="#000000" points="402.418,550.7928,406.0922,541.655,402.2384,545.796,398.0974,541.9423,402.418,550.7928" style="stroke: #000000; stroke-width: 0.5;"/><!--MD5=[e8a9ee2f01904c80dfc59b180358b3f2]
link Config to ethers--><path d="M402.969,412.01 C416.985,440.211 452.137,510.937 469.69,546.2567 " fill="none" id="Config-&gt;ethers" style="stroke: #000000; stroke-width: 0.5;"/><polygon fill="#000000" points="471.945,550.7928,471.5222,540.953,469.72,546.3151,464.3579,544.513,471.945,550.7928" style="stroke: #000000; stroke-width: 0.5;"/><!--MD5=[b3efc3e47244008bde1eb71834f5bed7]
link Config to utils--><path d="M410.756,410.638 C423.327,420.359 441.944,434.756 455.35,445.124 " fill="none" id="Config-&gt;utils" style="stroke: #000000; stroke-width: 0.5;"/><polygon fill="#000000" points="459.33,448.202,454.6588,439.5314,455.3752,445.1427,449.7639,445.8591,459.33,448.202" style="stroke: #000000; stroke-width: 0.5;"/><!--MD5=[217340885b270f9af91abbde460b3fc2]
link _Debug to _ExecutionManager--><path d="M538.019,226.29 C548.4,234.335 561.001,244.101 571.886,252.537 " fill="none" id="_Debug-&gt;_ExecutionManager" style="stroke: #000000; stroke-width: 0.5;"/><polygon fill="#000000" points="576.121,255.819,571.4582,247.1438,572.1692,252.7558,566.5572,253.4668,576.121,255.819" style="stroke: #000000; stroke-width: 0.5;"/><!--MD5=[1b9240df91d9be239761a71159044587]
link _Debug to MempoolManager--><path d="M514.731,226.285 C513.15,243.162 512.859,269.844 523,290 C528.54,301.012 538.07,310.461 547.47,317.817 " fill="none" id="_Debug-&gt;MempoolManager" style="stroke: #000000; stroke-width: 0.5;"/><polygon fill="#000000" points="551.479,320.84,546.7036,312.2263,547.4876,317.8286,541.8853,318.6126,551.479,320.84" style="stroke: #000000; stroke-width: 0.5;"/><!--MD5=[c744b299abf8561caba8abe9f568a65e]
link _Eth to Config--><path d="M455.241,290.211 C442.405,313.967 418.619,357.988 405.775,381.761 " fill="none" id="_Eth-&gt;Config" style="stroke: #000000; stroke-width: 0.5;"/><polygon fill="#000000" points="403.358,386.233,411.156,380.2171,405.7352,381.8343,404.118,376.4135,403.358,386.233" style="stroke: #000000; stroke-width: 0.5;"/><!--MD5=[07187728bdf6a45bdc8666d2d84690de]
link _Eth to MempoolManager--><path d="M483.589,284.765 C500.572,294.098 525.418,307.752 544.921,318.47 " fill="none" id="_Eth-&gt;MempoolManager" style="stroke: #000000; stroke-width: 0.5;"/><polygon fill="#000000" points="549.756,321.127,543.795,313.287,545.3741,318.7189,539.9421,320.298,549.756,321.127" style="stroke: #000000; stroke-width: 0.5;"/><!--MD5=[7e63591ccd2719c9340ae1618341bb5c]
link _Eth to _Types--><path d="M470.798,290.211 C480.141,312.49 496.958,352.592 507.236,377.101 " fill="none" id="_Eth-&gt;_Types" style="stroke: #000000; stroke-width: 0.5;"/><polygon fill="#000000" points="509.2,381.785,509.4063,371.9383,507.2655,377.1744,502.0294,375.0336,509.2,381.785" style="stroke: #000000; stroke-width: 0.5;"/><!--MD5=[8bb49f446ba192f725de995baace06ab]
link <b>execute</b> to Config--><path d="M480.335,34.098 C478.837,58.496 474.554,115.262 465,162 C456.269,204.709 449.132,214.13 437,256 C423.969,300.972 409.151,354.128 401.743,380.845 " fill="none" id="&lt;b&gt;execute&lt;/b&gt;-&gt;Config" style="stroke: #000000; stroke-width: 1.0;"/><polygon fill="#000000" points="400.363,385.826,406.6218,378.2216,401.6986,381.0077,398.9125,376.0845,400.363,385.826" style="stroke: #000000; stroke-width: 1.0;"/><!--MD5=[cfa98425fbd864e957dab31f2b4662c3]
link <b>execute</b> to _ExecutionManager--><path d="M486.595,34.058 C505.009,73.743 563.879,200.618 587.277,251.045 " fill="none" id="&lt;b&gt;execute&lt;/b&gt;-&gt;_ExecutionManager" style="stroke: #000000; stroke-width: 1.0;"/><polygon fill="#000000" points="589.428,255.681,589.2689,245.8334,587.3237,251.1454,582.0118,249.2002,589.428,255.681" style="stroke: #000000; stroke-width: 1.0;"/><!--MD5=[99211a0848547cdfe74c601bba89b6b2]
link <b>execute</b> to _JsonRpcHttpServer--><path d="M448.741,30.065 C415.173,38.457 361.572,51.857 318.344,62.664 " fill="none" id="&lt;b&gt;execute&lt;/b&gt;-&gt;_JsonRpcHttpServer" style="stroke: #000000; stroke-width: 1.0;"/><polygon fill="#000000" points="313.394,63.902,323.0954,65.5997,318.2447,62.6893,321.1551,57.8386,313.394,63.902" style="stroke: #000000; stroke-width: 1.0;"/><!--MD5=[5b9e0e9dff0766e3d998027f40912159]
link _ExecutionManager to async-mutex--><path d="M622.723,290.187 C633.051,297.972 644.118,308.189 651,320 C668.773,350.501 666,362.698 666,398 C666,398 666,398 666,460 C666,497.962 632.35,529.3215 605.975,548.0706 " fill="none" id="_ExecutionManager-&gt;async-mutex" style="stroke: #000000; stroke-width: 0.5;"/><polygon fill="#000000" points="601.811,550.9706,611.4826,549.1102,605.9142,548.1134,606.911,542.5451,601.811,550.9706" style="stroke: #000000; stroke-width: 0.5;"/><!--MD5=[bbef21c6e889d6fbc37a4d6b7289672d]
link _ExecutionManager to Config--><path d="M558.282,290.161 C540.131,298.286 518.482,308.783 500,320 C467.776,339.557 433.475,367.049 413.709,383.631 " fill="none" id="_ExecutionManager-&gt;Config" style="stroke: #000000; stroke-width: 0.5;"/><polygon fill="#000000" points="409.717,386.997,419.1751,384.2504,413.5385,383.7727,414.0162,378.136,409.717,386.997" style="stroke: #000000; stroke-width: 0.5;"/><!--MD5=[915c0830283d16b6a03fd83e83e09ccf]
link _ExecutionManager to MempoolManager--><path d="M591.22,290.027 C588.479,297.627 585.175,306.789 582.266,314.854 " fill="none" id="_ExecutionManager-&gt;MempoolManager" style="stroke: #000000; stroke-width: 0.5;"/><polygon fill="#000000" points="580.514,319.71,587.3308,312.6015,582.2108,315.0067,579.8056,309.8867,580.514,319.71" style="stroke: #000000; stroke-width: 0.5;"/><!--MD5=[d4da687fa54533acb9992d8533ebc11d]
link _JsonRpcHttpServer to Config--><path d="M258.712,98.178 C277.025,128.683 314.85,191.697 315,192 C332.517,227.388 374.622,338.36 390.655,381.041 " fill="none" id="_JsonRpcHttpServer-&gt;Config" style="stroke: #000000; stroke-width: 0.5;"/><polygon fill="#000000" points="392.478,385.897,393.0602,376.0654,390.721,381.2159,385.5705,378.8766,392.478,385.897" style="stroke: #000000; stroke-width: 0.5;"/><!--MD5=[874e5c9d1ef39f877d69e6c7af67d374]
link _JsonRpcHttpServer to cors--><path d="M195.429,98.049 C147.25,116.184 84,150.872 84,208 C84,208 84,208 84,460 C84,490.374 75.389,524.6233 68.9416,546.0101 " fill="none" id="_JsonRpcHttpServer-&gt;cors" style="stroke: #000000; stroke-width: 0.5;"/><polygon fill="#000000" points="67.4382,550.8971,73.9076,543.471,68.9083,546.1181,66.2613,541.1188,67.4382,550.8971" style="stroke: #000000; stroke-width: 0.5;"/><!--MD5=[3db1f688a9aa1bed2435ee749bdee33a]
link _JsonRpcHttpServer to express--><path d="M215.277,98.114 C201.824,105.764 186.963,115.899 176,128 C149.311,157.461 136,168.248 136,208 C136,208 136,208 136,460 C136,489.626 136,523.8671 136,545.4744 " fill="none" id="_JsonRpcHttpServer-&gt;express" style="stroke: #000000; stroke-width: 0.5;"/><polygon fill="#000000" points="136,550.6851,140,541.6851,136,545.6851,132,541.6851,136,550.6851" style="stroke: #000000; stroke-width: 0.5;"/><!--MD5=[bcc210547358cbdef60168860a1aa5c1]
link _JsonRpcHttpServer to helmet--><path d="M229.567,98.143 C205.319,120.217 167,162.326 167,208 C167,208 167,208 167,460 C167,492.543 186.218,525.861 200.825,546.4851 " fill="none" id="_JsonRpcHttpServer-&gt;helmet" style="stroke: #000000; stroke-width: 0.5;"/><polygon fill="#000000" points="203.863,550.6885,201.8317,541.0514,200.9336,546.6365,195.3485,545.7384,203.863,550.6885" style="stroke: #000000; stroke-width: 0.5;"/><!--MD5=[c5ed34d1ddf2bac83beff6067a9d6a5f]
link _JsonRpcHttpServer to _ProviderService--><path d="M249,98.214 C249,120.801 249,161.769 249,186.768 " fill="none" id="_JsonRpcHttpServer-&gt;_ProviderService" style="stroke: #000000; stroke-width: 0.5;"/><polygon fill="#000000" points="249,191.848,253,182.848,249,186.848,245,182.848,249,191.848" style="stroke: #000000; stroke-width: 0.5;"/><!--MD5=[7da9a3a0465859ecb04f57920cb187e1]
link _JsonRpcHttpServer to _RpcMethodHandler_ts--><path d="M283.337,98.128 C301.365,106.595 323.523,117.003 342.174,125.763 " fill="none" id="_JsonRpcHttpServer-&gt;_RpcMethodHandler_ts" style="stroke: #000000; stroke-width: 0.5;"/><polygon fill="#000000" points="346.835,127.953,340.3894,120.5063,342.3094,125.8273,336.9883,127.7473,346.835,127.953" style="stroke: #000000; stroke-width: 0.5;"/><!--MD5=[6131df72ad37d0065c9dce81cbae5e38]
link MempoolManager to async-mutex--><path d="M575,352.091 C575,391.93 575,500.01 575,545.9178 " fill="none" id="MempoolManager-&gt;async-mutex" style="stroke: #000000; stroke-width: 0.5;"/><polygon fill="#000000" points="575,550.9411,579,541.9411,575,545.9411,571,541.9411,575,550.9411" style="stroke: #000000; stroke-width: 0.5;"/><!--MD5=[16f9fb50a507d1f42a53dd4470945abc]
link MempoolManager to Config--><path d="M538.118,349.639 C504.427,361.185 455.35,378.004 424.841,388.459 " fill="none" id="MempoolManager-&gt;Config" style="stroke: #000000; stroke-width: 0.5;"/><polygon fill="#000000" points="419.739,390.207,429.5498,391.0724,424.4688,388.5856,426.9556,383.5047,419.739,390.207" style="stroke: #000000; stroke-width: 0.5;"/><!--MD5=[7acb9d97f6e278baed5c3221838e57aa]
link MempoolManager to _Types--><path d="M560.718,351.766 C553.215,359.524 543.903,369.151 535.723,377.608 " fill="none" id="MempoolManager-&gt;_Types" style="stroke: #000000; stroke-width: 0.5;"/><polygon fill="#000000" points="531.811,381.653,540.9436,377.9657,535.2875,378.0594,535.1938,372.4033,531.811,381.653" style="stroke: #000000; stroke-width: 0.5;"/><!--MD5=[faf7230adc66076686421f2234120ac6]
link _ProviderService to Config--><path d="M261.618,226.029 C289.697,261.696 357.042,347.242 384.762,382.454 " fill="none" id="_ProviderService-&gt;Config" style="stroke: #000000; stroke-width: 0.5;"/><polygon fill="#000000" points="387.94,386.492,385.5157,376.9462,384.8471,382.5634,379.2299,381.8948,387.94,386.492" style="stroke: #000000; stroke-width: 0.5;"/><!--MD5=[7ec4369bb04ce9fac49815fdd51e1657]
link _RpcMethodHandler_ts to _Debug--><path d="M416.377,162.128 C436.633,171.362 461.95,182.904 482.122,192.1 " fill="none" id="_RpcMethodHandler_ts-&gt;_Debug" style="stroke: #000000; stroke-width: 0.5;"/><polygon fill="#000000" points="486.869,194.264,480.3391,186.891,482.3195,192.1899,477.0206,194.1703,486.869,194.264" style="stroke: #000000; stroke-width: 0.5;"/><!--MD5=[1e402d059cdb9c320594713312255311]
link _RpcMethodHandler_ts to _Eth--><path d="M394.543,162.209 C401.536,170.846 410.039,181.772 417,192 C430.339,211.597 443.873,235.1 452.971,251.542 " fill="none" id="_RpcMethodHandler_ts-&gt;_Eth" style="stroke: #000000; stroke-width: 0.5;"/><polygon fill="#000000" points="455.415,255.983,454.5784,246.1697,453.0035,251.6029,447.5703,250.0281,455.415,255.983" style="stroke: #000000; stroke-width: 0.5;"/><!--MD5=[a798f0ab93af2957def17394bbb2bd24]
link _RpcMethodHandler_ts to _ProviderService--><path d="M346.663,162.128 C328.635,170.595 306.477,181.003 287.826,189.763 " fill="none" id="_RpcMethodHandler_ts-&gt;_ProviderService" style="stroke: #000000; stroke-width: 0.5;"/><polygon fill="#000000" points="283.165,191.953,293.0117,191.7473,287.6906,189.8273,289.6106,184.5063,283.165,191.953" style="stroke: #000000; stroke-width: 0.5;"/><!--MD5=[eeb0063848b4d845f15cac63caa165ef]
link _RpcMethodHandler_ts to _Web3--><path d="M381.263,162.29 C381.381,169.636 381.523,178.416 381.65,186.31 " fill="none" id="_RpcMethodHandler_ts-&gt;_Web3" style="stroke: #000000; stroke-width: 0.5;"/><polygon fill="#000000" points="381.736,191.604,385.5889,182.5401,381.6546,186.6047,377.59,182.6703,381.736,191.604" style="stroke: #000000; stroke-width: 0.5;"/><!--MD5=[8bdb3dbc7cc0e4e4e79aa45e0fae3f3d]
link _Types to ethers--><path d="M512.548,416.013 C506.033,446.235 491.924,511.687 484.608,545.6245 " fill="none" id="_Types-&gt;ethers" style="stroke: #000000; stroke-width: 0.5;"/><polygon fill="#000000" points="483.494,550.7904,489.3006,542.8353,484.5475,545.9027,481.4802,541.1496,483.494,550.7904" style="stroke: #000000; stroke-width: 0.5;"/><!--MD5=[738a48ed45e5ac1e9a0bfebcdbbf13d2]
link utils to ethers--><path d="M472.918,472.274 C474.255,490.163 476.759,523.6534 478.403,545.6389 " fill="none" id="utils-&gt;ethers" style="stroke: #000000; stroke-width: 0.5;"/><polygon fill="#000000" points="478.781,550.6908,482.0987,541.4176,478.4081,545.7047,474.1209,542.0142,478.781,550.6908" style="stroke: #000000; stroke-width: 0.5;"/><!--MD5=[a0931f9d85d6774f0713b5c8ecb61793]
link _Web3 to Config--><path d="M379.771,226.348 C376.59,252.938 371.969,307.1 380,352 C381.788,361.994 385.599,372.659 389.16,381.201 " fill="none" id="_Web3-&gt;Config" style="stroke: #000000; stroke-width: 0.5;"/><polygon fill="#000000" points="391.325,386.22,391.4341,376.3717,389.3451,381.6287,384.0881,379.5396,391.325,386.22" style="stroke: #000000; stroke-width: 0.5;"/><script type="text/plantuml"><![CDATA[MD5=[8adb8c4723964dba4e636d15395078ad]
@startuml

scale max 1920 width
top to bottom direction

skinparam nodesep 15
skinparam ranksep 30
skinparam monochrome true
skinparam shadowing false
skinparam defaultFontName Tahoma
skinparam defaultFontSize 12
skinparam roundCorner 6
skinparam dpi 150
skinparam arrowColor black
skinparam arrowThickness 0.5
skinparam packageTitleAlignment left

skinparam usecase {
  borderThickness 0.5
}

skinparam rectangle {
  borderThickness 0.5
}

skinparam component {
  borderThickness 1
}


(<b>execute</b>)
(Config)
rectangle "Debug" as _Debug
rectangle "Eth" as _Eth
rectangle "ExecutionManager" as _ExecutionManager
rectangle "JsonRpcHttpServer" as _JsonRpcHttpServer
(MempoolManager)
rectangle "ProviderService" as _ProviderService
rectangle "RpcMethodHandler.ts" as _RpcMethodHandler_ts
rectangle "Types" as _Types
(utils)
rectangle "Web3" as _Web3

package "Dependencies" {
  [async-mutex]
  [commander]
  [cors]
  [dotenv]
  [ethers]
  [express]
  [helmet]
}

(Config) ----> [commander]
(Config) ----> [dotenv]
(Config) ----> [ethers]
(Config) --> (utils)
_Debug --> _ExecutionManager
_Debug --> (MempoolManager)
_Eth --> (Config)
_Eth --> (MempoolManager)
_Eth --> _Types
(<b>execute</b>) -[thickness=1]> (Config)
(<b>execute</b>) -[thickness=1]> _ExecutionManager
(<b>execute</b>) --[thickness=1]> _JsonRpcHttpServer
_ExecutionManager ----> [async-mutex]
_ExecutionManager --> (Config)
_ExecutionManager --> (MempoolManager)
_JsonRpcHttpServer --> (Config)
_JsonRpcHttpServer ----> [cors]
_JsonRpcHttpServer ----> [express]
_JsonRpcHttpServer ----> [helmet]
_JsonRpcHttpServer --> _ProviderService
_JsonRpcHttpServer --> _RpcMethodHandler_ts
(MempoolManager) ----> [async-mutex]
(MempoolManager) --> (Config)
(MempoolManager) --> _Types
_ProviderService --> (Config)
_RpcMethodHandler_ts --> _Debug
_RpcMethodHandler_ts --> _Eth
_RpcMethodHandler_ts --> _ProviderService
_RpcMethodHandler_ts --> _Web3
_Types ----> [ethers]
(utils) ---> [ethers]
_Web3 --> (Config)

@enduml


' View and edit on https://arkit.pro
]]></script></g></svg>