<?xml version="1.0" encoding="UTF-8" standalone="no"?><svg xmlns="http://www.w3.org/2000/svg" xmlns:xlink="http://www.w3.org/1999/xlink" contentScriptType="application/ecmascript" contentStyleType="text/css" height="544px" preserveAspectRatio="none" style="width:695px;height:544px;" version="1.1" viewBox="0 0 695 544" width="695px" zoomAndPan="magnify"><defs/><g><!--MD5=[a6f11bb19cee6b13000111f5ad685e8b]
cluster Dependencies--><path d="M25,450 L127,450 A4.5,4.5 0 0 1 130,453 L137,469.9688 L638,469.9688 A3,3 0 0 1 641,472.9688 L641,529 A3,3 0 0 1 638,532 L25,532 A3,3 0 0 1 22,529 L22,453 A3,3 0 0 1 25,450 " fill="#FFFFFF" style="stroke: #000000; stroke-width: 1.5;"/><line style="stroke: #000000; stroke-width: 1.5;" x1="22" x2="137" y1="469.9688" y2="469.9688"/><text fill="#000000" font-family="Tahoma, sans-serif" font-size="12" font-weight="bold" lengthAdjust="spacingAndGlyphs" textLength="102" x="26" y="463.1387">Dependencies</text><!--MD5=[a3eeb38a3c88bc709a72fd619cafec5a]
entity async-mutex--><rect fill="#F8F8F8" height="33.9688" rx="3" ry="3" style="stroke: #383838; stroke-width: 1.0;" width="99" x="417.5" y="482"/><rect fill="#F8F8F8" height="5" style="stroke: #383838; stroke-width: 1.0;" width="10" x="412.5" y="487"/><rect fill="#F8F8F8" height="5" style="stroke: #383838; stroke-width: 1.0;" width="10" x="412.5" y="505.9688"/><text fill="#000000" font-family="Tahoma, sans-serif" font-size="12" lengthAdjust="spacingAndGlyphs" textLength="79" x="427.5" y="503.1387">async-mutex</text><!--MD5=[247c11c248b6a71ee5eacb9cd05e1b38]
entity commander--><rect fill="#F8F8F8" height="33.9688" rx="3" ry="3" style="stroke: #383838; stroke-width: 1.0;" width="93" x="531.5" y="482"/><rect fill="#F8F8F8" height="5" style="stroke: #383838; stroke-width: 1.0;" width="10" x="526.5" y="487"/><rect fill="#F8F8F8" height="5" style="stroke: #383838; stroke-width: 1.0;" width="10" x="526.5" y="505.9688"/><text fill="#000000" font-family="Tahoma, sans-serif" font-size="12" lengthAdjust="spacingAndGlyphs" textLength="73" x="541.5" y="503.1387">commander</text><!--MD5=[564a394d57ce3e0a92ac6699042b9ef1]
entity cors--><rect fill="#F8F8F8" height="33.9688" rx="3" ry="3" style="stroke: #383838; stroke-width: 1.0;" width="47" x="194.5" y="482"/><rect fill="#F8F8F8" height="5" style="stroke: #383838; stroke-width: 1.0;" width="10" x="189.5" y="487"/><rect fill="#F8F8F8" height="5" style="stroke: #383838; stroke-width: 1.0;" width="10" x="189.5" y="505.9688"/><text fill="#000000" font-family="Tahoma, sans-serif" font-size="12" lengthAdjust="spacingAndGlyphs" textLength="27" x="204.5" y="503.1387">cors</text><!--MD5=[b84d8dbe3cf51322a9824c71d57d534f]
entity dotenv--><rect fill="#F8F8F8" height="33.9688" rx="3" ry="3" style="stroke: #383838; stroke-width: 1.0;" width="63" x="38.5" y="482"/><rect fill="#F8F8F8" height="5" style="stroke: #383838; stroke-width: 1.0;" width="10" x="33.5" y="487"/><rect fill="#F8F8F8" height="5" style="stroke: #383838; stroke-width: 1.0;" width="10" x="33.5" y="505.9688"/><text fill="#000000" font-family="Tahoma, sans-serif" font-size="12" lengthAdjust="spacingAndGlyphs" textLength="43" x="48.5" y="503.1387">dotenv</text><!--MD5=[78147715a61726ca0d0a20352beeced2]
entity ethers--><rect fill="#F8F8F8" height="33.9688" rx="3" ry="3" style="stroke: #383838; stroke-width: 1.0;" width="60" x="342" y="482"/><rect fill="#F8F8F8" height="5" style="stroke: #383838; stroke-width: 1.0;" width="10" x="337" y="487"/><rect fill="#F8F8F8" height="5" style="stroke: #383838; stroke-width: 1.0;" width="10" x="337" y="505.9688"/><text fill="#000000" font-family="Tahoma, sans-serif" font-size="12" lengthAdjust="spacingAndGlyphs" textLength="40" x="352" y="503.1387">ethers</text><!--MD5=[6d151e53a42aadf92577082572a20d90]
entity express--><rect fill="#F8F8F8" height="33.9688" rx="3" ry="3" style="stroke: #383838; stroke-width: 1.0;" width="70" x="257" y="482"/><rect fill="#F8F8F8" height="5" style="stroke: #383838; stroke-width: 1.0;" width="10" x="252" y="487"/><rect fill="#F8F8F8" height="5" style="stroke: #383838; stroke-width: 1.0;" width="10" x="252" y="505.9688"/><text fill="#000000" font-family="Tahoma, sans-serif" font-size="12" lengthAdjust="spacingAndGlyphs" textLength="50" x="267" y="503.1387">express</text><!--MD5=[380c1750e2aa5aeed8d38b1a8d057635]
entity helmet--><rect fill="#F8F8F8" height="33.9688" rx="3" ry="3" style="stroke: #383838; stroke-width: 1.0;" width="62" x="117" y="482"/><rect fill="#F8F8F8" height="5" style="stroke: #383838; stroke-width: 1.0;" width="10" x="112" y="487"/><rect fill="#F8F8F8" height="5" style="stroke: #383838; stroke-width: 1.0;" width="10" x="112" y="505.9688"/><text fill="#000000" font-family="Tahoma, sans-serif" font-size="12" lengthAdjust="spacingAndGlyphs" textLength="42" x="127" y="503.1387">helmet</text><ellipse cx="444.2193" cy="20.8774" fill="#F8F8F8" rx="44.7193" ry="12.8774" style="stroke: #383838; stroke-width: 0.5;"/><text fill="#000000" font-family="Tahoma, sans-serif" font-size="12" font-weight="bold" lengthAdjust="spacingAndGlyphs" textLength="59" x="414.7193" y="24.3618">execute</text><!--MD5=[e31d130a28686bdd2d8307a742f15c8d]
entity _Config--><rect fill="#F8F8F8" height="33.9688" rx="3" ry="3" style="stroke: #000000; stroke-width: 0.5;" width="59" x="461.5" y="315"/><text fill="#000000" font-family="Tahoma, sans-serif" font-size="12" lengthAdjust="spacingAndGlyphs" textLength="39" x="471.5" y="336.1387">Config</text><!--MD5=[4d79e7d2cf9a57eda717a385fa9eefa7]
entity _Debug--><rect fill="#F8F8F8" height="33.9688" rx="3" ry="3" style="stroke: #000000; stroke-width: 0.5;" width="60" x="343" y="189"/><text fill="#000000" font-family="Tahoma, sans-serif" font-size="12" lengthAdjust="spacingAndGlyphs" textLength="40" x="353" y="210.1387">Debug</text><!--MD5=[9fbdc8c1c29a3a6defee5673dec63f06]
entity _Eth--><rect fill="#F8F8F8" height="33.9688" rx="3" ry="3" style="stroke: #000000; stroke-width: 0.5;" width="39" x="288.5" y="189"/><text fill="#000000" font-family="Tahoma, sans-serif" font-size="12" lengthAdjust="spacingAndGlyphs" textLength="19" x="298.5" y="210.1387">Eth</text><!--MD5=[fb40ed61b41f2b3652817daf9440b90e]
entity _ExecutionManager--><rect fill="#F8F8F8" height="33.9688" rx="3" ry="3" style="stroke: #000000; stroke-width: 0.5;" width="133" x="515.5" y="189"/><text fill="#000000" font-family="Tahoma, sans-serif" font-size="12" lengthAdjust="spacingAndGlyphs" textLength="113" x="525.5" y="210.1387">ExecutionManager</text><!--MD5=[bfbdfac5fa9726ec406701361bc51456]
entity _JsonRpcHttpServer--><rect fill="#F8F8F8" height="33.9688" rx="3" ry="3" style="stroke: #000000; stroke-width: 0.5;" width="137" x="241.5" y="63"/><text fill="#000000" font-family="Tahoma, sans-serif" font-size="12" lengthAdjust="spacingAndGlyphs" textLength="117" x="251.5" y="84.1387">JsonRpcHttpServer</text><!--MD5=[13fb64536bd6651b287702c1cab19597]
entity _MempoolManager--><rect fill="#F8F8F8" height="33.9688" rx="3" ry="3" style="stroke: #000000; stroke-width: 0.5;" width="130" x="308" y="252"/><text fill="#000000" font-family="Tahoma, sans-serif" font-size="12" lengthAdjust="spacingAndGlyphs" textLength="110" x="318" y="273.1387">MempoolManager</text><!--MD5=[a4bde2d833f6366106426cb2feefc97b]
entity _ProviderService--><rect fill="#F8F8F8" height="33.9688" rx="3" ry="3" style="stroke: #000000; stroke-width: 0.5;" width="118" x="402" y="126"/><text fill="#000000" font-family="Tahoma, sans-serif" font-size="12" lengthAdjust="spacingAndGlyphs" textLength="98" x="412" y="147.1387">ProviderService</text><!--MD5=[4fceac381ed5f1e36664ded7849570b4]
entity _RpcMethodHandler_ts--><rect fill="#F8F8F8" height="33.9688" rx="3" ry="3" style="stroke: #000000; stroke-width: 0.5;" width="153" x="233.5" y="126"/><text fill="#000000" font-family="Tahoma, sans-serif" font-size="12" lengthAdjust="spacingAndGlyphs" textLength="133" x="243.5" y="147.1387">RpcMethodHandler.ts</text><!--MD5=[3095bf365a94611fa6d04f4eb27c6bb9]
entity _Types--><rect fill="#F8F8F8" height="33.9688" rx="3" ry="3" style="stroke: #000000; stroke-width: 0.5;" width="57" x="343.5" y="315"/><text fill="#000000" font-family="Tahoma, sans-serif" font-size="12" lengthAdjust="spacingAndGlyphs" textLength="37" x="353.5" y="336.1387">Types</text><ellipse cx="487.1777" cy="390.8774" fill="#F8F8F8" rx="20.6777" ry="12.8774" style="stroke: #383838; stroke-width: 0.5;"/><text fill="#000000" font-family="Tahoma, sans-serif" font-size="12" lengthAdjust="spacingAndGlyphs" textLength="25" x="474.6777" y="394.3618">utils</text><!--MD5=[c41180c415d29103b5e227a40ba5ab7e]
link _Config to commander--><path d="M499.69,349.233 C504.26,357.785 509.948,368.452 515,378 C533.365,412.706 554.557,453.1553 567.087,477.1131 " fill="none" id="_Config-&gt;commander" style="stroke: #000000; stroke-width: 0.5;"/><polygon fill="#000000" points="569.474,481.6782,568.8489,471.8492,567.1574,477.2472,561.7593,475.5558,569.474,481.6782" style="stroke: #000000; stroke-width: 0.5;"/><!--MD5=[80d4bba1d0f3fbd931d87eaee7419855]
link _Config to ethers--><path d="M478.705,349.092 C462.639,370.22 433.757,408.556 410,442 C401.784,453.5661 392.864,466.6802 385.733,477.3087 " fill="none" id="_Config-&gt;ethers" style="stroke: #000000; stroke-width: 0.5;"/><polygon fill="#000000" points="382.793,481.6998,391.1232,476.4455,385.5742,477.5447,384.475,471.9956,382.793,481.6998" style="stroke: #000000; stroke-width: 0.5;"/><!--MD5=[10b34ec4530390b37f1394f63ece90f9]
link _Config to utils--><path d="M489.864,349.181 C489.356,356.42 488.756,364.972 488.237,372.373 " fill="none" id="_Config-&gt;utils" style="stroke: #000000; stroke-width: 0.5;"/><polygon fill="#000000" points="487.858,377.768,492.4783,369.0701,488.208,372.7803,484.4979,368.51,487.858,377.768" style="stroke: #000000; stroke-width: 0.5;"/><!--MD5=[859e9d88074062cf94f4e7a655b87d97]
link _Debug to _MempoolManager--><path d="M373,223.027 C373,230.255 373,238.894 373,246.659 " fill="none" id="_Debug-&gt;_MempoolManager" style="stroke: #000000; stroke-width: 0.5;"/><polygon fill="#000000" points="373,251.868,377,242.868,373,246.868,369,242.868,373,251.868" style="stroke: #000000; stroke-width: 0.5;"/><!--MD5=[f67e06f9eb6ece0958538cf11c18feb1]
link _Eth to _MempoolManager--><path d="M325.078,223.027 C333.372,230.811 343.41,240.231 352.152,248.435 " fill="none" id="_Eth-&gt;_MempoolManager" style="stroke: #000000; stroke-width: 0.5;"/><polygon fill="#000000" points="355.81,251.868,351.9847,242.7924,352.1641,248.4464,346.5101,248.6258,355.81,251.868" style="stroke: #000000; stroke-width: 0.5;"/><!--MD5=[7e63591ccd2719c9340ae1618341bb5c]
link _Eth to _Types--><path d="M301.177,223.231 C295.253,240.02 289.174,266.467 300,286 C308.282,300.942 323.822,311.579 338.351,318.745 " fill="none" id="_Eth-&gt;_Types" style="stroke: #000000; stroke-width: 0.5;"/><polygon fill="#000000" points="343.228,321.043,336.7919,313.588,338.7051,318.9115,333.3816,320.8247,343.228,321.043" style="stroke: #000000; stroke-width: 0.5;"/><!--MD5=[24d0750e6e7373768d47548d73b6d4ef]
link <b>execute</b> to _Config--><path d="M469.017,31.925 C517.009,52.585 620.401,105.366 656,189 C683.802,254.317 581.981,300.23 525.783,320.05 " fill="none" id="&lt;b&gt;execute&lt;/b&gt;-&gt;_Config" style="stroke: #000000; stroke-width: 1.0;"/><polygon fill="#000000" points="520.824,321.773,530.6384,322.5967,525.5469,320.1316,528.012,315.0401,520.824,321.773" style="stroke: #000000; stroke-width: 1.0;"/><!--MD5=[259d20b878ea2d2fdafc8874a6232cf9]
link <b>execute</b> to dotenv--><path d="M404.531,27.011 C312.997,39.731 94,76.961 94,142 C94,142 94,142 94,392 C94,422.045 84.7145,455.7246 77.6948,476.8928 " fill="none" id="&lt;b&gt;execute&lt;/b&gt;-&gt;dotenv" style="stroke: #000000; stroke-width: 1.0;"/><polygon fill="#000000" points="76.0562,481.7343,82.7304,474.4917,77.6592,476.9982,75.1527,471.927,76.0562,481.7343" style="stroke: #000000; stroke-width: 1.0;"/><!--MD5=[cfa98425fbd864e957dab31f2b4662c3]
link <b>execute</b> to _ExecutionManager--><path d="M460.11,33.283 C483.806,50.651 528.05,86.133 554,126 C565.654,143.904 573.15,167.255 577.424,183.916 " fill="none" id="&lt;b&gt;execute&lt;/b&gt;-&gt;_ExecutionManager" style="stroke: #000000; stroke-width: 1.0;"/><polygon fill="#000000" points="578.648,188.859,580.3652,179.161,577.4451,184.0059,572.6002,181.0857,578.648,188.859" style="stroke: #000000; stroke-width: 1.0;"/><!--MD5=[99211a0848547cdfe74c601bba89b6b2]
link <b>execute</b> to _JsonRpcHttpServer--><path d="M420.352,32.059 C401.623,40.026 374.974,51.362 352.557,60.898 " fill="none" id="&lt;b&gt;execute&lt;/b&gt;-&gt;_JsonRpcHttpServer" style="stroke: #000000; stroke-width: 1.0;"/><polygon fill="#000000" points="347.841,62.903,357.6886,63.0576,352.4414,60.9443,354.5547,55.697,347.841,62.903" style="stroke: #000000; stroke-width: 1.0;"/><!--MD5=[5b9e0e9dff0766e3d998027f40912159]
link _ExecutionManager to async-mutex--><path d="M577.38,223.123 C567.449,257.127 542.712,338.45 515,404 C504.081,429.828 489.064,458.3671 478.75,477.1466 " fill="none" id="_ExecutionManager-&gt;async-mutex" style="stroke: #000000; stroke-width: 0.5;"/><polygon fill="#000000" points="476.235,481.7032,484.0867,475.7575,478.6516,477.326,477.0831,471.8909,476.235,481.7032" style="stroke: #000000; stroke-width: 0.5;"/><!--MD5=[2dd195625ff8be1bbe49e5e1c80403f1]
link _ExecutionManager to _Config--><path d="M570.103,223.211 C553.617,245.676 523.832,286.262 505.89,310.711 " fill="none" id="_ExecutionManager-&gt;_Config" style="stroke: #000000; stroke-width: 0.5;"/><polygon fill="#000000" points="502.9,314.785,511.4496,309.8958,505.8582,310.754,505.0001,305.1626,502.9,314.785" style="stroke: #000000; stroke-width: 0.5;"/><!--MD5=[6cbe62c9951cc8ee8d97933a9731483b]
link _ExecutionManager to _MempoolManager--><path d="M527.088,223.027 C498.162,231.469 462.638,241.838 432.992,250.49 " fill="none" id="_ExecutionManager-&gt;_MempoolManager" style="stroke: #000000; stroke-width: 0.5;"/><polygon fill="#000000" points="427.908,251.974,437.6684,253.2913,432.7076,250.5727,435.4263,245.6119,427.908,251.974" style="stroke: #000000; stroke-width: 0.5;"/><!--MD5=[a298d110327d5b4d9419c7df1684c3a2]
link _JsonRpcHttpServer to _Config--><path d="M378.648,85.961 C435.02,91.633 508.481,103.247 527,126 C536.539,137.72 531.321,145.52 527,160 C522.594,174.765 513.278,174.523 508,189 C493.11,229.846 490.636,281.249 490.559,309.658 " fill="none" id="_JsonRpcHttpServer-&gt;_Config" style="stroke: #000000; stroke-width: 0.5;"/><polygon fill="#000000" points="490.57,314.687,494.5494,305.6779,490.5586,309.687,486.5494,305.6962,490.57,314.687" style="stroke: #000000; stroke-width: 0.5;"/><!--MD5=[874e5c9d1ef39f877d69e6c7af67d374]
link _JsonRpcHttpServer to cors--><path d="M252.257,97.089 C236.244,103.86 219.985,113.226 208,126 C182.408,153.276 179,167.598 179,205 C179,205 179,205 179,392 C179,423.173 194.04,456.5076 205.44,477.297 " fill="none" id="_JsonRpcHttpServer-&gt;cors" style="stroke: #000000; stroke-width: 0.5;"/><polygon fill="#000000" points="207.957,481.7923,207.0514,471.9852,205.5148,477.4293,200.0706,475.8927,207.957,481.7923" style="stroke: #000000; stroke-width: 0.5;"/><!--MD5=[3db1f688a9aa1bed2435ee749bdee33a]
link _JsonRpcHttpServer to express--><path d="M263.246,97.043 C249.364,103.939 235.379,113.388 226,126 C204.623,154.747 210,169.176 210,205 C210,205 210,205 210,392 C210,420.183 231.751,419.712 249,442 C258.14,453.8098 268.319,467.0617 276.478,477.7085 " fill="none" id="_JsonRpcHttpServer-&gt;express" style="stroke: #000000; stroke-width: 0.5;"/><polygon fill="#000000" points="279.613,481.8012,277.316,472.2239,276.5727,477.8317,270.9649,477.0884,279.613,481.8012" style="stroke: #000000; stroke-width: 0.5;"/><!--MD5=[bcc210547358cbdef60168860a1aa5c1]
link _JsonRpcHttpServer to helmet--><path d="M241.205,93.885 C220.198,100.592 198.355,110.726 182,126 C154.063,152.09 148,166.775 148,205 C148,205 148,205 148,392 C148,421.35 148,455.2702 148,476.6756 " fill="none" id="_JsonRpcHttpServer-&gt;helmet" style="stroke: #000000; stroke-width: 0.5;"/><polygon fill="#000000" points="148,481.8376,152,472.8376,148,476.8376,144,472.8376,148,481.8376" style="stroke: #000000; stroke-width: 0.5;"/><!--MD5=[c5ed34d1ddf2bac83beff6067a9d6a5f]
link _JsonRpcHttpServer to _ProviderService--><path d="M349.673,97.027 C370.226,105.33 395.39,115.495 416.591,124.06 " fill="none" id="_JsonRpcHttpServer-&gt;_ProviderService" style="stroke: #000000; stroke-width: 0.5;"/><polygon fill="#000000" points="421.33,125.974,414.4836,118.8939,416.694,124.101,411.4869,126.3114,421.33,125.974" style="stroke: #000000; stroke-width: 0.5;"/><!--MD5=[7da9a3a0465859ecb04f57920cb187e1]
link _JsonRpcHttpServer to _RpcMethodHandler_ts--><path d="M310,97.027 C310,104.255 310,112.894 310,120.659 " fill="none" id="_JsonRpcHttpServer-&gt;_RpcMethodHandler_ts" style="stroke: #000000; stroke-width: 0.5;"/><polygon fill="#000000" points="310,125.868,314,116.868,310,120.868,306,116.868,310,125.868" style="stroke: #000000; stroke-width: 0.5;"/><!--MD5=[181f5d4efc60a26821db1953e8738d01]
link _MempoolManager to async-mutex--><path d="M387.787,286.131 C394.677,294.309 402.54,304.676 408,315 C437.079,369.985 455.085,441.88 462.731,476.9362 " fill="none" id="_MempoolManager-&gt;async-mutex" style="stroke: #000000; stroke-width: 0.5;"/><polygon fill="#000000" points="463.784,481.8348,465.8032,472.1952,462.7332,476.9465,457.9819,473.8764,463.784,481.8348" style="stroke: #000000; stroke-width: 0.5;"/><!--MD5=[1e7aa635d92d8ffad2d0cac5e95be814]
link _MempoolManager to _Config--><path d="M404.003,286.027 C420.231,294.416 440.138,304.707 456.812,313.327 " fill="none" id="_MempoolManager-&gt;_Config" style="stroke: #000000; stroke-width: 0.5;"/><polygon fill="#000000" points="461.423,315.71,455.2646,308.024,456.9813,313.4141,451.5912,315.1308,461.423,315.71" style="stroke: #000000; stroke-width: 0.5;"/><!--MD5=[4cd7a5798fc78530c7f561ecaedc6751]
link _MempoolManager to _Types--><path d="M372.737,286.027 C372.619,293.255 372.477,301.894 372.35,309.659 " fill="none" id="_MempoolManager-&gt;_Types" style="stroke: #000000; stroke-width: 0.5;"/><polygon fill="#000000" points="372.264,314.868,376.4126,305.9355,372.3469,309.8687,368.4137,305.8029,372.264,314.868" style="stroke: #000000; stroke-width: 0.5;"/><!--MD5=[398611c7856c8f3be6863a58ccb3ac9e]
link _ProviderService to _Config--><path d="M462.866,160.251 C465.999,186.705 472.786,240.681 481,286 C482.415,293.806 484.233,302.314 485.931,309.809 " fill="none" id="_ProviderService-&gt;_Config" style="stroke: #000000; stroke-width: 0.5;"/><polygon fill="#000000" points="487.08,314.816,488.965,305.1492,485.9613,309.9427,481.1678,306.9391,487.08,314.816" style="stroke: #000000; stroke-width: 0.5;"/><!--MD5=[7ec4369bb04ce9fac49815fdd51e1657]
link _RpcMethodHandler_ts to _Debug--><path d="M326.553,160.027 C334.448,167.672 343.974,176.895 352.338,184.994 " fill="none" id="_RpcMethodHandler_ts-&gt;_Debug" style="stroke: #000000; stroke-width: 0.5;"/><polygon fill="#000000" points="356.339,188.868,352.6572,179.7332,352.7475,185.3893,347.0914,185.4796,356.339,188.868" style="stroke: #000000; stroke-width: 0.5;"/><!--MD5=[1e402d059cdb9c320594713312255311]
link _RpcMethodHandler_ts to _Eth--><path d="M309.475,160.027 C309.238,167.255 308.954,175.894 308.7,183.659 " fill="none" id="_RpcMethodHandler_ts-&gt;_Eth" style="stroke: #000000; stroke-width: 0.5;"/><polygon fill="#000000" points="308.529,188.868,312.82,180.0031,308.6919,183.8707,304.8243,179.7425,308.529,188.868" style="stroke: #000000; stroke-width: 0.5;"/><!--MD5=[8bdb3dbc7cc0e4e4e79aa45e0fae3f3d]
link _Types to ethers--><path d="M372,349.121 C372,378.987 372,442.921 372,476.4573 " fill="none" id="_Types-&gt;ethers" style="stroke: #000000; stroke-width: 0.5;"/><polygon fill="#000000" points="372,481.5688,376,472.5688,372,476.5688,368,472.5688,372,481.5688" style="stroke: #000000; stroke-width: 0.5;"/><!--MD5=[738a48ed45e5ac1e9a0bfebcdbbf13d2]
link utils to ethers--><path d="M471.548,399.643 C455.02,408.33 428.67,423.704 410,442 C399.406,452.3813 390.02,466.142 383.226,477.4245 " fill="none" id="utils-&gt;ethers" style="stroke: #000000; stroke-width: 0.5;"/><polygon fill="#000000" points="380.661,481.7729,388.6786,476.053,383.2012,477.4662,381.7879,471.9887,380.661,481.7729" style="stroke: #000000; stroke-width: 0.5;"/><script type="text/plantuml"><![CDATA[MD5=[ba2ae51c1fe654b380c515ee9ff33f1d]
@startuml

scale max 1920 width
top to bottom direction

skinparam nodesep 15
skinparam ranksep 29
skinparam monochrome true
skinparam shadowing false
skinparam defaultFontName Tahoma
skinparam defaultFontSize 12
skinparam roundCorner 6
skinparam dpi 150
skinparam arrowColor black
skinparam arrowThickness 0.5
skinparam packageTitleAlignment left

skinparam usecase {
  borderThickness 0.5
}

skinparam rectangle {
  borderThickness 0.5
}

skinparam component {
  borderThickness 1
}


(<b>execute</b>)
rectangle "Config" as _Config
rectangle "Debug" as _Debug
rectangle "Eth" as _Eth
rectangle "ExecutionManager" as _ExecutionManager
rectangle "JsonRpcHttpServer" as _JsonRpcHttpServer
rectangle "MempoolManager" as _MempoolManager
rectangle "ProviderService" as _ProviderService
rectangle "RpcMethodHandler.ts" as _RpcMethodHandler_ts
rectangle "Types" as _Types
(utils)

package "Dependencies" {
  [async-mutex]
  [commander]
  [cors]
  [dotenv]
  [ethers]
  [express]
  [helmet]
}

_Config ----> [commander]
_Config ----> [ethers]
_Config --> (utils)
_Debug --> _MempoolManager
_Eth --> _MempoolManager
_Eth --> _Types
(<b>execute</b>) -[thickness=1]> _Config
(<b>execute</b>) ---[thickness=1]> [dotenv]
(<b>execute</b>) -[thickness=1]> _ExecutionManager
(<b>execute</b>) --[thickness=1]> _JsonRpcHttpServer
_ExecutionManager ----> [async-mutex]
_ExecutionManager --> _Config
_ExecutionManager --> _MempoolManager
_JsonRpcHttpServer --> _Config
_JsonRpcHttpServer ----> [cors]
_JsonRpcHttpServer ----> [express]
_JsonRpcHttpServer ----> [helmet]
_JsonRpcHttpServer --> _ProviderService
_JsonRpcHttpServer --> _RpcMethodHandler_ts
_MempoolManager ----> [async-mutex]
_MempoolManager --> _Config
_MempoolManager --> _Types
_ProviderService --> _Config
_RpcMethodHandler_ts --> _Debug
_RpcMethodHandler_ts --> _Eth
_Types ----> [ethers]
(utils) ---> [ethers]

@enduml


' View and edit on https://arkit.pro
]]></script></g></svg>