<?xml version="1.0" encoding="UTF-8" standalone="no"?><svg xmlns="http://www.w3.org/2000/svg" xmlns:xlink="http://www.w3.org/1999/xlink" contentScriptType="application/ecmascript" contentStyleType="text/css" height="512px" preserveAspectRatio="none" style="width:665px;height:512px;" version="1.1" viewBox="0 0 665 512" width="665px" zoomAndPan="magnify"><defs/><g><!--MD5=[a6f11bb19cee6b13000111f5ad685e8b]
cluster Dependencies--><path d="M44,418 L146,418 A4.5,4.5 0 0 1 149,421 L156,437.9688 L650,437.9688 A3,3 0 0 1 653,440.9688 L653,497 A3,3 0 0 1 650,500 L44,500 A3,3 0 0 1 41,497 L41,421 A3,3 0 0 1 44,418 " fill="#FFFFFF" style="stroke: #000000; stroke-width: 1.5;"/><line style="stroke: #000000; stroke-width: 1.5;" x1="41" x2="156" y1="437.9688" y2="437.9688"/><text fill="#000000" font-family="Tahoma, sans-serif" font-size="12" font-weight="bold" lengthAdjust="spacingAndGlyphs" textLength="102" x="45" y="431.1387">Dependencies</text><!--MD5=[a3eeb38a3c88bc709a72fd619cafec5a]
entity async-mutex--><rect fill="#F8F8F8" height="33.9688" rx="3" ry="3" style="stroke: #383838; stroke-width: 1.0;" width="99" x="241.5" y="450"/><rect fill="#F8F8F8" height="5" style="stroke: #383838; stroke-width: 1.0;" width="10" x="236.5" y="455"/><rect fill="#F8F8F8" height="5" style="stroke: #383838; stroke-width: 1.0;" width="10" x="236.5" y="473.9688"/><text fill="#000000" font-family="Tahoma, sans-serif" font-size="12" lengthAdjust="spacingAndGlyphs" textLength="79" x="251.5" y="471.1387">async-mutex</text><!--MD5=[247c11c248b6a71ee5eacb9cd05e1b38]
entity commander--><rect fill="#F8F8F8" height="33.9688" rx="3" ry="3" style="stroke: #383838; stroke-width: 1.0;" width="93" x="134.5" y="450"/><rect fill="#F8F8F8" height="5" style="stroke: #383838; stroke-width: 1.0;" width="10" x="129.5" y="455"/><rect fill="#F8F8F8" height="5" style="stroke: #383838; stroke-width: 1.0;" width="10" x="129.5" y="473.9688"/><text fill="#000000" font-family="Tahoma, sans-serif" font-size="12" lengthAdjust="spacingAndGlyphs" textLength="73" x="144.5" y="471.1387">commander</text><!--MD5=[564a394d57ce3e0a92ac6699042b9ef1]
entity cors--><rect fill="#F8F8F8" height="33.9688" rx="3" ry="3" style="stroke: #383838; stroke-width: 1.0;" width="47" x="429.5" y="450"/><rect fill="#F8F8F8" height="5" style="stroke: #383838; stroke-width: 1.0;" width="10" x="424.5" y="455"/><rect fill="#F8F8F8" height="5" style="stroke: #383838; stroke-width: 1.0;" width="10" x="424.5" y="473.9688"/><text fill="#000000" font-family="Tahoma, sans-serif" font-size="12" lengthAdjust="spacingAndGlyphs" textLength="27" x="439.5" y="471.1387">cors</text><!--MD5=[b84d8dbe3cf51322a9824c71d57d534f]
entity dotenv--><rect fill="#F8F8F8" height="33.9688" rx="3" ry="3" style="stroke: #383838; stroke-width: 1.0;" width="63" x="57.5" y="450"/><rect fill="#F8F8F8" height="5" style="stroke: #383838; stroke-width: 1.0;" width="10" x="52.5" y="455"/><rect fill="#F8F8F8" height="5" style="stroke: #383838; stroke-width: 1.0;" width="10" x="52.5" y="473.9688"/><text fill="#000000" font-family="Tahoma, sans-serif" font-size="12" lengthAdjust="spacingAndGlyphs" textLength="43" x="67.5" y="471.1387">dotenv</text><!--MD5=[78147715a61726ca0d0a20352beeced2]
entity ethers--><rect fill="#F8F8F8" height="33.9688" rx="3" ry="3" style="stroke: #383838; stroke-width: 1.0;" width="60" x="355" y="450"/><rect fill="#F8F8F8" height="5" style="stroke: #383838; stroke-width: 1.0;" width="10" x="350" y="455"/><rect fill="#F8F8F8" height="5" style="stroke: #383838; stroke-width: 1.0;" width="10" x="350" y="473.9688"/><text fill="#000000" font-family="Tahoma, sans-serif" font-size="12" lengthAdjust="spacingAndGlyphs" textLength="40" x="365" y="471.1387">ethers</text><!--MD5=[6d151e53a42aadf92577082572a20d90]
entity express--><rect fill="#F8F8F8" height="33.9688" rx="3" ry="3" style="stroke: #383838; stroke-width: 1.0;" width="70" x="491" y="450"/><rect fill="#F8F8F8" height="5" style="stroke: #383838; stroke-width: 1.0;" width="10" x="486" y="455"/><rect fill="#F8F8F8" height="5" style="stroke: #383838; stroke-width: 1.0;" width="10" x="486" y="473.9688"/><text fill="#000000" font-family="Tahoma, sans-serif" font-size="12" lengthAdjust="spacingAndGlyphs" textLength="50" x="501" y="471.1387">express</text><!--MD5=[380c1750e2aa5aeed8d38b1a8d057635]
entity helmet--><rect fill="#F8F8F8" height="33.9688" rx="3" ry="3" style="stroke: #383838; stroke-width: 1.0;" width="62" x="575" y="450"/><rect fill="#F8F8F8" height="5" style="stroke: #383838; stroke-width: 1.0;" width="10" x="570" y="455"/><rect fill="#F8F8F8" height="5" style="stroke: #383838; stroke-width: 1.0;" width="10" x="570" y="473.9688"/><text fill="#000000" font-family="Tahoma, sans-serif" font-size="12" lengthAdjust="spacingAndGlyphs" textLength="42" x="585" y="471.1387">helmet</text><ellipse cx="66.2193" cy="20.8774" fill="#F8F8F8" rx="44.7193" ry="12.8774" style="stroke: #383838; stroke-width: 0.5;"/><text fill="#000000" font-family="Tahoma, sans-serif" font-size="12" font-weight="bold" lengthAdjust="spacingAndGlyphs" textLength="59" x="36.7193" y="24.3618">execute</text><!--MD5=[e31d130a28686bdd2d8307a742f15c8d]
entity _Config--><rect fill="#F8F8F8" height="33.9688" rx="3" ry="3" style="stroke: #000000; stroke-width: 0.5;" width="59" x="143.5" y="310"/><text fill="#000000" font-family="Tahoma, sans-serif" font-size="12" lengthAdjust="spacingAndGlyphs" textLength="39" x="153.5" y="331.1387">Config</text><!--MD5=[d44beb5101098d448dec68638315d03d]
entity _DebugMethodService--><rect fill="#F8F8F8" height="33.9688" rx="3" ry="3" style="stroke: #000000; stroke-width: 0.5;" width="152" x="236" y="186"/><text fill="#000000" font-family="Tahoma, sans-serif" font-size="12" lengthAdjust="spacingAndGlyphs" textLength="132" x="246" y="207.1387">DebugMethodService</text><!--MD5=[fb40ed61b41f2b3652817daf9440b90e]
entity _ExecutionManager--><rect fill="#F8F8F8" height="33.9688" rx="3" ry="3" style="stroke: #000000; stroke-width: 0.5;" width="133" x="88.5" y="186"/><text fill="#000000" font-family="Tahoma, sans-serif" font-size="12" lengthAdjust="spacingAndGlyphs" textLength="113" x="98.5" y="207.1387">ExecutionManager</text><!--MD5=[bfbdfac5fa9726ec406701361bc51456]
entity _JsonRpcHttpServer--><rect fill="#F8F8F8" height="33.9688" rx="3" ry="3" style="stroke: #000000; stroke-width: 0.5;" width="137" x="515.5" y="62"/><text fill="#000000" font-family="Tahoma, sans-serif" font-size="12" lengthAdjust="spacingAndGlyphs" textLength="117" x="525.5" y="83.1387">JsonRpcHttpServer</text><!--MD5=[13fb64536bd6651b287702c1cab19597]
entity _MempoolManager--><rect fill="#F8F8F8" height="33.9688" rx="3" ry="3" style="stroke: #000000; stroke-width: 0.5;" width="130" x="247" y="248"/><text fill="#000000" font-family="Tahoma, sans-serif" font-size="12" lengthAdjust="spacingAndGlyphs" textLength="110" x="257" y="269.1387">MempoolManager</text><!--MD5=[e790762cfeaee1133945f88de9fb8fc2]
entity _RpcRequestHandler--><rect fill="#F8F8F8" height="33.9688" rx="3" ry="3" style="stroke: #000000; stroke-width: 0.5;" width="144" x="410" y="124"/><text fill="#000000" font-family="Tahoma, sans-serif" font-size="12" lengthAdjust="spacingAndGlyphs" textLength="124" x="420" y="145.1387">RpcRequestHandler</text><!--MD5=[3095bf365a94611fa6d04f4eb27c6bb9]
entity _Types--><rect fill="#F8F8F8" height="33.9688" rx="3" ry="3" style="stroke: #000000; stroke-width: 0.5;" width="57" x="356.5" y="310"/><text fill="#000000" font-family="Tahoma, sans-serif" font-size="12" lengthAdjust="spacingAndGlyphs" textLength="37" x="366.5" y="331.1387">Types</text><!--MD5=[d1a8471c763455a5aa68ff32f1337d23]
entity _UserOpMethodService--><rect fill="#F8F8F8" height="33.9688" rx="3" ry="3" style="stroke: #000000; stroke-width: 0.5;" width="159" x="402.5" y="186"/><text fill="#000000" font-family="Tahoma, sans-serif" font-size="12" lengthAdjust="spacingAndGlyphs" textLength="139" x="412.5" y="207.1387">UserOpMethodService</text><!--MD5=[c41180c415d29103b5e227a40ba5ab7e]
link _Config to commander--><path d="M173.933,344.1 C175.371,368.896 178.129,416.4702 179.741,444.287 " fill="none" id="_Config-&gt;commander" style="stroke: #000000; stroke-width: 0.5;"/><polygon fill="#000000" points="180.048,449.5744,183.5203,440.3579,179.7586,444.5828,175.5337,440.821,180.048,449.5744" style="stroke: #000000; stroke-width: 0.5;"/><!--MD5=[14f69d4363b59eafc78e7bd0317bf1ef]
link _DebugMethodService to _MempoolManager--><path d="M312,220.079 C312,227.073 312,235.365 312,242.85 " fill="none" id="_DebugMethodService-&gt;_MempoolManager" style="stroke: #000000; stroke-width: 0.5;"/><polygon fill="#000000" points="312,247.877,316,238.877,312,242.877,308,238.877,312,247.877" style="stroke: #000000; stroke-width: 0.5;"/><!--MD5=[eae32f6aa14f5271fff3f72a78be3cc3]
link <b>execute</b> to commander--><path d="M60.7744,34.142 C52.1792,55.25 36,100.261 36,140 C36,140 36,140 36,373 C36,416.6597 90.8403,385.533 127,410 C141.673,419.9282 155.487,434.3846 165.469,446.1223 " fill="none" id="&lt;b&gt;execute&lt;/b&gt;-&gt;commander" style="stroke: #000000; stroke-width: 1.0;"/><polygon fill="#000000" points="168.704,449.9881,165.996,440.5188,165.4953,446.1535,159.8607,445.6528,168.704,449.9881" style="stroke: #000000; stroke-width: 1.0;"/><!--MD5=[24d0750e6e7373768d47548d73b6d4ef]
link <b>execute</b> to _Config--><path d="M66,34.061 C66,55.416 66,101.281 66,140 C66,140 66,140 66,204 C66,249.514 108.613,286.17 140.055,307.021 " fill="none" id="&lt;b&gt;execute&lt;/b&gt;-&gt;_Config" style="stroke: #000000; stroke-width: 1.0;"/><polygon fill="#000000" points="144.607,309.982,139.2447,301.7209,140.416,307.2552,134.8818,308.4265,144.607,309.982" style="stroke: #000000; stroke-width: 1.0;"/><!--MD5=[259d20b878ea2d2fdafc8874a6232cf9]
link <b>execute</b> to dotenv--><path d="M50.6352,33.37 C41.8777,40.631 31.4049,50.77 25,62 C7.3226,92.993 6,104.32 6,140 C6,140 6,140 6,373 C6,404.782 33.315,430.705 56.6055,447.0322 " fill="none" id="&lt;b&gt;execute&lt;/b&gt;-&gt;dotenv" style="stroke: #000000; stroke-width: 1.0;"/><polygon fill="#000000" points="60.9,449.9684,55.728,441.5868,56.7725,447.1464,51.2129,448.1909,60.9,449.9684" style="stroke: #000000; stroke-width: 1.0;"/><!--MD5=[cfa98425fbd864e957dab31f2b4662c3]
link <b>execute</b> to _ExecutionManager--><path d="M71.9777,34.09 C86.8976,64.265 125.919,143.184 144.66,181.088 " fill="none" id="&lt;b&gt;execute&lt;/b&gt;-&gt;_ExecutionManager" style="stroke: #000000; stroke-width: 1.0;"/><polygon fill="#000000" points="147.058,185.937,146.6523,176.0965,144.8408,181.4555,139.4818,179.644,147.058,185.937" style="stroke: #000000; stroke-width: 1.0;"/><!--MD5=[99211a0848547cdfe74c601bba89b6b2]
link <b>execute</b> to _JsonRpcHttpServer--><path d="M106.647,26.394 C193.749,35.811 399.46,58.05 510.261,70.028 " fill="none" id="&lt;b&gt;execute&lt;/b&gt;-&gt;_JsonRpcHttpServer" style="stroke: #000000; stroke-width: 1.0;"/><polygon fill="#000000" points="515.464,70.591,506.9458,65.6474,510.4929,70.0539,506.0864,73.6011,515.464,70.591" style="stroke: #000000; stroke-width: 1.0;"/><!--MD5=[5b9e0e9dff0766e3d998027f40912159]
link _ExecutionManager to async-mutex--><path d="M171.589,220.078 C192.289,241.947 225,283.266 225,326 C225,326 225,326 225,373 C225,402.45 247.283,429.0752 265.954,446.215 " fill="none" id="_ExecutionManager-&gt;async-mutex" style="stroke: #000000; stroke-width: 0.5;"/><polygon fill="#000000" points="270.117,449.9382,266.0746,440.9572,266.3899,446.6052,260.7418,446.9206,270.117,449.9382" style="stroke: #000000; stroke-width: 0.5;"/><!--MD5=[6cbe62c9951cc8ee8d97933a9731483b]
link _ExecutionManager to _MempoolManager--><path d="M197.073,220.079 C218.1,228.115 243.607,237.862 265.244,246.131 " fill="none" id="_ExecutionManager-&gt;_MempoolManager" style="stroke: #000000; stroke-width: 0.5;"/><polygon fill="#000000" points="270.083,247.981,263.1027,241.033,265.4121,246.1969,260.2482,248.5064,270.083,247.981" style="stroke: #000000; stroke-width: 0.5;"/><!--MD5=[874e5c9d1ef39f877d69e6c7af67d374]
link _JsonRpcHttpServer to cors--><path d="M584,96.182 C584,119.546 584,164.087 584,202 C584,202 584,202 584,373 C584,420.3891 519.944,379.117 484,410 C473.159,419.3147 465.386,433.4063 460.335,445.1231 " fill="none" id="_JsonRpcHttpServer-&gt;cors" style="stroke: #000000; stroke-width: 0.5;"/><polygon fill="#000000" points="458.336,449.9783,465.4617,443.1794,460.2399,445.355,458.0644,440.1332,458.336,449.9783" style="stroke: #000000; stroke-width: 0.5;"/><!--MD5=[3db1f688a9aa1bed2435ee749bdee33a]
link _JsonRpcHttpServer to express--><path d="M590.658,96.263 C599.496,119.359 614,163.175 614,202 C614,202 614,202 614,373 C614,388.409 607.365,392.805 595,402 C584.957,409.469 578.275,402.854 568,410 C554.964,419.0659 544.294,433.4649 536.971,445.3916 " fill="none" id="_JsonRpcHttpServer-&gt;express" style="stroke: #000000; stroke-width: 0.5;"/><polygon fill="#000000" points="534.234,449.9923,542.274,444.3038,536.791,445.6956,535.3993,440.2126,534.234,449.9923" style="stroke: #000000; stroke-width: 0.5;"/><!--MD5=[bcc210547358cbdef60168860a1aa5c1]
link _JsonRpcHttpServer to helmet--><path d="M603.055,96.333 C610.908,103.998 619.45,113.707 625,124 C641.934,155.406 644,166.32 644,202 C644,202 644,202 644,373 C644,399.37 630.746,427.0292 619.894,445.258 " fill="none" id="_JsonRpcHttpServer-&gt;helmet" style="stroke: #000000; stroke-width: 0.5;"/><polygon fill="#000000" points="617.196,449.6827,625.2969,444.0813,619.7992,445.4138,618.4666,439.9162,617.196,449.6827" style="stroke: #000000; stroke-width: 0.5;"/><!--MD5=[c2446a151ba79f955549bf3f7b49f8d8]
link _JsonRpcHttpServer to _RpcRequestHandler--><path d="M556.666,96.079 C543.517,103.813 527.673,113.134 513.968,121.195 " fill="none" id="_JsonRpcHttpServer-&gt;_RpcRequestHandler" style="stroke: #000000; stroke-width: 0.5;"/><polygon fill="#000000" points="509.41,123.877,519.1954,122.7608,513.7195,121.3416,515.1387,115.8657,509.41,123.877" style="stroke: #000000; stroke-width: 0.5;"/><!--MD5=[181f5d4efc60a26821db1953e8738d01]
link _MempoolManager to async-mutex--><path d="M310.317,282.029 C306.554,317.868 297.458,404.491 293.23,444.76 " fill="none" id="_MempoolManager-&gt;async-mutex" style="stroke: #000000; stroke-width: 0.5;"/><polygon fill="#000000" points="292.691,449.8949,297.609,441.3618,293.2131,444.9222,289.6527,440.5264,292.691,449.8949" style="stroke: #000000; stroke-width: 0.5;"/><!--MD5=[1e7aa635d92d8ffad2d0cac5e95be814]
link _MempoolManager to _Config--><path d="M274.751,282.079 C253.905,291.077 228.086,302.222 207.672,311.034 " fill="none" id="_MempoolManager-&gt;_Config" style="stroke: #000000; stroke-width: 0.5;"/><polygon fill="#000000" points="202.872,313.105,212.7203,313.2116,207.4628,311.1239,209.5505,305.8663,202.872,313.105" style="stroke: #000000; stroke-width: 0.5;"/><!--MD5=[4cd7a5798fc78530c7f561ecaedc6751]
link _MempoolManager to _Types--><path d="M331.563,282.079 C340.727,289.611 351.722,298.649 361.35,306.562 " fill="none" id="_MempoolManager-&gt;_Types" style="stroke: #000000; stroke-width: 0.5;"/><polygon fill="#000000" points="365.383,309.877,360.971,301.0716,361.5207,306.7017,355.8906,307.2514,365.383,309.877" style="stroke: #000000; stroke-width: 0.5;"/><!--MD5=[2dfaa3db4435b5baa0c021b6a5022c87]
link _RpcRequestHandler to _DebugMethodService--><path d="M436.443,158.079 C413.58,166.148 385.824,175.944 362.333,184.236 " fill="none" id="_RpcRequestHandler-&gt;_DebugMethodService" style="stroke: #000000; stroke-width: 0.5;"/><polygon fill="#000000" points="357.388,185.981,367.2062,186.7577,362.103,184.317,364.5437,179.2138,357.388,185.981" style="stroke: #000000; stroke-width: 0.5;"/><!--MD5=[3f01bbdb4c43ad16100297fe1ab8f3f8]
link _RpcRequestHandler to _UserOpMethodService--><path d="M482,158.079 C482,165.073 482,173.365 482,180.85 " fill="none" id="_RpcRequestHandler-&gt;_UserOpMethodService" style="stroke: #000000; stroke-width: 0.5;"/><polygon fill="#000000" points="482,185.877,486,176.877,482,180.877,478,176.877,482,185.877" style="stroke: #000000; stroke-width: 0.5;"/><!--MD5=[8bdb3dbc7cc0e4e4e79aa45e0fae3f3d]
link _Types to ethers--><path d="M385,344.1 C385,368.896 385,416.4702 385,444.287 " fill="none" id="_Types-&gt;ethers" style="stroke: #000000; stroke-width: 0.5;"/><polygon fill="#000000" points="385,449.5744,389,440.5744,385,444.5744,381,440.5744,385,449.5744" style="stroke: #000000; stroke-width: 0.5;"/><!--MD5=[e6f84b24a83c61102fe43712bf3884a2]
link _UserOpMethodService to _MempoolManager--><path d="M436.443,220.079 C413.58,228.148 385.824,237.944 362.333,246.236 " fill="none" id="_UserOpMethodService-&gt;_MempoolManager" style="stroke: #000000; stroke-width: 0.5;"/><polygon fill="#000000" points="357.388,247.981,367.2062,248.7577,362.103,246.317,364.5437,241.2138,357.388,247.981" style="stroke: #000000; stroke-width: 0.5;"/><!--MD5=[575fd8a637ca95f137777b45ed589c76]
link _UserOpMethodService to _Types--><path d="M469.119,220.201 C451.581,242.259 420.194,281.735 401.116,305.73 " fill="none" id="_UserOpMethodService-&gt;_Types" style="stroke: #000000; stroke-width: 0.5;"/><polygon fill="#000000" points="397.934,309.732,406.6666,305.1776,401.0461,305.8186,400.4051,300.1982,397.934,309.732" style="stroke: #000000; stroke-width: 0.5;"/><script type="text/plantuml"><![CDATA[MD5=[8f9d3cbbad3c272456bcb0019aabbddf]
@startuml

scale max 1920 width
top to bottom direction

skinparam nodesep 14
skinparam ranksep 28
skinparam monochrome true
skinparam shadowing false
skinparam defaultFontName Tahoma
skinparam defaultFontSize 12
skinparam roundCorner 6
skinparam dpi 150
skinparam arrowColor black
skinparam arrowThickness 0.5
skinparam packageTitleAlignment left

skinparam usecase {
  borderThickness 0.5
}

skinparam rectangle {
  borderThickness 0.5
}

skinparam component {
  borderThickness 1
}


(<b>execute</b>)
rectangle "Config" as _Config
rectangle "DebugMethodService" as _DebugMethodService
rectangle "ExecutionManager" as _ExecutionManager
rectangle "JsonRpcHttpServer" as _JsonRpcHttpServer
rectangle "MempoolManager" as _MempoolManager
rectangle "RpcRequestHandler" as _RpcRequestHandler
rectangle "Types" as _Types
rectangle "UserOpMethodService" as _UserOpMethodService

package "Dependencies" {
  [async-mutex]
  [commander]
  [cors]
  [dotenv]
  [ethers]
  [express]
  [helmet]
}

_Config ----> [commander]
_DebugMethodService --> _MempoolManager
(<b>execute</b>) ---[thickness=1]> [commander]
(<b>execute</b>) -[thickness=1]> _Config
(<b>execute</b>) ---[thickness=1]> [dotenv]
(<b>execute</b>) -[thickness=1]> _ExecutionManager
(<b>execute</b>) --[thickness=1]> _JsonRpcHttpServer
_ExecutionManager ----> [async-mutex]
_ExecutionManager --> _MempoolManager
_JsonRpcHttpServer ----> [cors]
_JsonRpcHttpServer ----> [express]
_JsonRpcHttpServer ----> [helmet]
_JsonRpcHttpServer --> _RpcRequestHandler
_MempoolManager ----> [async-mutex]
_MempoolManager --> _Config
_MempoolManager --> _Types
_RpcRequestHandler --> _DebugMethodService
_RpcRequestHandler --> _UserOpMethodService
_Types ----> [ethers]
_UserOpMethodService --> _MempoolManager
_UserOpMethodService --> _Types

@enduml


' View and edit on https://arkit.pro
]]></script></g></svg>