<?xml version="1.0" encoding="UTF-8" standalone="no"?><svg xmlns="http://www.w3.org/2000/svg" xmlns:xlink="http://www.w3.org/1999/xlink" contentScriptType="application/ecmascript" contentStyleType="text/css" height="519px" preserveAspectRatio="none" style="width:646px;height:519px;" version="1.1" viewBox="0 0 646 519" width="646px" zoomAndPan="magnify"><defs/><g><!--MD5=[a6f11bb19cee6b13000111f5ad685e8b]
cluster Dependencies--><path d="M25,425 L127,425 A4.5,4.5 0 0 1 130,428 L137,444.9688 L631,444.9688 A3,3 0 0 1 634,447.9688 L634,504 A3,3 0 0 1 631,507 L25,507 A3,3 0 0 1 22,504 L22,428 A3,3 0 0 1 25,425 " fill="#FFFFFF" style="stroke: #000000; stroke-width: 1.5;"/><line style="stroke: #000000; stroke-width: 1.5;" x1="22" x2="137" y1="444.9688" y2="444.9688"/><text fill="#000000" font-family="Tahoma, sans-serif" font-size="12" font-weight="bold" lengthAdjust="spacingAndGlyphs" textLength="102" x="26" y="438.1387">Dependencies</text><!--MD5=[a3eeb38a3c88bc709a72fd619cafec5a]
entity async-mutex--><rect fill="#F8F8F8" height="33.9688" rx="3" ry="3" style="stroke: #383838; stroke-width: 1.0;" width="99" x="115.5" y="457"/><rect fill="#F8F8F8" height="5" style="stroke: #383838; stroke-width: 1.0;" width="10" x="110.5" y="462"/><rect fill="#F8F8F8" height="5" style="stroke: #383838; stroke-width: 1.0;" width="10" x="110.5" y="480.9688"/><text fill="#000000" font-family="Tahoma, sans-serif" font-size="12" lengthAdjust="spacingAndGlyphs" textLength="79" x="125.5" y="478.1387">async-mutex</text><!--MD5=[247c11c248b6a71ee5eacb9cd05e1b38]
entity commander--><rect fill="#F8F8F8" height="33.9688" rx="3" ry="3" style="stroke: #383838; stroke-width: 1.0;" width="93" x="228.5" y="457"/><rect fill="#F8F8F8" height="5" style="stroke: #383838; stroke-width: 1.0;" width="10" x="223.5" y="462"/><rect fill="#F8F8F8" height="5" style="stroke: #383838; stroke-width: 1.0;" width="10" x="223.5" y="480.9688"/><text fill="#000000" font-family="Tahoma, sans-serif" font-size="12" lengthAdjust="spacingAndGlyphs" textLength="73" x="238.5" y="478.1387">commander</text><!--MD5=[564a394d57ce3e0a92ac6699042b9ef1]
entity cors--><rect fill="#F8F8F8" height="33.9688" rx="3" ry="3" style="stroke: #383838; stroke-width: 1.0;" width="47" x="486.5" y="457"/><rect fill="#F8F8F8" height="5" style="stroke: #383838; stroke-width: 1.0;" width="10" x="481.5" y="462"/><rect fill="#F8F8F8" height="5" style="stroke: #383838; stroke-width: 1.0;" width="10" x="481.5" y="480.9688"/><text fill="#000000" font-family="Tahoma, sans-serif" font-size="12" lengthAdjust="spacingAndGlyphs" textLength="27" x="496.5" y="478.1387">cors</text><!--MD5=[b84d8dbe3cf51322a9824c71d57d534f]
entity dotenv--><rect fill="#F8F8F8" height="33.9688" rx="3" ry="3" style="stroke: #383838; stroke-width: 1.0;" width="63" x="38.5" y="457"/><rect fill="#F8F8F8" height="5" style="stroke: #383838; stroke-width: 1.0;" width="10" x="33.5" y="462"/><rect fill="#F8F8F8" height="5" style="stroke: #383838; stroke-width: 1.0;" width="10" x="33.5" y="480.9688"/><text fill="#000000" font-family="Tahoma, sans-serif" font-size="12" lengthAdjust="spacingAndGlyphs" textLength="43" x="48.5" y="478.1387">dotenv</text><!--MD5=[78147715a61726ca0d0a20352beeced2]
entity ethers--><rect fill="#F8F8F8" height="33.9688" rx="3" ry="3" style="stroke: #383838; stroke-width: 1.0;" width="60" x="336" y="457"/><rect fill="#F8F8F8" height="5" style="stroke: #383838; stroke-width: 1.0;" width="10" x="331" y="462"/><rect fill="#F8F8F8" height="5" style="stroke: #383838; stroke-width: 1.0;" width="10" x="331" y="480.9688"/><text fill="#000000" font-family="Tahoma, sans-serif" font-size="12" lengthAdjust="spacingAndGlyphs" textLength="40" x="346" y="478.1387">ethers</text><!--MD5=[6d151e53a42aadf92577082572a20d90]
entity express--><rect fill="#F8F8F8" height="33.9688" rx="3" ry="3" style="stroke: #383838; stroke-width: 1.0;" width="70" x="548" y="457"/><rect fill="#F8F8F8" height="5" style="stroke: #383838; stroke-width: 1.0;" width="10" x="543" y="462"/><rect fill="#F8F8F8" height="5" style="stroke: #383838; stroke-width: 1.0;" width="10" x="543" y="480.9688"/><text fill="#000000" font-family="Tahoma, sans-serif" font-size="12" lengthAdjust="spacingAndGlyphs" textLength="50" x="558" y="478.1387">express</text><!--MD5=[380c1750e2aa5aeed8d38b1a8d057635]
entity helmet--><rect fill="#F8F8F8" height="33.9688" rx="3" ry="3" style="stroke: #383838; stroke-width: 1.0;" width="62" x="410" y="457"/><rect fill="#F8F8F8" height="5" style="stroke: #383838; stroke-width: 1.0;" width="10" x="405" y="462"/><rect fill="#F8F8F8" height="5" style="stroke: #383838; stroke-width: 1.0;" width="10" x="405" y="480.9688"/><text fill="#000000" font-family="Tahoma, sans-serif" font-size="12" lengthAdjust="spacingAndGlyphs" textLength="42" x="420" y="478.1387">helmet</text><ellipse cx="208.2193" cy="20.8774" fill="#F8F8F8" rx="44.7193" ry="12.8774" style="stroke: #383838; stroke-width: 0.5;"/><text fill="#000000" font-family="Tahoma, sans-serif" font-size="12" font-weight="bold" lengthAdjust="spacingAndGlyphs" textLength="59" x="178.7193" y="24.3618">execute</text><!--MD5=[e31d130a28686bdd2d8307a742f15c8d]
entity _Config--><rect fill="#F8F8F8" height="33.9688" rx="3" ry="3" style="stroke: #000000; stroke-width: 0.5;" width="59" x="231.5" y="315"/><text fill="#000000" font-family="Tahoma, sans-serif" font-size="12" lengthAdjust="spacingAndGlyphs" textLength="39" x="241.5" y="336.1387">Config</text><!--MD5=[4d79e7d2cf9a57eda717a385fa9eefa7]
entity _Debug--><rect fill="#F8F8F8" height="33.9688" rx="3" ry="3" style="stroke: #000000; stroke-width: 0.5;" width="60" x="318" y="189"/><text fill="#000000" font-family="Tahoma, sans-serif" font-size="12" lengthAdjust="spacingAndGlyphs" textLength="40" x="328" y="210.1387">Debug</text><!--MD5=[9fbdc8c1c29a3a6defee5673dec63f06]
entity _Eth--><rect fill="#F8F8F8" height="33.9688" rx="3" ry="3" style="stroke: #000000; stroke-width: 0.5;" width="39" x="392.5" y="189"/><text fill="#000000" font-family="Tahoma, sans-serif" font-size="12" lengthAdjust="spacingAndGlyphs" textLength="19" x="402.5" y="210.1387">Eth</text><!--MD5=[fb40ed61b41f2b3652817daf9440b90e]
entity _ExecutionManager--><rect fill="#F8F8F8" height="33.9688" rx="3" ry="3" style="stroke: #000000; stroke-width: 0.5;" width="133" x="75.5" y="189"/><text fill="#000000" font-family="Tahoma, sans-serif" font-size="12" lengthAdjust="spacingAndGlyphs" textLength="113" x="85.5" y="210.1387">ExecutionManager</text><!--MD5=[bfbdfac5fa9726ec406701361bc51456]
entity _JsonRpcHttpServer--><rect fill="#F8F8F8" height="33.9688" rx="3" ry="3" style="stroke: #000000; stroke-width: 0.5;" width="137" x="402.5" y="63"/><text fill="#000000" font-family="Tahoma, sans-serif" font-size="12" lengthAdjust="spacingAndGlyphs" textLength="117" x="412.5" y="84.1387">JsonRpcHttpServer</text><!--MD5=[13fb64536bd6651b287702c1cab19597]
entity _MempoolManager--><rect fill="#F8F8F8" height="33.9688" rx="3" ry="3" style="stroke: #000000; stroke-width: 0.5;" width="130" x="283" y="252"/><text fill="#000000" font-family="Tahoma, sans-serif" font-size="12" lengthAdjust="spacingAndGlyphs" textLength="110" x="293" y="273.1387">MempoolManager</text><!--MD5=[4fceac381ed5f1e36664ded7849570b4]
entity _RpcMethodHandler_ts--><rect fill="#F8F8F8" height="33.9688" rx="3" ry="3" style="stroke: #000000; stroke-width: 0.5;" width="153" x="283.5" y="126"/><text fill="#000000" font-family="Tahoma, sans-serif" font-size="12" lengthAdjust="spacingAndGlyphs" textLength="133" x="293.5" y="147.1387">RpcMethodHandler.ts</text><!--MD5=[3095bf365a94611fa6d04f4eb27c6bb9]
entity _Types--><rect fill="#F8F8F8" height="33.9688" rx="3" ry="3" style="stroke: #000000; stroke-width: 0.5;" width="57" x="343.5" y="315"/><text fill="#000000" font-family="Tahoma, sans-serif" font-size="12" lengthAdjust="spacingAndGlyphs" textLength="37" x="353.5" y="336.1387">Types</text><ellipse cx="471.1777" cy="142.8774" fill="#F8F8F8" rx="20.6777" ry="12.8774" style="stroke: #383838; stroke-width: 0.5;"/><text fill="#000000" font-family="Tahoma, sans-serif" font-size="12" lengthAdjust="spacingAndGlyphs" textLength="25" x="458.6777" y="146.3618">utils</text><!--MD5=[c41180c415d29103b5e227a40ba5ab7e]
link _Config to commander--><path d="M262.606,349.06 C265.135,374.348 270.047,423.466 272.868,451.6815 " fill="none" id="_Config-&gt;commander" style="stroke: #000000; stroke-width: 0.5;"/><polygon fill="#000000" points="273.37,456.6963,276.4541,447.3428,272.8722,451.7211,268.4938,448.1393,273.37,456.6963" style="stroke: #000000; stroke-width: 0.5;"/><!--MD5=[80d4bba1d0f3fbd931d87eaee7419855]
link _Config to ethers--><path d="M274.475,349.127 C288.283,365.827 310.191,392.817 328,417 C336.413,428.4239 345.343,441.5299 352.432,452.1896 " fill="none" id="_Config-&gt;ethers" style="stroke: #000000; stroke-width: 0.5;"/><polygon fill="#000000" points="355.35,456.5963,353.7153,446.8841,352.5891,452.4277,347.0455,451.3015,355.35,456.5963" style="stroke: #000000; stroke-width: 0.5;"/><!--MD5=[859e9d88074062cf94f4e7a655b87d97]
link _Debug to _MempoolManager--><path d="M348,223.027 C348,230.255 348,238.894 348,246.659 " fill="none" id="_Debug-&gt;_MempoolManager" style="stroke: #000000; stroke-width: 0.5;"/><polygon fill="#000000" points="348,251.868,352,242.868,348,246.868,344,242.868,348,251.868" style="stroke: #000000; stroke-width: 0.5;"/><!--MD5=[f67e06f9eb6ece0958538cf11c18feb1]
link _Eth to _MempoolManager--><path d="M395.185,223.027 C387.164,230.672 377.487,239.895 368.989,247.994 " fill="none" id="_Eth-&gt;_MempoolManager" style="stroke: #000000; stroke-width: 0.5;"/><polygon fill="#000000" points="364.925,251.868,374.1991,248.5526,368.5438,248.4178,368.6787,242.7625,364.925,251.868" style="stroke: #000000; stroke-width: 0.5;"/><!--MD5=[7e63591ccd2719c9340ae1618341bb5c]
link _Eth to _Types--><path d="M418.132,223.149 C423.384,239.639 428.823,265.635 420,286 C415.746,295.818 408.179,304.476 400.293,311.509 " fill="none" id="_Eth-&gt;_Types" style="stroke: #000000; stroke-width: 0.5;"/><polygon fill="#000000" points="396.408,314.828,405.8487,312.0219,400.2091,311.5797,400.6514,305.9402,396.408,314.828" style="stroke: #000000; stroke-width: 0.5;"/><!--MD5=[24d0750e6e7373768d47548d73b6d4ef]
link <b>execute</b> to _Config--><path d="M211.902,34.118 C218.464,55.607 231,101.908 231,142 C231,142 231,142 231,207 C231,242.583 234.778,251.632 244,286 C246.11,293.864 249.079,302.266 251.946,309.654 " fill="none" id="&lt;b&gt;execute&lt;/b&gt;-&gt;_Config" style="stroke: #000000; stroke-width: 1.0;"/><polygon fill="#000000" points="253.903,314.589,254.3036,304.7483,252.0599,309.9411,246.867,307.6973,253.903,314.589" style="stroke: #000000; stroke-width: 1.0;"/><!--MD5=[259d20b878ea2d2fdafc8874a6232cf9]
link <b>execute</b> to dotenv--><path d="M177.377,30.516 C132.205,45.162 53,79.722 53,142 C53,142 53,142 53,379 C53,404.315 59.0444,432.8626 63.9249,451.7864 " fill="none" id="&lt;b&gt;execute&lt;/b&gt;-&gt;dotenv" style="stroke: #000000; stroke-width: 1.0;"/><polygon fill="#000000" points="65.2646,456.858,66.8334,447.1349,63.9876,452.0238,59.0987,449.178,65.2646,456.858" style="stroke: #000000; stroke-width: 1.0;"/><!--MD5=[cfa98425fbd864e957dab31f2b4662c3]
link <b>execute</b> to _ExecutionManager--><path d="M203.67,34.007 C192.664,64.523 163.509,145.361 149.596,183.938 " fill="none" id="&lt;b&gt;execute&lt;/b&gt;-&gt;_ExecutionManager" style="stroke: #000000; stroke-width: 1.0;"/><polygon fill="#000000" points="147.817,188.87,154.6338,181.7615,149.5138,184.1667,147.1086,179.0467,147.817,188.87" style="stroke: #000000; stroke-width: 1.0;"/><!--MD5=[99211a0848547cdfe74c601bba89b6b2]
link <b>execute</b> to _JsonRpcHttpServer--><path d="M242.113,29.393 C281.215,37.868 346.455,52.007 397.301,63.027 " fill="none" id="&lt;b&gt;execute&lt;/b&gt;-&gt;_JsonRpcHttpServer" style="stroke: #000000; stroke-width: 1.0;"/><polygon fill="#000000" points="402.487,64.151,394.5397,58.3337,397.6007,63.0909,392.8435,66.1518,402.487,64.151" style="stroke: #000000; stroke-width: 1.0;"/><!--MD5=[5b9e0e9dff0766e3d998027f40912159]
link _ExecutionManager to async-mutex--><path d="M143.485,223.035 C145.539,246.652 149,292.188 149,331 C149,331 149,331 149,379 C149,404.27 154.689,432.8256 159.282,451.764 " fill="none" id="_ExecutionManager-&gt;async-mutex" style="stroke: #000000; stroke-width: 0.5;"/><polygon fill="#000000" points="160.543,456.8399,162.2554,447.1411,159.3377,451.9874,154.4913,449.0696,160.543,456.8399" style="stroke: #000000; stroke-width: 0.5;"/><!--MD5=[2dd195625ff8be1bbe49e5e1c80403f1]
link _ExecutionManager to _Config--><path d="M157.557,223.211 C179.205,245.769 218.388,286.598 241.819,311.013 " fill="none" id="_ExecutionManager-&gt;_Config" style="stroke: #000000; stroke-width: 0.5;"/><polygon fill="#000000" points="245.439,314.785,242.0955,305.521,241.9778,311.1767,236.3222,311.059,245.439,314.785" style="stroke: #000000; stroke-width: 0.5;"/><!--MD5=[6cbe62c9951cc8ee8d97933a9731483b]
link _ExecutionManager to _MempoolManager--><path d="M196.124,223.027 C224.634,231.469 259.648,241.838 288.869,250.49 " fill="none" id="_ExecutionManager-&gt;_MempoolManager" style="stroke: #000000; stroke-width: 0.5;"/><polygon fill="#000000" points="293.88,251.974,286.387,245.5822,289.086,250.5537,284.1145,253.2526,293.88,251.974" style="stroke: #000000; stroke-width: 0.5;"/><!--MD5=[a298d110327d5b4d9419c7df1684c3a2]
link _JsonRpcHttpServer to _Config--><path d="M402.309,88.221 C352.982,94.936 292.419,106.84 276,126 C231.109,178.384 245.464,268.555 255.184,309.571 " fill="none" id="_JsonRpcHttpServer-&gt;_Config" style="stroke: #000000; stroke-width: 0.5;"/><polygon fill="#000000" points="256.459,314.79,258.2072,305.0975,255.2716,309.933,250.436,306.9974,256.459,314.79" style="stroke: #000000; stroke-width: 0.5;"/><!--MD5=[874e5c9d1ef39f877d69e6c7af67d374]
link _JsonRpcHttpServer to cors--><path d="M490.015,97.038 C498.567,105.037 508.235,115.281 515,126 C534.962,157.63 544,167.598 544,205 C544,205 544,205 544,379 C544,405.557 531.85,433.9537 522.077,452.5005 " fill="none" id="_JsonRpcHttpServer-&gt;cors" style="stroke: #000000; stroke-width: 0.5;"/><polygon fill="#000000" points="519.652,456.9965,527.4444,450.9734,522.0252,452.5956,520.4029,447.1763,519.652,456.9965" style="stroke: #000000; stroke-width: 0.5;"/><!--MD5=[3db1f688a9aa1bed2435ee749bdee33a]
link _JsonRpcHttpServer to express--><path d="M499.901,97.016 C532.492,117.449 581,156.078 581,205 C581,205 581,205 581,379 C581,403.917 581.711,432.5409 582.285,451.5916 " fill="none" id="_JsonRpcHttpServer-&gt;express" style="stroke: #000000; stroke-width: 0.5;"/><polygon fill="#000000" points="582.443,456.7,586.1634,447.5809,582.2887,451.7024,578.1672,447.8277,582.443,456.7" style="stroke: #000000; stroke-width: 0.5;"/><!--MD5=[bcc210547358cbdef60168860a1aa5c1]
link _JsonRpcHttpServer to helmet--><path d="M483.196,97.314 C488.795,105.534 495.052,115.885 499,126 C511.994,159.292 514,169.262 514,205 C514,205 514,205 514,379 C514,401.961 493.263,399.006 479,417 C470.059,428.2791 460.974,441.5864 453.93,452.3983 " fill="none" id="_JsonRpcHttpServer-&gt;helmet" style="stroke: #000000; stroke-width: 0.5;"/><polygon fill="#000000" points="451.042,456.866,459.2864,451.478,453.7558,452.6666,452.5673,447.136,451.042,456.866" style="stroke: #000000; stroke-width: 0.5;"/><!--MD5=[7da9a3a0465859ecb04f57920cb187e1]
link _JsonRpcHttpServer to _RpcMethodHandler_ts--><path d="M441.836,97.027 C427.167,105.089 409.302,114.906 394.011,123.309 " fill="none" id="_JsonRpcHttpServer-&gt;_RpcMethodHandler_ts" style="stroke: #000000; stroke-width: 0.5;"/><polygon fill="#000000" points="389.355,125.868,399.1691,125.0415,393.7375,123.461,395.318,118.0294,389.355,125.868" style="stroke: #000000; stroke-width: 0.5;"/><!--MD5=[230a0a0c33b4840200436612354e588a]
link _JsonRpcHttpServer to utils--><path d="M471,97.027 C471,105.563 471,116.067 471,124.777 " fill="none" id="_JsonRpcHttpServer-&gt;utils" style="stroke: #000000; stroke-width: 0.5;"/><polygon fill="#000000" points="471,129.935,475,120.935,471,124.935,467,120.935,471,129.935" style="stroke: #000000; stroke-width: 0.5;"/><!--MD5=[181f5d4efc60a26821db1953e8738d01]
link _MempoolManager to async-mutex--><path d="M339.197,286.308 C329.844,302.923 314.074,329.018 297,349 C267.557,383.459 253.926,385.852 221,417 C208.724,428.6131 195.327,441.9831 184.716,452.7463 " fill="none" id="_MempoolManager-&gt;async-mutex" style="stroke: #000000; stroke-width: 0.5;"/><polygon fill="#000000" points="180.94,456.5857,190.1023,452.9729,184.4456,453.0205,184.398,447.3639,180.94,456.5857" style="stroke: #000000; stroke-width: 0.5;"/><!--MD5=[1e7aa635d92d8ffad2d0cac5e95be814]
link _MempoolManager to _Config--><path d="M325.142,286.027 C313.842,293.95 300.124,303.568 288.279,311.873 " fill="none" id="_MempoolManager-&gt;_Config" style="stroke: #000000; stroke-width: 0.5;"/><polygon fill="#000000" points="284.008,314.868,293.6737,312.9774,288.1023,311.998,289.0817,306.4266,284.008,314.868" style="stroke: #000000; stroke-width: 0.5;"/><!--MD5=[4cd7a5798fc78530c7f561ecaedc6751]
link _MempoolManager to _Types--><path d="M354.306,286.027 C357.204,293.394 360.679,302.226 363.78,310.107 " fill="none" id="_MempoolManager-&gt;_Types" style="stroke: #000000; stroke-width: 0.5;"/><polygon fill="#000000" points="365.653,314.868,366.0813,305.0285,363.8229,310.215,358.6364,307.9566,365.653,314.868" style="stroke: #000000; stroke-width: 0.5;"/><!--MD5=[7ec4369bb04ce9fac49815fdd51e1657]
link _RpcMethodHandler_ts to _Debug--><path d="M356.847,160.027 C355.425,167.255 353.726,175.894 352.198,183.659 " fill="none" id="_RpcMethodHandler_ts-&gt;_Debug" style="stroke: #000000; stroke-width: 0.5;"/><polygon fill="#000000" points="351.173,188.868,356.836,180.8101,352.1387,183.9622,348.9867,179.2649,351.173,188.868" style="stroke: #000000; stroke-width: 0.5;"/><!--MD5=[1e402d059cdb9c320594713312255311]
link _RpcMethodHandler_ts to _Eth--><path d="M373.662,160.027 C380.179,167.672 388.042,176.895 394.946,184.994 " fill="none" id="_RpcMethodHandler_ts-&gt;_Eth" style="stroke: #000000; stroke-width: 0.5;"/><polygon fill="#000000" points="398.248,188.868,395.4537,179.4239,395.0044,185.0629,389.3654,184.6136,398.248,188.868" style="stroke: #000000; stroke-width: 0.5;"/><!--MD5=[8bdb3dbc7cc0e4e4e79aa45e0fae3f3d]
link _Types to ethers--><path d="M371.312,349.06 C370.228,374.348 368.123,423.466 366.914,451.6815 " fill="none" id="_Types-&gt;ethers" style="stroke: #000000; stroke-width: 0.5;"/><polygon fill="#000000" points="366.699,456.6963,371.0809,447.8759,366.9132,451.7009,363.0882,447.5332,366.699,456.6963" style="stroke: #000000; stroke-width: 0.5;"/><!--MD5=[738a48ed45e5ac1e9a0bfebcdbbf13d2]
link utils to ethers--><path d="M470.505,156.318 C469.653,178.599 468,227.085 468,268 C468,268 468,268 468,379 C468,412.463 427.302,393.995 403,417 C392.242,427.1836 383.045,441.0624 376.511,452.4553 " fill="none" id="utils-&gt;ethers" style="stroke: #000000; stroke-width: 0.5;"/><polygon fill="#000000" points="374.052,456.8465,381.9391,450.9479,376.4948,452.4838,374.9588,447.0395,374.052,456.8465" style="stroke: #000000; stroke-width: 0.5;"/><script type="text/plantuml"><![CDATA[MD5=[24958fad4c9ec5844f78db01b2a01775]
@startuml

scale max 1920 width
top to bottom direction

skinparam nodesep 14
skinparam ranksep 29
skinparam monochrome true
skinparam shadowing false
skinparam defaultFontName Tahoma
skinparam defaultFontSize 12
skinparam roundCorner 6
skinparam dpi 150
skinparam arrowColor black
skinparam arrowThickness 0.5
skinparam packageTitleAlignment left

skinparam usecase {
  borderThickness 0.5
}

skinparam rectangle {
  borderThickness 0.5
}

skinparam component {
  borderThickness 1
}


(<b>execute</b>)
rectangle "Config" as _Config
rectangle "Debug" as _Debug
rectangle "Eth" as _Eth
rectangle "ExecutionManager" as _ExecutionManager
rectangle "JsonRpcHttpServer" as _JsonRpcHttpServer
rectangle "MempoolManager" as _MempoolManager
rectangle "RpcMethodHandler.ts" as _RpcMethodHandler_ts
rectangle "Types" as _Types
(utils)

package "Dependencies" {
  [async-mutex]
  [commander]
  [cors]
  [dotenv]
  [ethers]
  [express]
  [helmet]
}

_Config ----> [commander]
_Config ----> [ethers]
_Debug --> _MempoolManager
_Eth --> _MempoolManager
_Eth --> _Types
(<b>execute</b>) -[thickness=1]> _Config
(<b>execute</b>) ---[thickness=1]> [dotenv]
(<b>execute</b>) -[thickness=1]> _ExecutionManager
(<b>execute</b>) --[thickness=1]> _JsonRpcHttpServer
_ExecutionManager ----> [async-mutex]
_ExecutionManager --> _Config
_ExecutionManager --> _MempoolManager
_JsonRpcHttpServer --> _Config
_JsonRpcHttpServer ----> [cors]
_JsonRpcHttpServer ----> [express]
_JsonRpcHttpServer ----> [helmet]
_JsonRpcHttpServer --> _RpcMethodHandler_ts
_JsonRpcHttpServer --> (utils)
_MempoolManager ----> [async-mutex]
_MempoolManager --> _Config
_MempoolManager --> _Types
_RpcMethodHandler_ts --> _Debug
_RpcMethodHandler_ts --> _Eth
_Types ----> [ethers]
(utils) ---> [ethers]

@enduml


' View and edit on https://arkit.pro
]]></script></g></svg>