<!DOCTYPE svg PUBLIC "-//W3C//DTD SVG 1.1//EN" "http://www.w3.org/Graphics/SVG/1.1/DTD/svg11.dtd">
<!-- Uploaded to: SVG Repo, www.svgrepo.com, Transformed by: SVG Repo Mixer Tools -->
<svg width="800px" height="800px" viewBox="-6.4 -6.4 76.80 76.80" version="1.1" xmlns="http://www.w3.org/2000/svg" xmlns:xlink="http://www.w3.org/1999/xlink" fill="#000000">
<g id="SVGRepo_bgCarrier" stroke-width="0"/>
<g id="SVGRepo_tracerCarrier" stroke-linecap="round" stroke-linejoin="round"/>
<g id="SVGRepo_iconCarrier"> <title>com-laptop-code</title> <desc>Created with Sketch.</desc> <defs> </defs> <g id="General" stroke="none" stroke-width="1" fill="none" fill-rule="evenodd"> <g id="SLICES-64px" transform="translate(-90.000000, -300.000000)"> </g> <g id="ICONS" transform="translate(-85.000000, -295.000000)"> <g id="com-laptop-code" transform="translate(88.000000, 308.000000)"> <path d="M49,0 L7,0 C5.343,0 4,1.343 4,3 L4,32 L52,32 L52,3 C52,1.343 50.657,0 49,0" id="Fill-627" fill="#8093ff"> </path> <path d="M56,32 L56,35 C56,36.657 54.657,38 53,38 L3,38 C1.343,38 0,36.657 0,35 L0,32 L56,32 Z" id="Fill-628" fill="#8093ff"> </path> <polygon id="Fill-629" fill="#FFFFFF" points="8 28 48 28 48 4 8 4"> </polygon> <path d="M52,32 L52,3 C52,1.343 50.657,0 49,0 L7,0 C5.343,0 4,1.343 4,3 L4,32" id="Stroke-630" stroke="#3245ae" stroke-width="2" stroke-linecap="round" stroke-linejoin="round"> </path> <path d="M56,32 L56,35 C56,36.657 54.657,38 53,38 L3,38 C1.343,38 0,36.657 0,35 L0,32 L56,32 Z" id="Stroke-631" stroke="#3245ae" stroke-width="2" stroke-linecap="round" stroke-linejoin="round"> </path> <polygon id="Stroke-632" stroke="#3245ae" stroke-width="2" stroke-linecap="round" stroke-linejoin="round" points="8 28 48 28 48 4 8 4"> </polygon> <polyline id="Stroke-633" stroke="#8093ff" stroke-width="2" stroke-linecap="round" stroke-linejoin="round" points="22 11 16 16 22 21"> </polyline> <polyline id="Stroke-634" stroke="#8093ff" stroke-width="2" stroke-linecap="round" stroke-linejoin="round" points="34 11 40 16 34 21"> </polyline> <path d="M26,24 L30,8" id="Stroke-635" stroke="#8093ff" stroke-width="2" stroke-linecap="round" stroke-linejoin="round"> </path> </g> </g> </g> </g>
</svg>