<!DOCTYPE svg PUBLIC "-//W3C//DTD SVG 1.1//EN" "http://www.w3.org/Graphics/SVG/1.1/DTD/svg11.dtd">
<!-- Uploaded to: SVG Repo, www.svgrepo.com, Transformed by: SVG Repo Mixer Tools -->
<svg width="800px" height="800px" viewBox="-102.4 -102.4 1228.80 1228.80" class="icon" version="1.1" xmlns="http://www.w3.org/2000/svg" fill="#000000">
<g id="SVGRepo_bgCarrier" stroke-width="0"/>
<g id="SVGRepo_tracerCarrier" stroke-linecap="round" stroke-linejoin="round"/>
<g id="SVGRepo_iconCarrier">
<path d="M515.1 920.6H228V104.2h567.7v339.6c0 11 9 20 20 20s20-9 20-20V96c0-17.5-14.3-31.8-31.8-31.8H219.7C202.2 64.2 188 78.4 188 96v832.9c0 17.5 14.3 31.8 31.8 31.8h295.4c11 0 20-9 20-20s-9-20.1-20.1-20.1z" fill="#3245ae"/>
<path d="M749 384.6c0-11-9-20-20-20H283c-11 0-20 9-20 20s9 20 20 20h446c11 0 20-9 20-20zM541 522.1c0-11-6.9-20-15.2-20H278.3c-8.4 0-15.2 9-15.2 20s6.9 20 15.2 20h247.4c8.4 0 15.3-9 15.3-20zM278.3 640.6c-8.4 0-15.2 9-15.2 20s6.9 20 15.2 20h168.6c8.4 0 15.2-9 15.2-20s-6.9-20-15.2-20H278.3zM736.8 509.5c-124.3 0-225 100.7-225 225s100.7 225 225 225 225-100.7 225-225-100.8-225-225-225zM900.2 663l-188 188c-0.7 1.4-1.6 2.6-2.8 3.8-2.3 2.3-5.2 3.7-8.3 4.2-5.1 1.3-10.6 0-14.6-3.9-1.4-1.4-2.5-3.1-3.2-4.8l-103.8-104c-5.9-5.9-5.9-15.6 0-21.5s15.6-5.9 21.5 0l97.1 97.1 180.5-180.5c5.9-5.9 15.6-5.9 21.5 0 6 6 6 15.7 0.1 21.6z" fill="#3245ae"/>
<path d="M726.8 300.1h-429c-14.8 0-26.8-12-26.8-26.8v-81.4c0-14.8 12-26.8 26.8-26.8h429c14.8 0 26.8 12 26.8 26.8v81.4c0 14.8-12 26.8-26.8 26.8z" fill="#8093ff"/>
</g>
</svg>