<!DOCTYPE svg PUBLIC "-//W3C//DTD SVG 1.1//EN" "http://www.w3.org/Graphics/SVG/1.1/DTD/svg11.dtd">
<!-- Uploaded to: SVG Repo, www.svgrepo.com, Transformed by: SVG Repo Mixer Tools -->
<svg width="800px" height="800px" viewBox="-20 -20 240.00 240.00" xmlns="http://www.w3.org/2000/svg" fill="#000000">
<g id="SVGRepo_bgCarrier" stroke-width="0"/>
<g id="SVGRepo_tracerCarrier" stroke-linecap="round" stroke-linejoin="round"/>
<g id="SVGRepo_iconCarrier">
<title>Virtual Reality icons</title>
<line x1="100" y1="101.93" x2="100" y2="149.93" fill="none" stroke="#3245ae" stroke-miterlimit="10" stroke-width="8"/>
<line x1="56" y1="75.5" x2="100" y2="102.49" fill="none" stroke="#3245ae" stroke-miterlimit="10" stroke-width="7.94"/>
<line x1="144" y1="75.5" x2="100" y2="102.49" fill="none" stroke="#3245ae" stroke-miterlimit="10" stroke-width="8"/>
<polygon points="144 75.5 144 124.28 100 151.6 56 124.61 56 75.5 99.5 48.4 144 75.5" fill="none" stroke="#3245ae" stroke-miterlimit="10" stroke-width="8"/>
<path d="M187,141v36a10,10,0,0,1-10,10H141" fill="none" stroke="#8093ff" stroke-miterlimit="10" stroke-width="8"/>
<path d="M141,13h36a10,10,0,0,1,10,10V59" fill="none" stroke="#8093ff" stroke-miterlimit="10" stroke-width="8"/>
<path d="M13,59V23A10,10,0,0,1,23,13H59" fill="none" stroke="#8093ff" stroke-miterlimit="10" stroke-width="8"/>
<path d="M59,187H23a10,10,0,0,1-10-10V141" fill="none" stroke="#8093ff" stroke-miterlimit="10" stroke-width="8"/>
</g>
</svg>