<!DOCTYPE svg PUBLIC "-//W3C//DTD SVG 1.1//EN" "http://www.w3.org/Graphics/SVG/1.1/DTD/svg11.dtd">
<!-- Uploaded to: SVG Repo, www.svgrepo.com, Transformed by: SVG Repo Mixer Tools -->
<svg width="800px" height="800px" viewBox="-6.4 -6.4 76.80 76.80" version="1.1" xmlns="http://www.w3.org/2000/svg" xmlns:xlink="http://www.w3.org/1999/xlink" fill="#000000">
<g id="SVGRepo_bgCarrier" stroke-width="0">
<path transform="translate(-6.4, -6.4), scale(2.4)" d="M16,31.544738025870174C18.34499490645391,31.790715347782317,21.00906107015882,31.709440122466432,22.86477257302022,30.25484713047942C24.742483903081098,28.783009650639666,24.776776999879186,25.979987370743583,25.83022979745796,23.83934667007159C26.67240103625959,22.128035033842995,27.962732413821954,20.684400785278445,28.478272428604733,18.848084253491557C29.006965529906843,16.96491737153418,29.693621690450147,14.832959111389734,28.85482066779435,13.065971068120312C27.996541874511117,11.257951854312674,25.630747987937863,10.817645780829437,24.07089996392491,9.563672054437934C22.842722245104937,8.576330616662771,21.98964503229279,7.189651571746164,20.606298998285183,6.434921571051097C19.190017732093768,5.66222266944628,17.59164725413286,5.424097878847053,16,5.160326697863638C14.195360990967409,4.86125806853936,12.412253331527417,4.5692296268262815,10.59469953739475,4.775777934497844C8.340732625106106,5.031920587762793,5.459536955285274,4.694269443138954,4.102838075025462,6.512329961607847C2.7297955064163792,8.352292034612022,4.058745153123897,11.02249339748181,4.224449529587757,13.312307447776544C4.352562996959141,15.082665140670388,4.996322931798926,16.74235059396407,4.971578376795362,18.51716526831968C4.938311916789868,20.903217528023333,3.047431639244569,23.362962689094413,4.054158778514028,25.52649048194953C5.00132893979982,27.562026118737784,7.79038168480465,27.873815387439393,9.795420281315131,28.883942542587892C11.830647979556343,29.909278797202518,13.73351703404665,31.306996183194812,16,31.544738025870174" fill="#8093ff" strokewidth="0"/>
</g>
<g id="SVGRepo_tracerCarrier" stroke-linecap="round" stroke-linejoin="round"/>
<g id="SVGRepo_iconCarrier"> <title>cld-cloud-computer-network</title> <desc>Created with Sketch.</desc> <defs> </defs> <g id="General" stroke="none" stroke-width="1" fill="none" fill-rule="evenodd"> <g id="SLICES-64px" transform="translate(-720.000000, -200.000000)"> </g> <g id="ICONS" transform="translate(-715.000000, -195.000000)"> <g id="cld-cloud-computer-network" transform="translate(720.000000, 200.000000)"> <path d="M24,49 C24,50.657 22.657,52 21,52 L3,52 C1.343,52 0,50.657 0,49 L0,48 L24,48 L24,49 Z" id="Fill-438" fill="#8093ff"> </path> <polygon id="Fill-439" fill="#FFFFFF" points="2 48 22 48 22 36 2 36"> </polygon> <path d="M52,49 C52,50.657 50.657,52 49,52 L31,52 C29.343,52 28,50.657 28,49 L28,48 L52,48 L52,49 Z" id="Fill-440" fill="#8093ff"> </path> <polygon id="Fill-441" fill="#FFFFFF" points="30 48 50 48 50 36 30 36"> </polygon> <path d="M29.4346,2.9414 C28.5576,1.1974 26.7516,0.0004 24.6666,0.0004 C21.7206,0.0004 19.3326,2.3874 19.3326,5.3334 C16.3876,5.3334 13.9996,7.7204 13.9996,10.6674 C13.9996,13.6124 16.3876,16.0004 19.3326,16.0004 L31.3326,16.0004 C35.0156,16.0004 37.9996,13.0154 37.9996,9.3334 C37.9996,5.6514 35.0156,2.6674 31.3326,2.6674 C30.6736,2.6674 30.0366,2.7624 29.4336,2.9414 L29.4346,2.9414 Z" id="Fill-442" fill="#FFFFFF"> </path> <path d="M24,49 C24,50.657 22.657,52 21,52 L3,52 C1.343,52 0,50.657 0,49 L0,48 L24,48 L24,49 Z" id="Stroke-443" stroke="#3245ae" stroke-width="2" stroke-linecap="round" stroke-linejoin="round"> </path> <polyline id="Stroke-444" stroke="#3245ae" stroke-width="2" stroke-linecap="round" stroke-linejoin="round" points="2 48 2 36 22 36 22 48"> </polyline> <path d="M52,49 C52,50.657 50.657,52 49,52 L31,52 C29.343,52 28,50.657 28,49 L28,48 L52,48 L52,49 Z" id="Stroke-445" stroke="#3245ae" stroke-width="2" stroke-linecap="round" stroke-linejoin="round"> </path> <polyline id="Stroke-446" stroke="#3245ae" stroke-width="2" stroke-linecap="round" stroke-linejoin="round" points="30 48 30 36 50 36 50 48"> </polyline> <polyline id="Stroke-447" stroke="#3245ae" stroke-width="2" stroke-linecap="round" stroke-linejoin="round" points="12 32 12 26 40 26 40 32"> </polyline> <path d="M26,20 L26,26" id="Stroke-448" stroke="#3245ae" stroke-width="2" stroke-linecap="round" stroke-linejoin="round"> </path> <path d="M29.4346,2.9414 C28.5576,1.1974 26.7516,0.0004 24.6666,0.0004 C21.7206,0.0004 19.3326,2.3874 19.3326,5.3334 C16.3876,5.3334 13.9996,7.7204 13.9996,10.6674 C13.9996,13.6124 16.3876,16.0004 19.3326,16.0004 L31.3326,16.0004 C35.0156,16.0004 37.9996,13.0154 37.9996,9.3334 C37.9996,5.6514 35.0156,2.6674 31.3326,2.6674 C30.6736,2.6674 30.0366,2.7624 29.4336,2.9414 L29.4346,2.9414 Z" id="Stroke-449" stroke="#3245ae" stroke-width="2" stroke-linecap="round" stroke-linejoin="round"> </path> </g> </g> </g> </g>
</svg>