<?xml version="1.0" encoding="UTF-8" standalone="no"?>
<svg
   xmlns:dc="http://purl.org/dc/elements/1.1/"
   xmlns:cc="http://creativecommons.org/ns#"
   xmlns:rdf="http://www.w3.org/1999/02/22-rdf-syntax-ns#"
   xmlns:svg="http://www.w3.org/2000/svg"
   xmlns="http://www.w3.org/2000/svg"
   id="svg11"
   xml:space="preserve"
   enable-background="new 0 0 1024 1024"
   viewBox="0 0 1024 1024"
   y="0px"
   x="0px"
   version="1.1"><metadata
     id="metadata17"><rdf:RDF><cc:Work
         rdf:about=""><dc:format>image/svg+xml</dc:format><dc:type
           rdf:resource="http://purl.org/dc/dcmitype/StillImage" /></cc:Work></rdf:RDF></metadata><defs
     id="defs15" /><g
     id="g9"
     transform="translate(0,128)"><g
       id="logo-group"><path
         stroke-miterlimit="2"
         d="m 256.43,421.88 c 24.288,0 43.888,-19.719 43.888,-43.888 0,-13.587 -6.2525,-25.852 -15.992,-33.908 -8.0561,-9.7394 -20.321,-15.992 -33.908,-15.992 -24.288,0 -43.888,19.599 -43.888,43.888 0,13.587 6.2525,25.852 15.992,33.908 8.0561,9.7394 20.321,15.992 33.908,15.992 z m -6.012,-7.8156 c -23.206,0 -42.084,-18.878 -42.084,-42.084 0,-23.206 18.878,-42.084 42.084,-42.084 23.206,0 42.084,18.878 42.084,42.084 0,23.206 -18.878,42.084 -42.084,42.084 z m 0,-21.042 c 11.663,0 21.042,-9.3787 21.042,-21.042 0,-11.6633 -9.3787,-21.042 -21.042,-21.042 -11.6633,0 -21.042,9.3787 -21.042,21.042 0,11.6633 9.3787,21.042 21.042,21.042 z m 0,-1.8036 c -3.7274,0 -7.3346,-1.0822 -10.22,-3.006 -1.9238,-2.8858 -3.006,-6.493 -3.006,-10.22 0,-10.581 8.6573,-19.238 19.238,-19.238 3.7274,0 7.3346,1.0822 10.22,3.006 1.9238,2.8858 3.006,6.493 3.006,10.22 0,10.581 -8.6573,19.238 -19.238,19.238 z"
         style="font-variant-ligatures:normal;fill:#3245ae;stroke-width:0;stroke-miterlimit:2"
         id="path271581" /><path
         stroke-miterlimit="2"
         d="m 329.84,448.45 h 23.808 v -29.58 c 3.8477,2.4048 9.2585,4.8096 15.511,4.8096 21.042,0 34.749,-15.27 34.749,-37.996 0,-14.068 -4.8096,-25.01 -13.347,-31.262 -5.6513,-7.6954 -14.549,-12.024 -25.731,-12.024 -6.3727,0 -12.385,2.0441 -17.194,5.6513 v -3.6072 h -23.808 v 97.996 z m -4.2084,-7.8156 v -94.388 h 20.2 v 5.8918 c 3.3667,-3.6072 9.4989,-7.9358 18.998,-7.9358 13.226,0 31.262,7.5751 31.262,35.471 0,17.675 -9.499,36.192 -32.946,36.192 -7.5751,0 -13.707,-3.7274 -17.315,-6.493 v 31.262 z m 36.072,-45.691 c 7.9358,0 14.188,-6.8537 14.188,-15.27 0,-8.2966 -4.2084,-15.15 -14.188,-15.15 -7.8156,0 -14.188,6.8537 -14.188,15.15 0,8.4168 6.3727,15.27 14.188,15.27 z m 0,-1.8036 c -1.6834,0 -3.3667,-0.48096 -4.9298,-1.2024 -0.84166,-1.8036 -1.4429,-3.9679 -1.4429,-6.2525 0,-7.3346 5.5311,-13.347 12.385,-13.347 2.0441,0 3.7274,0.36072 5.2906,0.84168 0.72144,1.9238 1.0822,4.0882 1.0822,6.493 0,7.4549 -5.531,13.467 -12.385,13.467 z"
         style="font-variant-ligatures:normal;fill:#4255be;stroke-width:0;stroke-miterlimit:2"
         id="path271583" /><path
         stroke-miterlimit="2"
         d="m 434.63,421.88 h 24.649 v -35.711 l 16.353,29.699 6.012,6.012 h 23.928 v -87.775 l -6.012,-6.012 h -24.649 v 35.711 l -16.353,-29.699 -6.012,-6.012 h -23.928 v 87.775 z m -4.2084,-7.8156 v -84.168 h 21.042 l 25.25,45.932 v -45.93 h 21.042 v 84.168 h -21.042 l -25.25,-45.932 v 45.93 z"
         style="font-variant-ligatures:normal;fill:#5164ce;stroke-width:0;stroke-miterlimit:2"
         id="path271585" /><path
         stroke-miterlimit="2"
         d="m 673,423.68 c 6.3727,0 11.784,-2.4048 15.511,-4.9298 v 3.1262 h 23.808 v -96.312 l -6.012,-6.012 h -23.808 v 28.497 c -4.8096,-3.7274 -10.701,-5.6513 -17.194,-5.6513 -20.2,0 -33.066,14.309 -33.066,37.274 0,13.828 5.0501,24.769 13.707,31.262 6.012,8.0561 15.511,12.745 27.054,12.745 z m -6.012,-7.8156 c -23.447,0 -32.946,-18.517 -32.946,-36.192 0,-27.896 18.036,-35.471 31.262,-35.471 9.499,0 15.631,4.3286 18.998,7.9358 v -30.781 h 20.2 v 92.71 h -20.2 v -4.6894 c -3.487,2.7655 -9.6192,6.493 -17.315,6.493 z m 1.4429,-21.042 c 7.8156,0 14.188,-6.7334 14.188,-15.15 0,-8.4168 -6.3727,-15.15 -14.188,-15.15 -9.8597,0 -14.188,6.7334 -14.188,15.15 0,8.4168 6.3727,15.15 14.188,15.15 z m 0,-1.8036 c -1.8036,0 -3.3667,-0.36072 -4.9298,-1.0822 -0.96191,-1.8036 -1.4429,-3.9679 -1.4429,-6.2525 0,-8.537 4.4489,-13.347 12.385,-13.347 1.8036,0 3.487,0.36072 4.9298,1.0822 0.96192,1.9238 1.4429,3.9679 1.4429,6.2525 0,7.4549 -5.531,13.347 -12.385,13.347 z"
         style="font-variant-ligatures:normal;fill:#7083ef;stroke-width:0;stroke-miterlimit:2"
         id="path271589" /><path
         stroke-miterlimit="2"
         d="m 779.83,423.68 c 16.112,0 30.661,-10.461 35.711,-25.972 l -7.3346,-2.6453 h 8.0561 c 0.84168,-2.8858 1.2024,-5.8918 1.2024,-9.018 0,-2.525 -0.24048,-5.0501 -0.72144,-7.3346 -1.8036,-9.018 -6.7334,-16.713 -13.467,-22.124 -6.9739,-8.7775 -17.675,-14.188 -29.459,-14.188 -20.802,0 -37.635,16.834 -37.635,37.635 0,11.904 5.531,22.485 14.188,29.459 6.8537,8.537 17.555,14.188 29.459,14.188 z m -6.012,-7.8156 c -19.84,0 -35.832,-16.112 -35.832,-35.832 0,-19.84 15.992,-35.832 35.832,-35.832 17.315,0 31.864,12.385 35.11,28.737 0.48096,2.2846 0.72144,4.6894 0.72144,7.0942 0,2.525 -0.24048,4.9298 -0.72144,7.2144 H 759.99 c 2.6453,5.0501 7.8156,8.4168 13.828,8.4168 2.8858,0 5.531,-0.84168 7.9358,-2.1643 h 25.25 c -5.2906,13.106 -18.156,22.365 -33.186,22.365 z m -13.948,-42.926 h 27.896 c -2.525,-5.0501 -7.8156,-8.537 -13.948,-8.537 -6.1322,0 -11.423,3.487 -13.948,8.537 z"
         style="font-variant-ligatures:normal;fill:#8093ff;stroke-width:0;stroke-miterlimit:2"
         id="path271591" /><path
         style="fill:#8093ff;stroke-width:0.43235001"
         d="m 570.13,343.41 c -0.69401,-0.005 -1.4837,0 -1.7548,0.0111 -0.27092,0.0111 -0.6928,0.0322 -0.93752,0.0471 -0.24447,0.0149 -0.70434,0.0488 -1.0216,0.0753 -0.31732,0.0264 -0.85338,0.0796 -1.1916,0.11827 -0.33799,0.0387 -0.84642,0.10384 -1.1298,0.14447 -0.28318,0.0409 -0.76925,0.11731 -1.0801,0.16996 -0.31058,0.0529 -0.8082,0.14471 -1.1058,0.20432 -0.29736,0.0599 -0.70841,0.1464 -0.91347,0.1928 -0.20481,0.0462 -0.63223,0.14928 -0.94953,0.22861 -0.31732,0.0796 -0.77115,0.19832 -1.0084,0.26394 -0.23726,0.0659 -0.64832,0.1851 -0.91348,0.26515 -0.26515,0.0798 -0.74161,0.23198 -1.0589,0.33799 -0.31732,0.10601 -0.84737,0.29303 -1.1779,0.41587 -0.33054,0.12284 -0.76851,0.29039 -0.97358,0.37236 -0.20505,0.082 -0.54013,0.21947 -0.7452,0.30553 -0.20505,0.0863 -0.62669,0.2714 -0.93751,0.41179 -0.31058,0.14038 -0.87309,0.40818 -1.25,0.59496 -0.37669,0.18678 -0.90145,0.456 -1.1659,0.59855 -0.26443,0.14231 -0.65385,0.35697 -0.8654,0.47693 -0.21154,0.11971 -0.61709,0.35793 -0.90145,0.52932 -0.28414,0.1714 -0.70841,0.43486 -0.94231,0.58558 -0.23414,0.15072 -0.64641,0.42356 -0.91637,0.60651 -0.26972,0.18317 -0.60841,0.41707 -0.75217,0.51994 -0.14399,0.10313 -0.49063,0.35794 -0.77019,0.5666 -0.27957,0.20842 -0.73392,0.56011 -1.0096,0.78126 -0.27572,0.22092 -0.6743,0.54879 -0.88585,0.72839 -0.21154,0.17933 -0.54134,0.46564 -0.73318,0.63607 -0.19159,0.17068 -0.56491,0.51273 -0.82934,0.7606 -0.26442,0.24784 -0.77283,0.74663 -1.1301,1.1084 -0.35698,0.36178 -0.84568,0.8743 -1.0856,1.1387 -0.24015,0.26442 -0.61732,0.69159 -0.83846,0.94953 -0.22092,0.25769 -0.59665,0.71178 -0.83488,1.0089 -0.23798,0.29713 -0.60265,0.76756 -0.80988,1.0457 -0.20745,0.27813 -0.45816,0.619 -0.55721,0.75796 -0.099,0.1387 -0.31035,0.4416 -0.46924,0.67308 -0.15913,0.23126 -0.43844,0.6529 -0.6209,0.93678 -0.18269,0.2839 -0.49111,0.78152 -0.68584,1.1058 -0.19471,0.32428 -0.50723,0.86539 -0.69449,1.2027 -0.18726,0.33702 -0.52742,0.98607 -0.75553,1.4423 -0.22837,0.456 -0.49448,1.0024 -0.59137,1.214 -0.0966,0.21154 -0.26587,0.59184 -0.37573,0.8452 -0.10986,0.25337 -0.3077,0.73055 -0.43966,1.0604 -0.13173,0.32981 -0.3262,0.83656 -0.43174,1.126 -0.10577,0.28943 -0.27308,0.7695 -0.37236,1.0671 -0.099,0.29736 -0.24543,0.75722 -0.32524,1.0216 -0.0796,0.26443 -0.19327,0.65385 -0.25241,0.8654 -0.0594,0.21154 -0.15697,0.57381 -0.21707,0.8053 -0.0601,0.23125 -0.16851,0.6803 -0.24135,0.99761 -0.0726,0.31731 -0.18077,0.82021 -0.24039,1.1178 -0.0596,0.29736 -0.15168,0.79497 -0.20481,1.1058 -0.0531,0.31083 -0.12908,0.79207 -0.16875,1.0697 -0.0399,0.27765 -0.10457,0.78606 -0.14375,1.1298 -0.0394,0.34376 -0.0935,0.88991 -0.12019,1.214 -0.0267,0.3238 -0.0596,0.76734 -0.0728,0.98559 -0.0135,0.21803 -0.0353,0.6887 -0.0486,1.0457 -0.0132,0.35698 -0.024,0.97885 -0.024,1.3822 0,0.40313 0.0106,1.0198 0.0236,1.3702 0.013,0.35025 0.0351,0.82623 0.0493,1.0577 0.0139,0.23125 0.0466,0.67477 0.0726,0.98559 0.0262,0.31058 0.0745,0.8082 0.10769,1.1058 0.0332,0.29736 0.0981,0.80578 0.14423,1.1298 0.0464,0.3238 0.12741,0.84304 0.18029,1.1539 0.0529,0.31058 0.15049,0.8344 0.21683,1.1637 0.0663,0.32933 0.18005,0.85411 0.25265,1.1659 0.0726,0.31202 0.20818,0.8529 0.30145,1.2024 0.093,0.34952 0.23413,0.85264 0.31346,1.1178 0.0793,0.26539 0.23102,0.74762 0.33727,1.0714 0.10649,0.3238 0.28534,0.84304 0.39784,1.1539 0.1125,0.31058 0.32164,0.85697 0.46443,1.214 0.14303,0.35698 0.36178,0.88148 0.48653,1.1659 0.12476,0.28414 0.31731,0.71157 0.42813,0.94954 0.11058,0.23798 0.34856,0.72475 0.52859,1.0817 0.18005,0.35698 0.45505,0.88148 0.61109,1.1659 0.15601,0.28414 0.41299,0.73846 0.5714,1.0096 0.15817,0.27092 0.4125,0.6928 0.56517,0.93751 0.15264,0.24448 0.41972,0.66107 0.59353,0.9255 0.1738,0.26442 0.46011,0.68631 0.63655,0.93751 0.17621,0.25121 0.5065,0.70556 0.73392,1.0096 0.22765,0.30409 0.5685,0.74762 0.75796,0.98559 0.18918,0.23798 0.4851,0.60023 0.65748,0.8053 0.1726,0.20481 0.46538,0.54546 0.65121,0.75675 0.18557,0.2113 0.47234,0.53028 0.63702,0.70914 0.16491,0.17885 0.65169,0.68199 1.0818,1.1181 0.43029,0.43607 0.91205,0.90578 1.0707,1.0435 0.15865,0.13798 0.494,0.43655 0.7452,0.66349 0.2512,0.22716 0.62453,0.55674 0.82934,0.73245 0.20505,0.17596 0.52405,0.44086 0.70914,0.58869 0.1851,0.14783 0.74763,0.57165 1.25,0.94157 0.50239,0.3702 1.0776,0.78822 1.2786,0.92956 0.20072,0.14111 0.48752,0.33582 0.63703,0.43296 0.14952,0.0969 0.7695,0.47403 1.3776,0.83824 0.60819,0.36443 1.2844,0.76155 1.5024,0.88295 0.21827,0.12116 0.56971,0.30553 0.78126,0.40938 0.21154,0.10409 0.8606,0.41299 1.4423,0.68653 0.58173,0.27356 1.2363,0.57309 1.4543,0.66587 0.21828,0.0928 0.53729,0.22043 0.70915,0.2839 0.17187,0.0635 0.86297,0.31178 1.5358,0.55168 0.67283,0.2399 1.4209,0.4947 1.6628,0.56586 0.24159,0.0714 1.1135,0.29712 1.9378,0.50192 0.82406,0.20481 1.6065,0.39424 1.7387,0.42116 0.13221,0.0267 0.40265,0.076 0.60097,0.10913 0.19832,0.0334 0.63655,0.0988 0.97357,0.14568 0.33727,0.0466 0.89977,0.12789 1.25,0.18053 0.35049,0.0527 0.71589,0.10649 0.81204,0.11995 0.0964,0.0132 0.40458,0.0452 0.68511,0.0709 0.28053,0.0259 0.67235,0.0584 0.87067,0.0724 0.19832,0.0139 0.5608,0.0363 0.8053,0.0495 0.24471,0.0132 0.88822,0.0308 1.4303,0.039 0.60192,0.009 1.2803,0.004 1.7428,-0.0132 0.41659,-0.0154 1.006,-0.044 1.3101,-0.0637 0.30409,-0.0195 0.79086,-0.0574 1.0818,-0.0841 0.29087,-0.0265 0.81563,-0.0916 1.1659,-0.14447 0.35049,-0.0526 0.913,-0.13389 1.25,-0.18029 0.33726,-0.0464 0.81299,-0.11659 1.0577,-0.15577 0.24472,-0.0392 0.58537,-0.0993 0.75723,-0.13318 0.17187,-0.0339 0.69665,-0.15769 1.1659,-0.27476 0.46949,-0.11707 1.1454,-0.28486 1.5024,-0.37308 0.35698,-0.0882 0.82765,-0.21395 1.0457,-0.27934 0.21803,-0.0654 0.54809,-0.17139 0.73318,-0.23558 0.1851,-0.0642 0.59064,-0.20793 0.90146,-0.31971 0.31082,-0.11178 0.78679,-0.28197 1.0577,-0.37813 0.27116,-0.0961 0.65242,-0.23847 0.84763,-0.31587 0.1952,-0.0776 0.50888,-0.2101 0.69713,-0.29471 0.18822,-0.0844 0.82907,-0.3827 1.424,-0.66276 0.59496,-0.27981 1.2496,-0.59617 1.4544,-0.70287 0.20505,-0.10649 0.58368,-0.31539 0.84136,-0.46417 0.25794,-0.14856 0.89281,-0.52527 1.4111,-0.83704 0.51826,-0.31154 1.1079,-0.67741 1.3101,-0.81252 0.20241,-0.1351 0.54087,-0.37068 0.75242,-0.52306 0.21155,-0.15264 0.74162,-0.54161 1.1779,-0.86444 0.43628,-0.32308 0.91779,-0.68701 1.0697,-0.80915 0.15217,-0.12211 0.43343,-0.35698 0.62501,-0.52163 0.19183,-0.16491 0.56491,-0.49401 0.82934,-0.73103 0.26442,-0.23726 0.59976,-0.53391 0.7452,-0.65938 0.14544,-0.12548 0.46564,-0.42813 0.71178,-0.67235 0.24592,-0.24423 0.65026,-0.65531 0.89856,-0.913 0.24856,-0.25793 0.66565,-0.70672 0.92718,-0.99761 0.2613,-0.29086 0.61273,-0.69111 0.78078,-0.88943 0.16804,-0.19832 0.50097,-0.60408 0.73993,-0.90146 0.23919,-0.2976 0.62021,-0.78969 0.84689,-1.0938 0.22669,-0.30409 0.55649,-0.75843 0.73293,-1.0096 0.17645,-0.2512 0.46274,-0.67309 0.63655,-0.93751 0.1738,-0.26443 0.44087,-0.68104 0.59327,-0.92576 0.15265,-0.24495 0.40698,-0.66681 0.56539,-0.93751 0.15818,-0.27091 0.41563,-0.72523 0.57166,-1.0094 0.15625,-0.28438 0.45985,-0.86851 0.67477,-1.2981 0.21491,-0.42982 0.47935,-0.97599 0.58752,-1.214 0.10818,-0.23799 0.28342,-0.63297 0.38895,-0.87742 0.10577,-0.24471 0.27885,-0.66106 0.38486,-0.92549 0.10577,-0.26443 0.27356,-0.69713 0.37284,-0.96155 0.0993,-0.26443 0.29784,-0.83245 0.44113,-1.262 0.14351,-0.42981 0.33054,-1.0192 0.41611,-1.3101 0.0853,-0.29087 0.19376,-0.6695 0.24063,-0.84136 0.0469,-0.17188 0.14519,-0.55194 0.21828,-0.84447 0.0731,-0.29231 0.1863,-0.77383 0.25168,-1.0697 0.0656,-0.29567 0.16226,-0.76491 0.21515,-1.0426 0.0529,-0.27765 0.12884,-0.69955 0.16875,-0.93751 0.0399,-0.23799 0.10481,-0.65459 0.14423,-0.9255 0.0397,-0.27116 0.0993,-0.72548 0.13269,-1.0096 0.0334,-0.28438 0.0825,-0.7548 0.1089,-1.0457 0.0265,-0.29087 0.0644,-0.77768 0.0844,-1.0818 0.0199,-0.30409 0.0486,-0.90457 0.0639,-1.3342 0.0166,-0.4685 0.0216,-1.1853 0.013,-1.7909 -0.008,-0.55532 -0.0259,-1.2207 -0.0397,-1.4784 -0.0137,-0.25794 -0.0466,-0.75554 -0.0736,-1.1058 -0.0267,-0.35049 -0.0651,-0.79929 -0.0851,-0.99761 -0.0202,-0.19832 -0.0736,-0.65264 -0.11851,-1.0096 -0.045,-0.35698 -0.1202,-0.89255 -0.16732,-1.1899 -0.0469,-0.2976 -0.12884,-0.77884 -0.18221,-1.0697 -0.0534,-0.29087 -0.15649,-0.80482 -0.22957,-1.1418 -0.0731,-0.33727 -0.20289,-0.89424 -0.28895,-1.238 -0.0858,-0.34375 -0.20986,-0.81922 -0.27572,-1.0565 -0.0659,-0.23726 -0.18366,-0.64303 -0.26178,-0.90145 -0.0784,-0.25842 -0.25,-0.78917 -0.3815,-1.1791 -0.13173,-0.39015 -0.32236,-0.93103 -0.4238,-1.2019 -0.10145,-0.27116 -0.28655,-0.74594 -0.41155,-1.0553 -0.125,-0.30914 -0.35192,-0.84473 -0.50455,-1.1899 -0.15241,-0.34495 -0.48653,-1.0493 -0.74257,-1.5649 -0.25625,-0.51562 -0.60123,-1.183 -0.76708,-1.4827 -0.16562,-0.3 -0.42741,-0.75986 -0.58173,-1.0216 -0.15433,-0.26202 -0.40529,-0.67667 -0.55795,-0.92117 -0.1524,-0.24471 -0.45025,-0.70434 -0.6618,-1.0216 -0.21154,-0.31731 -0.55769,-0.81948 -0.7695,-1.1156 -0.21178,-0.2964 -0.54714,-0.75073 -0.74494,-1.0096 -0.19809,-0.25914 -0.4957,-0.63871 -0.66133,-0.84352 -0.16563,-0.20505 -0.44783,-0.54545 -0.62717,-0.75696 -0.17933,-0.2113 -0.46539,-0.54113 -0.6356,-0.73318 -0.17044,-0.19183 -0.5017,-0.55432 -0.73656,-0.80556 -0.23486,-0.25121 -0.73366,-0.75986 -1.1087,-1.1301 -0.375,-0.37044 -0.89808,-0.86972 -1.1625,-1.1096 -0.26442,-0.24014 -0.69159,-0.61731 -0.94953,-0.83846 -0.25769,-0.22091 -0.71204,-0.59686 -1.0096,-0.83534 -0.29736,-0.23847 -0.78969,-0.61926 -1.0938,-0.84642 -0.30409,-0.22692 -0.71516,-0.52622 -0.91348,-0.66517 -0.19832,-0.13895 -0.52812,-0.36539 -0.73318,-0.50361 -0.20481,-0.13798 -0.49159,-0.32789 -0.63703,-0.42188 -0.14543,-0.094 -0.49158,-0.31058 -0.76924,-0.48151 -0.27765,-0.17092 -0.73197,-0.44087 -1.0096,-0.60023 -0.27765,-0.15914 -0.71563,-0.40313 -0.97357,-0.5423 -0.2577,-0.13895 -0.74447,-0.39063 -1.0818,-0.55938 -0.33702,-0.16875 -0.83461,-0.40914 -1.1058,-0.53439 -0.27092,-0.125 -0.71589,-0.32332 -0.9887,-0.44039 -0.2726,-0.11707 -0.71611,-0.30097 -0.98559,-0.40866 -0.26924,-0.1077 -0.61948,-0.24448 -0.77815,-0.30385 -0.15866,-0.0594 -0.52981,-0.19327 -0.82476,-0.29712 -0.29495,-0.10409 -0.79665,-0.27164 -1.1152,-0.3726 -0.31828,-0.10097 -0.8558,-0.26227 -1.1945,-0.35866 -0.33846,-0.0964 -0.9238,-0.25169 -1.3007,-0.34496 -0.37693,-0.0933 -0.9392,-0.2238 -1.25,-0.29015 -0.31082,-0.0661 -0.77045,-0.15865 -1.0216,-0.20529 -0.25121,-0.0466 -0.68943,-0.12235 -0.97358,-0.16827 -0.28414,-0.0459 -0.71684,-0.11106 -0.96155,-0.14471 -0.24211,-0.0457 -0.68311,-0.0998 -0.97279,-0.13217 -0.28968,-0.0325 -0.7177,-0.0752 -0.95117,-0.0952 -0.22915,-0.0199 -0.57936,-0.0476 -0.77824,-0.0615 -0.19888,-0.0137 -0.56206,-0.0363 -0.8085,-0.05 -0.24212,-0.0137 -1.0117,-0.0288 -1.7035,-0.0339 z m -0.39664,5.7615 c 0.43628,-0.003 1.0584,0.006 1.3822,0.019 0.32404,0.013 0.76202,0.0351 0.97357,0.0488 0.21154,0.014 0.62812,0.0469 0.92549,0.0736 0.2976,0.0264 0.83846,0.0856 1.2019,0.13125 0.36371,0.0457 0.92623,0.12668 1.25,0.18029 0.32404,0.0534 0.85744,0.15096 1.1859,0.21659 0.32813,0.0656 0.80408,0.16803 1.0577,0.22741 0.25337,0.0594 0.70435,0.17236 1.0017,0.25096 0.2976,0.0788 0.77356,0.21323 1.0577,0.29881 0.28414,0.0858 0.74953,0.23341 1.0337,0.32788 0.28414,0.0947 0.79281,0.27525 1.1298,0.40121 0.33727,0.1262 0.84015,0.3238 1.1178,0.43966 0.27765,0.11563 0.65627,0.27789 0.84136,0.36058 0.18509,0.0827 0.57451,0.26347 0.86539,0.40193 0.29087,0.13846 0.76682,0.37668 1.0577,0.52911 0.29087,0.15265 0.70192,0.37453 0.91347,0.49353 0.21154,0.11875 0.62812,0.36203 0.9255,0.54061 0.2976,0.17861 0.82765,0.51394 1.1779,0.74521 0.35024,0.23125 0.80482,0.54013 1.0096,0.68631 0.20505,0.14616 0.54567,0.39568 0.75722,0.55411 0.21154,0.15865 0.59016,0.45288 0.84136,0.65363 0.2512,0.20072 0.65384,0.53438 0.89471,0.74135 0.24086,0.20698 0.62474,0.54567 0.85337,0.75311 0.22837,0.20722 0.7296,0.69112 1.1132,1.0753 0.3839,0.38415 0.86782,0.88533 1.0755,1.1137 0.20746,0.22861 0.54567,0.61156 0.75147,0.85122 0.20577,0.23966 0.51805,0.61515 0.69401,0.83461 0.17621,0.21923 0.47118,0.59881 0.65601,0.84352 0.18462,0.24447 0.46586,0.6286 0.62527,0.85338 0.15914,0.22476 0.45721,0.66275 0.66202,0.97357 0.20481,0.31082 0.47619,0.73413 0.60287,0.9411 0.12693,0.20673 0.35409,0.59085 0.50507,0.85338 0.15121,0.2625 0.38462,0.68268 0.519,0.93392 0.13414,0.25121 0.3589,0.68943 0.49906,0.97357 0.14015,0.28414 0.3464,0.71684 0.45817,0.96155 0.11178,0.24472 0.29039,0.65026 0.39664,0.90146 0.10649,0.2512 0.29399,0.71731 0.41683,1.0358 0.12284,0.31851 0.3327,0.90266 0.4666,1.2981 0.13365,0.39544 0.31347,0.95697 0.39953,1.2479 0.0863,0.29087 0.22091,0.77213 0.29976,1.0697 0.0786,0.29736 0.21274,0.85459 0.29808,1.238 0.0851,0.38342 0.19808,0.93077 0.25072,1.2166 0.0529,0.28558 0.1339,0.77235 0.1803,1.0817 0.0464,0.30914 0.10625,0.73535 0.13293,0.9469 0.0267,0.21154 0.0702,0.60624 0.0966,0.87741 0.0267,0.27092 0.0644,0.72527 0.0841,1.0096 0.0197,0.28414 0.0469,0.79112 0.0606,1.1264 0.0135,0.33534 0.0243,0.90336 0.0243,1.262 -2.4e-4,0.3589 -0.0113,0.92813 -0.0245,1.2654 -0.0132,0.33702 -0.0404,0.85095 -0.0606,1.1418 -0.0199,0.29087 -0.0582,0.7452 -0.0846,1.0096 -0.0267,0.26443 -0.0699,0.65385 -0.0966,0.8654 -0.0265,0.21154 -0.0752,0.5685 -0.10842,0.79328 -0.0332,0.22476 -0.0983,0.62501 -0.14496,0.88943 -0.0464,0.26443 -0.1274,0.69159 -0.18005,0.94953 -0.0526,0.2577 -0.15048,0.70119 -0.21755,0.98559 -0.0671,0.28414 -0.175,0.71684 -0.24015,0.96156 -0.0651,0.24447 -0.18822,0.67883 -0.27355,0.96492 -0.0853,0.28606 -0.24568,0.78896 -0.35626,1.1178 -0.11082,0.32862 -0.27188,0.7868 -0.35818,1.0183 -0.0863,0.23125 -0.23269,0.60988 -0.32548,0.84136 -0.093,0.23125 -0.22452,0.55047 -0.29256,0.70914 -0.068,0.15866 -0.20673,0.47235 -0.30817,0.69713 -0.10121,0.22476 -0.32621,0.69522 -0.49954,1.0457 -0.17356,0.35025 -0.42525,0.83968 -0.55964,1.0875 -0.13414,0.2476 -0.3476,0.63007 -0.47381,0.84953 -0.12644,0.21971 -0.33174,0.56586 -0.45601,0.76924 -0.12452,0.20361 -0.3613,0.57836 -0.52595,0.83319 -0.16491,0.25457 -0.41899,0.63512 -0.56491,0.8452 -0.15169,0.21851 -0.26996,0.3678 -0.27621,0.34856 -0.006,-0.0185 -0.0512,-0.21226 -0.10024,-0.43029 -0.0488,-0.21827 -0.14664,-0.61394 -0.21683,-0.87958 -0.0704,-0.26539 -0.19808,-0.71442 -0.28366,-0.99761 -0.0858,-0.28294 -0.22813,-0.72574 -0.31659,-0.98343 -0.0885,-0.25769 -0.23967,-0.67429 -0.33606,-0.92549 -0.0964,-0.2512 -0.24736,-0.62981 -0.33558,-0.84136 -0.0882,-0.21154 -0.24832,-0.57935 -0.35578,-0.81732 -0.10769,-0.23798 -0.33173,-0.70313 -0.49833,-1.0337 -0.16658,-0.33054 -0.41442,-0.80124 -0.55098,-1.0457 -0.1363,-0.24472 -0.36203,-0.63413 -0.50123,-0.8654 -0.13943,-0.23149 -0.36226,-0.58847 -0.49543,-0.79328 -0.13318,-0.20505 -0.34953,-0.52959 -0.48078,-0.72116 -0.13125,-0.19183 -0.3952,-0.55964 -0.58679,-0.81732 -0.19159,-0.25794 -0.46901,-0.62021 -0.61636,-0.8053 -0.14735,-0.1851 -0.3964,-0.488 -0.55337,-0.67309 -0.15673,-0.18509 -0.42596,-0.49353 -0.59785,-0.6851 -0.17188,-0.19183 -0.63798,-0.67404 -1.0356,-1.0719 -0.3976,-0.39784 -0.89592,-0.87837 -1.1075,-1.0678 -0.21155,-0.18943 -0.58463,-0.5113 -0.82934,-0.71516 -0.24472,-0.20384 -0.61611,-0.50217 -0.82528,-0.66297 -0.20937,-0.16082 -0.53391,-0.40385 -0.72116,-0.54013 -0.1875,-0.13654 -0.54615,-0.38631 -0.79735,-0.55532 -0.2512,-0.16899 -0.65674,-0.43197 -0.90145,-0.58436 -0.24472,-0.15241 -0.63945,-0.38799 -0.87742,-0.52332 -0.23798,-0.13534 -0.67066,-0.37117 -0.96155,-0.52406 -0.29087,-0.15289 -0.53291,-0.28101 -0.53797,-0.28486 -0.005,-0.004 0.0358,-0.0587 0.0909,-0.12212 0.0548,-0.0632 0.23631,-0.2762 0.4029,-0.47356 0.16682,-0.19711 0.44087,-0.54329 0.60888,-0.76924 0.16827,-0.22572 0.41419,-0.57282 0.5464,-0.77114 0.13222,-0.19832 0.33751,-0.52284 0.45601,-0.72116 0.11827,-0.19832 0.30794,-0.53366 0.42116,-0.74521 0.11322,-0.21154 0.28149,-0.54688 0.37404,-0.7452 0.0923,-0.19832 0.21395,-0.46876 0.2702,-0.60097 0.0563,-0.13221 0.15889,-0.38654 0.22837,-0.56491 0.0692,-0.17861 0.19687,-0.54087 0.28366,-0.8053 0.0865,-0.26443 0.20144,-0.64209 0.25529,-0.83946 0.0538,-0.19711 0.14014,-0.54878 0.19183,-0.78126 0.0517,-0.23245 0.12692,-0.61731 0.16707,-0.85528 0.0402,-0.23798 0.0897,-0.56802 0.11033,-0.73318 0.0207,-0.16539 0.0536,-0.4899 0.0736,-0.72116 0.0197,-0.2315 0.0428,-0.70746 0.0512,-1.0577 0.009,-0.38534 0.004,-0.85074 -0.013,-1.1779 -0.0156,-0.2976 -0.0447,-0.70313 -0.0647,-0.90145 -0.0199,-0.19832 -0.063,-0.55 -0.0959,-0.78126 -0.0327,-0.2315 -0.10769,-0.65917 -0.16683,-0.95075 -0.0591,-0.29159 -0.16178,-0.73223 -0.22764,-0.9791 -0.0661,-0.24712 -0.19183,-0.66829 -0.27934,-0.93631 -0.0872,-0.26803 -0.22644,-0.66033 -0.30937,-0.87188 -0.0827,-0.21154 -0.20457,-0.50913 -0.27116,-0.66106 -0.0664,-0.15193 -0.18486,-0.41179 -0.26323,-0.57693 -0.0786,-0.16539 -0.23293,-0.46829 -0.34327,-0.67309 -0.11034,-0.20505 -0.29664,-0.53344 -0.41419,-0.72981 -0.11755,-0.19664 -0.3125,-0.50482 -0.43295,-0.68511 -0.12068,-0.18029 -0.30578,-0.44688 -0.41155,-0.59232 -0.10577,-0.14543 -0.31466,-0.41852 -0.46443,-0.60672 -0.14952,-0.18822 -0.38799,-0.47477 -0.52981,-0.63703 -0.14182,-0.16202 -0.43654,-0.47718 -0.65505,-0.70002 -0.21876,-0.22284 -0.54905,-0.54277 -0.73414,-0.71083 -0.1851,-0.16779 -0.46417,-0.41106 -0.62021,-0.54014 -0.15577,-0.12933 -0.43775,-0.35096 -0.62622,-0.49253 -0.1887,-0.14159 -0.52068,-0.37693 -0.73824,-0.52285 -0.21731,-0.14591 -0.5209,-0.34183 -0.67477,-0.43559 -0.15361,-0.0937 -0.46201,-0.27068 -0.6851,-0.39304 -0.22309,-0.12235 -0.57862,-0.30577 -0.79017,-0.40721 -0.21154,-0.10144 -0.55216,-0.25553 -0.75722,-0.34231 -0.20481,-0.087 -0.50603,-0.2077 -0.66924,-0.26828 -0.16299,-0.0606 -0.43897,-0.15769 -0.61299,-0.21562 -0.17404,-0.0582 -0.46781,-0.14929 -0.6529,-0.20241 -0.1851,-0.0534 -0.46633,-0.12933 -0.625,-0.16923 -0.15866,-0.0397 -0.50482,-0.11587 -0.76925,-0.16899 -0.26442,-0.0534 -0.66997,-0.12405 -0.90145,-0.15722 -0.23125,-0.0329 -0.58822,-0.0764 -0.79328,-0.0966 -0.20481,-0.0202 -0.56733,-0.0471 -0.8053,-0.0603 -0.23798,-0.013 -0.63824,-0.0238 -0.88944,-0.024 -0.2512,-2.4e-4 -0.65674,0.0106 -0.90145,0.024 -0.24447,0.0135 -0.61225,0.0409 -0.81732,0.0613 -0.20481,0.0202 -0.5618,0.0635 -0.79328,0.0964 -0.23125,0.0327 -0.63703,0.10312 -0.90145,0.15649 -0.26443,0.0531 -0.6053,0.12813 -0.7577,0.16659 -0.15217,0.0382 -0.41179,0.10817 -0.57693,0.15529 -0.16491,0.0471 -0.48389,0.14616 -0.70867,0.2202 -0.22476,0.074 -0.58173,0.20217 -0.79328,0.28462 -0.21154,0.0827 -0.50361,0.20216 -0.64905,0.26538 -0.14543,0.0632 -0.39616,0.17717 -0.55721,0.25313 -0.16106,0.0762 -0.4695,0.23294 -0.68511,0.34856 -0.21587,0.11539 -0.55432,0.30722 -0.75242,0.42621 -0.19784,0.11875 -0.50624,0.31395 -0.68511,0.43344 -0.17861,0.11947 -0.44398,0.30385 -0.58942,0.40962 -0.14544,0.10577 -0.41852,0.31466 -0.60672,0.46443 -0.18823,0.14952 -0.47477,0.3875 -0.63703,0.52859 -0.16202,0.14111 -0.53365,0.49544 -0.82549,0.78753 -0.29207,0.29183 -0.64641,0.66349 -0.78753,0.82549 -0.14111,0.16226 -0.37909,0.44883 -0.5286,0.63703 -0.14976,0.18823 -0.35865,0.46132 -0.46443,0.60672 -0.10577,0.14544 -0.29015,0.41082 -0.40962,0.58943 -0.11947,0.17884 -0.31466,0.48726 -0.43365,0.6851 -0.11899,0.19808 -0.31466,0.54399 -0.43512,0.76877 -0.12043,0.22476 -0.30577,0.59569 -0.41202,0.82454 -0.10601,0.22861 -0.27789,0.62885 -0.38197,0.88943 -0.10409,0.26034 -0.26083,0.68991 -0.34832,0.95433 -0.0878,0.26443 -0.21395,0.68079 -0.28054,0.9255 -0.0666,0.24471 -0.16875,0.67187 -0.22716,0.94953 -0.0582,0.27765 -0.13318,0.68342 -0.16635,0.90145 -0.0332,0.21803 -0.0772,0.5481 -0.0974,0.73319 -0.0204,0.1851 -0.0481,0.47165 -0.0615,0.63702 -0.0135,0.16515 -0.0312,0.59254 -0.0397,0.94954 -0.009,0.39616 -0.004,0.85528 0.0132,1.1779 0.0156,0.29087 0.0445,0.68558 0.0639,0.87741 0.0197,0.19159 0.0519,0.46755 0.0716,0.61299 0.0197,0.14544 0.0639,0.42669 0.0981,0.62501 0.0344,0.19832 0.094,0.5065 0.13269,0.68511 0.0387,0.17861 0.11371,0.49206 0.16683,0.69712 0.0529,0.20481 0.15096,0.55 0.21755,0.76682 0.0666,0.21659 0.17308,0.53582 0.23678,0.70915 0.0635,0.17308 0.16082,0.42837 0.21635,0.56733 0.0555,0.1387 0.15289,0.3714 0.21635,0.51683 0.0637,0.14544 0.17452,0.38871 0.24616,0.54088 0.0719,0.15192 0.22067,0.44398 0.33101,0.64904 0.1101,0.20481 0.28678,0.51852 0.39255,0.69713 0.10577,0.17836 0.31371,0.5084 0.46249,0.73318 0.14856,0.22476 0.37044,0.54377 0.4928,0.70915 0.12211,0.16514 0.33606,0.44112 0.47502,0.61298 0.13895,0.17188 0.35097,0.42405 0.47092,0.56059 0.12019,0.1363 0.22091,0.25529 0.2238,0.26443 0.003,0.009 -0.21322,0.12981 -0.48051,0.26875 -0.26708,0.13871 -0.7238,0.38847 -1.0149,0.55458 -0.29087,0.16635 -0.70746,0.41371 -0.92575,0.54978 -0.21803,0.1363 -0.6238,0.40121 -0.90145,0.58895 -0.27765,0.18799 -0.65074,0.44809 -0.82934,0.57836 -0.17837,0.13029 -0.41635,0.3077 -0.52886,0.39424 -0.11226,0.0865 -0.36659,0.28726 -0.56491,0.44592 -0.19832,0.1589 -0.5065,0.41395 -0.6851,0.56734 -0.17837,0.15312 -0.50841,0.44614 -0.73319,0.65146 -0.22476,0.20529 -0.63127,0.59592 -0.90335,0.86804 -0.27212,0.27212 -0.65169,0.66612 -0.84352,0.87525 -0.19183,0.20938 -0.49232,0.5481 -0.66781,0.7529 -0.17549,0.20457 -0.46228,0.55073 -0.63703,0.76924 -0.17501,0.21828 -0.45817,0.58606 -0.62959,0.81758 -0.1714,0.23125 -0.39833,0.54494 -0.50456,0.69713 -0.10625,0.15192 -0.27019,0.39183 -0.36443,0.5327 -0.0942,0.14086 -0.29087,0.44688 -0.43702,0.6803 -0.1464,0.23342 -0.38871,0.63729 -0.53871,0.89761 -0.15,0.26058 -0.36827,0.65194 -0.4851,0.8702 -0.11683,0.21803 -0.32789,0.6346 -0.46949,0.92549 -0.14135,0.29087 -0.34351,0.72428 -0.44904,0.96298 -0.10577,0.2387 -0.27885,0.64978 -0.38487,0.91347 -0.10625,0.26371 -0.26346,0.67404 -0.34952,0.91205 -0.0861,0.23798 -0.22188,0.6327 -0.30169,0.87741 -0.0798,0.24448 -0.18413,0.57451 -0.23197,0.73319 -0.0476,0.15865 -0.1387,0.48319 -0.20217,0.72116 -0.0637,0.23799 -0.16154,0.62743 -0.21755,0.8654 -0.0562,0.23798 -0.11226,0.47429 -0.125,0.525 l -0.0228,0.0926 -0.1589,-0.22476 c -0.0873,-0.12356 -0.30745,-0.44878 -0.48894,-0.72285 -0.18174,-0.27404 -0.43296,-0.66349 -0.55795,-0.8654 -0.12525,-0.20192 -0.29784,-0.48605 -0.38342,-0.63149 -0.0856,-0.14543 -0.22092,-0.37789 -0.30049,-0.51683 -0.0798,-0.13895 -0.24207,-0.43102 -0.36106,-0.64905 -0.11875,-0.21827 -0.35121,-0.66708 -0.51657,-0.99761 -0.16539,-0.33053 -0.39256,-0.80124 -0.50482,-1.0457 -0.11226,-0.24471 -0.28029,-0.62332 -0.37308,-0.84136 -0.0928,-0.21827 -0.21971,-0.52115 -0.28173,-0.67308 -0.0623,-0.15217 -0.19207,-0.48752 -0.28871,-0.7452 -0.0966,-0.2577 -0.24255,-0.66202 -0.32428,-0.89835 -0.0817,-0.23606 -0.20241,-0.59855 -0.26828,-0.8053 -0.0661,-0.20673 -0.1899,-0.61878 -0.27524,-0.91589 -0.0853,-0.29712 -0.219,-0.79471 -0.29664,-1.1058 -0.0779,-0.31106 -0.17981,-0.73871 -0.22644,-0.95026 -0.0466,-0.21154 -0.1226,-0.57936 -0.169,-0.81732 -0.0464,-0.23799 -0.10601,-0.55722 -0.13269,-0.70915 -0.0264,-0.15216 -0.075,-0.44951 -0.10769,-0.66106 -0.0329,-0.21154 -0.0928,-0.64979 -0.13318,-0.97357 -0.0404,-0.32405 -0.0897,-0.76202 -0.10937,-0.97357 -0.0197,-0.21155 -0.0517,-0.60651 -0.0714,-0.87742 -0.0195,-0.27116 -0.0481,-0.82813 -0.0637,-1.238 -0.0168,-0.44545 -0.0224,-1.1127 -0.0137,-1.6587 0.008,-0.5024 0.026,-1.1137 0.0399,-1.3582 0.0142,-0.24471 0.0476,-0.70988 0.074,-1.0337 0.0267,-0.32405 0.0752,-0.82165 0.10794,-1.1058 0.0329,-0.28438 0.0928,-0.74399 0.13317,-1.0216 0.0404,-0.27765 0.11659,-0.74831 0.16923,-1.0457 0.0526,-0.29761 0.1375,-0.74088 0.18895,-0.9856 0.0512,-0.24471 0.13197,-0.61251 0.17957,-0.81731 0.0474,-0.20506 0.13534,-0.56202 0.19519,-0.79328 0.0599,-0.2315 0.16299,-0.6101 0.22885,-0.84136 0.0661,-0.2315 0.18966,-0.64256 0.27476,-0.91348 0.0851,-0.27115 0.2351,-0.7209 0.33318,-0.99977 0.0981,-0.27861 0.2565,-0.7113 0.35217,-0.96155 0.0954,-0.25 0.2738,-0.69254 0.3964,-0.98343 0.1226,-0.29087 0.30914,-0.71826 0.41491,-0.94953 0.10577,-0.23149 0.28366,-0.61009 0.39544,-0.84136 0.11154,-0.23149 0.3089,-0.62068 0.43823,-0.86539 0.12933,-0.24472 0.33775,-0.6286 0.46322,-0.85338 0.12525,-0.22476 0.37405,-0.65216 0.5529,-0.94953 0.1786,-0.2976 0.51419,-0.82766 0.74546,-1.1779 0.23125,-0.35025 0.54014,-0.80483 0.68605,-1.0096 0.14616,-0.20505 0.42885,-0.58895 0.62813,-0.85338 0.19904,-0.26443 0.50723,-0.65938 0.68437,-0.87742 0.17716,-0.21827 0.44688,-0.54277 0.59976,-0.72116 0.15264,-0.17861 0.46707,-0.5356 0.69881,-0.79328 0.23197,-0.25794 0.74641,-0.79376 1.1433,-1.1911 0.39688,-0.39712 0.91105,-0.89402 1.1423,-1.1041 0.2315,-0.2101 0.60456,-0.53966 0.82934,-0.73223 0.22477,-0.19255 0.57646,-0.48631 0.78126,-0.65242 0.20505,-0.16635 0.59449,-0.46997 0.8654,-0.67451 0.27116,-0.20481 0.66059,-0.49206 0.8654,-0.63824 0.20505,-0.14616 0.64303,-0.44398 0.97357,-0.66202 0.33053,-0.21779 0.7685,-0.49906 0.97357,-0.62475 0.20505,-0.12572 0.5512,-0.33149 0.76924,-0.45721 0.21827,-0.12572 0.56971,-0.32357 0.78126,-0.43992 0.21154,-0.11611 0.70387,-0.37068 1.0938,-0.56565 0.38991,-0.19495 0.9255,-0.45146 1.1899,-0.57018 0.26443,-0.11851 0.65385,-0.28847 0.8654,-0.37765 0.21154,-0.0892 0.60508,-0.2476 0.8743,-0.35241 0.26948,-0.10457 0.68584,-0.25914 0.9255,-0.34328 0.23966,-0.0841 0.63607,-0.21851 0.88053,-0.2988 0.24471,-0.08 0.65025,-0.20601 0.90145,-0.28005 0.25121,-0.0738 0.67862,-0.19304 0.94953,-0.26467 0.27116,-0.0716 0.72549,-0.1839 1.0096,-0.24928 0.28438,-0.0654 0.73487,-0.16275 1.0012,-0.21635 0.26635,-0.0534 0.70435,-0.13486 0.97357,-0.18077 0.26899,-0.0459 0.7219,-0.11611 1.006,-0.15626 0.28438,-0.0399 0.71157,-0.0945 0.94953,-0.12139 0.23799,-0.0267 0.68701,-0.0697 0.99761,-0.0957 0.31083,-0.0257 0.80288,-0.0587 1.0938,-0.0731 0.29087,-0.0142 0.61009,-0.0288 0.70914,-0.0325 0.0993,-0.003 0.53729,-0.008 0.97357,-0.0108 z"
         id="icon" /></g></g></svg>